<svg width="146" height="24" viewBox="0 0 146 24" fill="none" xmlns="http://www.w3.org/2000/svg">
<path d="M5.97073 10.6214V5.24225C5.97073 5.02612 5.85066 4.76197 5.3944 5.02613C4.86609 5.31429 2.20053 6.73112 2.08046 6.77915C1.9844 6.82717 1.91236 6.94724 1.91236 7.09133V13.431C1.91236 13.8393 1.81631 14.5837 1.288 15.3041C1.16793 15.4722 0.99983 15.5923 1.14391 15.7124C1.23997 15.7844 1.38405 15.7844 1.60018 15.6883C4.1937 14.7038 5.97073 12.7106 5.97073 10.6214Z" fill="black"/>
<path d="M108.655 8.12393H108.198V4.01753C108.198 3.87345 108.246 3.65732 108.655 3.82542V8.12393ZM108.655 14.3196L108.463 14.1995C108.391 14.1515 108.198 14.0314 108.198 13.8153V11.1737H108.655V14.3196ZM103.876 8.12393H103.708C103.612 8.12393 103.492 8.19598 103.444 8.26802C103.396 8.31605 102.339 9.92499 101.859 10.6454V4.08957C102.171 4.25767 103.54 4.9781 103.612 5.02612C103.78 5.12218 103.876 5.21823 103.876 5.41034V8.12393ZM101.547 14.8719C101.354 14.7518 101.21 14.6558 101.162 14.6317C101.066 14.5597 100.994 14.4877 100.994 14.3196V4.37774C100.994 4.16161 101.234 3.9695 101.547 3.99352V14.8719ZM116.339 15.112C116.195 15.04 115.163 14.4877 115.163 13.383V3.56127C115.163 3.48922 115.138 3.39317 114.994 3.29711C114.85 3.22507 111.44 1.20789 111.368 1.18388C111.248 1.13585 111.176 1.13585 110.912 1.27993C110.696 1.42402 108.487 2.79281 107.958 3.12901H107.718C107.142 2.81683 104.836 1.54408 104.764 1.49606C104.644 1.42401 104.548 1.44803 104.404 1.49606C104.308 1.54408 101.258 3.17704 100.682 3.48922H100.514C100.058 3.22506 97.9925 2.02436 97.8964 1.97634C97.8244 1.92831 97.6803 1.88028 97.5362 1.95232C97.3921 2.04838 94.8466 3.68133 94.7506 3.72936C94.6785 3.77739 94.5825 3.87344 94.6065 3.99352C94.6305 4.08957 94.7506 4.18563 94.9187 4.3057L96.7918 5.57844C96.9599 5.69851 96.9839 5.81859 96.9839 5.96267V14.4636L95.9273 15.064C95.8552 15.112 95.5911 15.2801 95.9032 15.4482C96.0713 15.5443 98.6168 16.865 99.4093 17.2733C99.5534 17.3453 99.7215 17.3453 99.8415 17.2973C100.49 16.9371 102.435 15.8565 102.483 15.8084C102.603 15.7364 102.747 15.5923 102.507 15.4242C102.435 15.3762 102.147 15.1841 101.835 14.992V11.1257H103.852V14.1274L102.915 14.7038C102.843 14.7518 102.675 14.9199 103.011 15.112C103.131 15.1841 106.109 16.769 107.046 17.2493C107.214 17.3453 107.406 17.3453 107.55 17.2493C108.222 16.817 110.168 15.6163 110.216 15.5923L110.36 15.4482L110.24 15.2801C110.168 15.2321 109.447 14.7758 108.943 14.4396V10.9816C109.303 10.4293 110.72 8.29203 110.768 8.244C110.816 8.17196 110.816 8.0759 110.696 8.0759H108.943V3.92148C109.495 4.20964 110.696 4.83401 110.768 4.85802C110.936 4.95408 111.056 5.09816 111.056 5.36232V14.2955C111.056 14.8959 111.344 16.4808 113.482 17.3213C113.554 17.3453 113.746 17.3453 113.866 17.2733C114.442 16.865 116.363 15.4962 116.411 15.4482C116.507 15.4482 116.579 15.2801 116.339 15.112Z" fill="black"/>
<path d="M11.3499 7.9558C11.2058 8.1239 10.6054 8.74826 9.90901 8.67622C9.40471 8.65221 8.94845 8.26798 8.54021 7.59559V4.56982H11.0137C11.3499 4.56982 11.3499 4.59384 11.3499 4.85799V7.9558ZM11.3499 10.1411C11.0857 9.87692 10.5814 9.51671 9.95704 9.51671C9.45274 9.51671 8.97246 9.73284 8.5162 10.1891V8.19594C8.92443 8.72425 9.3807 8.9884 9.86098 9.03643C10.4853 9.08446 11.0377 8.72425 11.3258 8.43608V10.1411H11.3499ZM11.3499 14.6077L11.2058 14.7037C10.8456 14.5597 9.81295 14.1754 8.54021 14.0554V10.6694C8.99648 10.0931 9.47676 9.8289 9.98105 9.8289C10.6534 9.8289 11.2298 10.4052 11.3739 10.5733V14.6077H11.3499ZM13.343 1.448H4.52987C4.36177 1.448 4.19367 1.52004 4.04959 1.6161C3.28114 2.19244 0.807693 4.08954 0.663609 4.20961C0.543538 4.28165 0.471497 4.37771 0.471497 4.47377L0.639595 4.59384H8.22803V14.0314C6.25888 13.9113 3.78543 14.4396 2.10445 17.1772C2.00839 17.3453 2.00839 17.5374 2.27255 17.4894C4.4098 17.2492 7.98789 16.865 10.5574 17.5374L10.8696 17.4173C11.2778 16.817 12.7907 14.7518 15.5283 14.1274C15.6003 14.1034 15.7444 14.0073 15.7444 13.8632V4.30567C15.7204 2.96089 15.4322 1.448 13.343 1.448Z" fill="black"/>
<path d="M23.4769 14.7038L23.4289 14.8238C23.3329 14.9439 23.0207 15.16 22.4683 14.9199C21.7239 14.5837 20.5232 13.7432 19.9949 12.6385C19.6347 11.9181 19.2985 10.7655 19.5867 9.78088C19.7788 9.08448 20.091 8.48412 21.1476 7.81173H21.4357C21.868 8.0999 23.1888 8.98842 23.2848 9.06046C23.3809 9.1325 23.4529 9.25258 23.4529 9.34863V14.7038H23.4769ZM29.8887 15.088C29.7686 14.9919 28.5439 14.1995 28.2077 13.9593L28.1116 13.7672V9.06046C28.1116 8.91638 28.1597 8.86835 28.2317 8.79631L28.9041 8.24399C29.0002 8.17195 29.0722 7.95582 28.8081 7.78772C28.4959 7.59561 24.7257 5.60244 24.5336 5.5304C24.3655 5.45836 24.1493 5.43435 23.8852 5.50639C23.2368 5.6985 19.7307 6.87518 17.4254 9.85292C16.3688 11.1977 16.1527 12.9507 16.4408 14.2715C16.705 15.4482 17.3774 16.9371 20.211 17.4654L20.5712 17.3693C21.0995 16.9371 22.7805 15.5923 22.8766 15.4962C22.9967 15.4002 23.0927 15.4002 23.1888 15.4722C23.2848 15.5202 26.3346 17.0091 27.1511 17.3933C27.2712 17.4654 27.4152 17.4414 27.5113 17.3693C28.0396 16.9611 29.7686 15.6163 29.8887 15.4962C30.1048 15.4002 30.0808 15.2321 29.8887 15.088Z" fill="black"/>
<path d="M36.9968 15.2801C36.9248 15.2321 35.9642 14.7038 35.7001 14.5357C35.58 14.4637 35.58 14.3196 35.58 14.1755V9.22861C35.58 9.0365 35.628 8.98847 35.7961 8.8684C35.9162 8.79636 36.2284 8.55621 36.3965 8.41212C36.5406 8.31607 36.6126 8.17198 36.4205 8.05191C36.2764 7.95586 33.0105 6.17882 32.7223 6.01072C32.4342 5.86664 32.3141 5.86664 32.17 5.9627C32.0259 6.05876 29.6726 7.64368 29.5045 7.76375C29.3364 7.88382 29.3604 8.09994 29.4805 8.17198C29.6005 8.24403 30.6812 8.84438 30.8252 8.94044C30.9693 9.03649 31.0174 9.10854 31.0174 9.20459V14.7038C31.0174 14.7038 30.7052 14.9439 30.441 15.1601C30.1769 15.3762 30.2969 15.5683 30.369 15.6163C30.441 15.6644 33.2507 17.0812 34.0191 17.4414C34.1392 17.4894 34.2592 17.4894 34.3553 17.4174C34.9076 17.0332 36.8528 15.6884 37.0209 15.5683C37.1409 15.4723 37.1169 15.3522 36.9968 15.2801Z" fill="black"/>
<path d="M33.9711 5.24223C34.3793 4.95406 34.7635 4.61786 35.0517 4.20963C35.4599 3.65731 35.7241 2.9609 35.4359 2.28851C35.1718 1.68816 34.3793 1.35196 33.7549 1.56809C33.1066 1.78422 32.5783 2.38457 32.4102 3.10499C32.2421 3.82541 32.5302 4.85801 32.8664 5.33829C33.0826 5.67448 33.4188 5.60244 33.9711 5.24223Z" fill="black"/>
<path d="M44.105 15.4242C44.0329 15.3761 43.1204 14.8478 42.8322 14.6797C42.7122 14.6077 42.7122 14.4636 42.7122 14.3195V2.16841C42.7122 2.00031 42.496 1.90426 42.2319 2.00032C42.0158 2.07236 37.6452 3.41714 37.5251 3.48918L37.4291 3.65728C37.4291 3.75334 37.5492 3.80137 37.7172 3.84939C37.9814 3.94545 38.3416 4.06552 38.3416 5.0501V14.5116C38.3416 14.6077 38.2936 14.7037 38.2215 14.7518C38.1015 14.8478 37.9334 14.9679 37.7653 15.112C37.5011 15.3281 37.6212 15.5202 37.6932 15.5682C37.7413 15.6163 40.5269 17.0091 41.3194 17.3933C41.4394 17.4654 41.5835 17.4413 41.7036 17.3693C42.2799 16.9851 43.9609 15.8324 44.105 15.7363C44.2491 15.6163 44.2251 15.4962 44.105 15.4242Z" fill="black"/>
<path d="M57.8651 7.54757C57.745 7.47553 54.6712 5.62644 54.5271 5.5544C54.287 5.43433 54.1189 5.41032 53.8787 5.5544C53.7346 5.65046 51.7655 7.06729 51.6454 7.16334C51.4773 7.28341 51.4773 7.49954 51.6454 7.64362C51.7895 7.76369 52.63 8.19594 52.7261 8.24397C52.8701 8.31601 52.9902 8.4601 52.9902 8.74827V15.208C52.9902 15.208 53.0142 15.5923 52.582 15.7844C52.1737 15.9765 51.1651 16.1926 50.1806 15.4001C50.0365 15.3041 50.0125 15.088 50.0125 14.9919V8.82031C50.0125 8.82031 50.0125 8.4601 50.2766 8.24397L50.5888 7.97982C50.7809 7.81172 51.0211 7.66763 50.5648 7.37947C50.4447 7.30742 47.539 5.7225 47.3949 5.65046C47.1548 5.53039 46.9867 5.50637 46.7466 5.65046C46.6025 5.74651 44.5133 7.11531 44.3932 7.21137C44.2251 7.33144 44.2251 7.54757 44.3932 7.66764C44.5373 7.78771 45.3778 8.21995 45.4738 8.292C45.6179 8.36404 45.738 8.50812 45.738 8.79629V15.7363C45.738 15.9765 45.6419 16.0725 45.5939 16.1206C44.9695 16.7449 44.4892 17.4173 44.3211 18.4259C44.153 19.3625 44.057 20.7313 45.81 21.8359C47.6591 23.0126 50.3246 22.5083 51.4293 22.052C52.5339 21.5958 53.3984 21.0674 54.407 20.9474C55.3916 20.8273 55.8479 21.5717 55.1995 22.3882C54.5271 23.2527 53.2063 23.1807 53.0863 23.1807C52.9662 23.1807 52.582 23.2047 53.0622 23.3968C54.1189 23.8291 55.6798 23.3007 56.6163 22.3642C57.5048 21.4997 57.9131 19.4105 56.2801 18.3539C54.6712 17.3213 52.7261 17.8256 51.8135 18.1137C50.877 18.4019 49.292 19.1944 47.7792 19.1944C46.2663 19.1944 44.7534 18.0657 45.9301 16.6729C46.9867 15.4001 49.0039 15.5442 49.8204 16.0245C50.6608 16.5048 51.8856 17.2972 53.9508 17.2972C56.016 17.2972 57.0966 16.0965 57.0966 15.4001V9.25256C57.0966 9.25256 57.0966 8.94037 57.3608 8.67622L57.9371 8.09989C58.0331 7.97982 58.2253 7.73968 57.8651 7.54757Z" fill="black"/>
<path d="M123.832 14.5597L123.784 14.6798C123.687 14.7998 123.375 15.016 122.823 14.7758C122.079 14.4396 120.878 13.5991 120.35 12.4945C119.989 11.7741 119.653 10.6214 119.941 9.66083C120.157 8.96442 120.446 8.36407 121.502 7.69167H121.79C122.223 7.97984 123.543 8.86836 123.639 8.94041C123.735 9.01245 123.808 9.13252 123.808 9.22858V14.5597H123.832ZM130.243 14.9439C130.123 14.8479 128.899 14.0554 128.562 13.8153L128.466 13.6231V8.89238C128.466 8.74829 128.514 8.70027 128.586 8.62823L129.259 8.0759C129.355 8.00386 129.427 7.78773 129.163 7.61963C128.826 7.42752 125.08 5.43436 124.888 5.36231C124.72 5.29027 124.504 5.26626 124.264 5.3383C123.615 5.53041 120.109 6.7071 117.804 9.68484C116.747 11.0296 116.531 12.7827 116.843 14.1034C117.108 15.2801 117.78 16.769 120.59 17.2973L120.974 17.2012C121.502 16.769 123.183 15.4242 123.279 15.3281C123.399 15.2321 123.495 15.2321 123.591 15.3041C123.687 15.3522 126.737 16.841 127.554 17.2253C127.674 17.2733 127.818 17.2733 127.914 17.2012C128.442 16.793 130.171 15.4482 130.291 15.3281C130.435 15.2561 130.435 15.088 130.243 14.9439Z" fill="black"/>
<path d="M137.351 15.136C137.279 15.088 136.319 14.5597 136.055 14.3916C135.935 14.3196 135.935 14.1755 135.935 14.0314V9.08451C135.935 8.89239 135.983 8.84436 136.151 8.72429C136.271 8.65225 136.583 8.41211 136.775 8.26803C136.895 8.17197 136.991 8.0519 136.799 7.90782C136.655 7.81176 133.389 6.03472 133.101 5.86662C132.837 5.72254 132.693 5.72254 132.549 5.81859C132.405 5.91465 130.051 7.49958 129.883 7.61965C129.715 7.73972 129.739 7.95585 129.859 8.02789C129.979 8.09993 131.06 8.72429 131.204 8.79633C131.348 8.89239 131.396 8.96443 131.396 9.06049V14.2956C131.396 14.4636 131.348 14.5837 131.3 14.6318C131.18 14.7278 130.988 14.8719 130.82 14.992C130.555 15.2081 130.676 15.4002 130.748 15.4482C130.82 15.4963 133.629 16.9131 134.398 17.2733C134.518 17.3213 134.638 17.3213 134.734 17.2493C135.286 16.8651 137.231 15.5203 137.4 15.4002C137.496 15.3041 137.472 15.2081 137.351 15.136Z" fill="black"/>
<path d="M134.326 5.09817C134.734 4.81001 135.094 4.47381 135.406 4.06558C135.815 3.51326 136.079 2.81685 135.791 2.14446C135.526 1.54412 134.734 1.20792 134.11 1.42405C133.461 1.64017 132.933 2.24052 132.765 2.96094C132.597 3.68135 132.885 4.71395 133.221 5.21824C133.437 5.53042 133.773 5.45838 134.326 5.09817Z" fill="black"/>
<path d="M144.46 15.2801C144.388 15.2321 143.475 14.7038 143.187 14.5357C143.067 14.4636 143.067 14.3195 143.067 14.1754V2.02437C143.067 1.85628 142.851 1.76022 142.587 1.85627C142.37 1.92832 138 3.2731 137.88 3.32113L137.784 3.48922C137.784 3.58528 137.904 3.63331 138.072 3.68134C138.336 3.77739 138.72 3.89746 138.72 4.88204V14.3435C138.72 14.4396 138.672 14.5357 138.6 14.5837C138.48 14.6797 138.312 14.7998 138.144 14.9439C137.88 15.16 138 15.3521 138.072 15.4002C138.144 15.4482 140.906 16.841 141.698 17.2252C141.818 17.2973 141.962 17.2733 142.082 17.2012C142.659 16.817 144.316 15.6643 144.484 15.5683C144.604 15.4722 144.58 15.3521 144.46 15.2801Z" fill="black"/>
<path d="M91.4366 7.66764L91.4606 7.97982C91.4606 8.17194 91.5327 8.34003 91.6287 8.48412L88.603 8.43609C87.6664 8.292 87.6904 7.4275 87.7145 7.23539C87.7625 7.0913 87.8345 6.97123 87.9786 6.89919C88.4109 6.68307 89.1793 6.94722 89.1793 6.94722C90.0198 7.33145 90.7883 7.52356 91.4606 7.54757L91.4366 7.66764ZM63.7245 14.8478C63.5564 14.2955 62.7879 14.1274 62.5478 14.1034L62.6198 13.7432C62.6678 13.5751 62.8119 13.359 62.884 13.2629C63.2682 13.431 64.2528 13.6231 64.589 13.6711C64.4689 13.7912 64.2768 13.8873 64.1087 13.9593L63.9166 14.0554C63.6284 14.2235 63.7485 14.7278 63.7725 14.7758C63.8445 14.9679 64.0366 15.0399 64.2288 15.112L64.3008 15.136L64.3728 15.16C64.5169 15.208 64.9011 15.3041 65.2854 15.3761C64.1327 15.3761 63.7004 15.3281 63.5564 15.3281C63.7245 15.088 63.7245 14.8718 63.7245 14.8478ZM69.872 15.0399L69.824 14.7518V14.7037V14.5116L69.752 14.3435L69.8 14.3676C69.9201 14.4156 69.9201 14.4156 69.8961 14.5356V14.5597V14.5837C69.9441 14.7518 70.1362 14.8959 70.3043 14.9919L69.872 15.0399ZM71.2889 12.8066C71.0247 12.6145 70.6885 12.5905 70.6645 12.5905H70.6165L70.5925 12.6145L70.5444 12.6626C70.3283 12.5185 69.9921 12.5185 69.9681 12.5185H69.9201L69.8961 12.5425L69.872 12.7586C69.6079 12.7346 69.3437 12.7586 69.3437 12.7586H69.2717V12.8307C69.2717 13.0228 69.3197 13.2389 69.4158 13.407L69.4878 13.503L69.3197 13.5511L69.2477 13.7432L69.3197 13.9593L69.2237 13.9113C68.9835 13.7912 68.7674 13.8633 68.6954 13.8873C68.3832 13.7912 68.119 13.7912 67.9509 13.9113C67.7828 14.0073 67.7108 14.1514 67.6868 14.2475L67.3746 14.4156L67.2545 14.5116C67.1585 14.4876 66.9423 14.4636 66.7262 14.3916C66.5341 14.3195 66.342 14.2235 66.2219 14.1754L66.4861 13.7912C67.0384 13.8152 67.6147 13.2629 67.6628 13.2389L67.8068 13.0948H67.6147C67.0144 13.0948 66.5581 12.6385 66.342 12.3744C66.6542 12.5185 67.0384 12.6866 67.2545 12.7586C68.8875 13.2389 69.6559 12.5665 69.848 12.3504C70.3523 12.6866 70.6405 12.5185 70.6405 12.5185C70.7846 12.4224 70.9287 12.3264 70.9767 12.3264C71.481 12.6866 72.3455 12.9747 72.7057 13.0948C72.6096 13.1909 72.5376 13.3109 72.4896 13.383C72.2975 13.2629 72.0813 13.3349 71.9613 13.383C71.8652 12.8307 71.3609 12.7586 71.3369 12.7586H71.2889V12.8066ZM72.7297 10.3812C72.6817 10.6934 72.6577 11.1257 72.6817 11.4859L72.2014 11.1977C72.2014 11.1977 72.0333 11.0776 71.8652 10.9576C72.0813 10.9576 72.3215 10.9576 72.4175 10.8615C72.4656 10.8135 72.6096 10.5974 72.7297 10.3812ZM88.5069 9.32461C89.0352 9.37264 90.404 9.37264 91.4126 9.34863H91.5567C91.4606 9.4687 91.3886 9.61278 91.3646 9.78087L91.3166 10.1171L91.2926 10.2852L91.4366 10.2131L91.7248 10.045L91.8929 9.97298L91.8449 10.021L91.9649 10.045L92.2051 10.069C92.2051 10.069 92.9735 10.1411 93.5259 9.54073C93.5979 9.56475 93.6699 9.58876 93.814 9.63679C94.1742 9.75686 94.4384 9.94898 94.5585 10.1891C94.7986 10.7174 94.4144 11.2217 94.3663 11.2938C94.1022 11.5339 93.5499 11.4859 93.5259 11.4859C91.6528 11.1257 88.9152 10.4533 88.651 10.3812C88.579 10.2612 88.4829 10.1891 88.3628 10.1651L88.1707 10.2131L88.0026 10.1651C87.9546 10.045 87.8585 9.94897 87.7625 9.92496C87.6424 9.90095 87.5464 9.94897 87.4743 9.97298C87.1621 9.87693 86.2256 9.37264 85.9374 9.22855C86.4177 8.67623 86.7059 8.07588 86.85 7.57158C86.874 8.09989 87.0421 8.53215 87.3542 8.84433C87.7865 9.27658 88.3869 9.32461 88.5069 9.32461ZM81.6869 10.6934L81.1346 10.6694L80.9905 10.6454L80.7264 10.6214C80.7024 10.1651 80.6303 9.61277 80.5103 9.25256C80.3902 8.89235 80.2701 8.60418 80.1741 8.41207L80.3422 8.60419C80.4142 8.70025 81.5188 9.94897 81.6869 10.1411C81.6389 10.4052 81.6629 10.5973 81.6869 10.6934ZM84.8088 14.6317L84.7607 14.6557C84.5446 14.7278 84.2805 14.8238 83.9923 14.9199L83.8962 14.9439L83.9683 15.0399L84.2564 15.4002C84.0163 15.3761 83.7762 15.3041 83.6561 15.2801C83.6561 15.0159 83.7041 14.8478 83.8002 14.6317C83.8242 14.5597 83.8722 14.4396 83.8962 14.3435L83.8482 14.0794C83.6081 13.7192 82.5034 13.6711 82.2633 13.6711L81.9031 13.3349L81.855 13.2869L81.0145 12.4945L80.8945 12.3744V12.5425C80.8945 12.7586 80.7744 13.1188 80.6543 13.383C80.5823 13.5511 80.4862 13.7192 80.4622 13.7912L80.1981 13.7192L80.3662 13.407C80.6063 12.8787 80.6784 12.0862 80.7024 11.8701C80.7984 11.8701 80.9665 11.8941 81.3267 11.9902L81.5188 12.0382C81.783 12.1102 82.0471 12.1823 82.3113 12.2783C82.6955 12.3984 83.0077 12.4945 83.1758 12.5185L83.3199 12.5425C83.7041 12.6145 83.8242 12.6385 83.8722 12.5905L83.9202 12.5185C83.9202 12.3264 83.9683 12.2303 84.0163 12.2063C84.1844 12.3744 84.5206 12.4464 84.7847 12.4945L84.9528 12.5185C85.5292 12.5905 86.2736 12.5425 86.6578 12.3984L86.922 12.3023C87.2342 12.1823 87.5464 12.0382 87.8585 11.9902C86.8259 12.6866 86.3457 13.0228 86.4417 13.479C86.4897 13.6711 86.7539 13.9113 87.0421 14.1754L87.2102 14.3195C86.1776 15.064 85.8414 14.7998 85.8174 14.7758C85.289 14.3435 84.8808 14.5837 84.8088 14.6317ZM89.8997 15.3041C89.5876 15.3521 88.2668 15.5683 86.97 15.5202C87.2342 15.2801 87.8105 14.7998 88.2428 14.6797C88.2908 14.6797 88.603 14.6077 88.675 14.3916C88.7471 14.1514 88.4589 13.8152 88.2188 13.5271L88.3869 13.479L88.675 13.455C88.9632 13.455 89.5395 13.2869 89.7076 13.2389C89.8757 13.5271 90.2119 13.9593 90.8843 14.2235C90.6202 14.3435 90.1879 14.5597 90.1159 14.6317C90.0918 14.6797 89.8757 14.8959 89.8997 15.3041ZM82.2393 15.9044C82.0231 15.8324 81.9991 15.7123 81.9991 15.7123L82.0952 15.5683L82.2393 15.4962C82.2393 15.6883 82.2393 15.8324 82.2393 15.9044ZM95.3029 9.75686C95.0868 9.25256 94.6305 8.89235 93.9821 8.67623L93.766 8.6282L93.6459 8.58017C93.0936 7.9318 92.3972 7.83574 92.3252 7.83574L92.037 7.81172L91.8929 7.78771L91.9649 7.90778L91.7968 7.81172L91.5327 7.61961L91.4847 7.5956C91.9409 7.5956 92.3492 7.52356 92.7334 7.37947C93.5979 6.99525 93.8861 6.29884 93.9101 6.20279L94.0301 5.86659L94.0782 5.69849L93.9101 5.77053L93.5739 5.93863C93.2377 6.10673 92.9495 6.2268 92.6854 6.32286C92.8054 6.15476 92.8535 6.01067 92.8535 6.01067L92.9495 5.72251L92.9975 5.57842L92.8535 5.62645L92.5653 5.69849C92.2531 5.79455 91.989 5.86659 91.7488 5.91462L91.8209 5.72251L91.8689 5.45835L91.8929 5.33828L91.7728 5.38631L91.5327 5.48237C91.2205 5.57842 90.404 5.62645 90.1159 5.62645C89.5395 5.60244 88.603 5.67448 88.579 5.67448C87.6424 5.81856 87.2102 6.2268 86.994 6.51497L86.946 6.61102C86.97 6.32285 86.97 6.15476 86.97 6.15476C86.8019 3.92145 85.3611 3.72934 85.0969 3.70533C84.8328 3.00892 83.9683 3.00892 83.9683 3.00892H83.8962V3.08096C83.8722 3.29709 83.9683 3.58526 84.0163 3.70533L83.9202 3.77737C83.6561 3.58526 82.2873 2.67273 81.759 2.50463C81.5188 2.43259 81.4228 2.50463 81.3507 2.57667C81.2547 2.69674 81.3027 2.86484 81.3507 2.93688C81.4948 3.15301 82.9837 4.20962 83.3439 4.49779C83.0317 4.858 82.5755 5.31427 82.5274 5.33828H82.4554H82.2873C82.1192 5.38631 81.9511 5.69849 81.9511 5.69849C81.9031 5.77053 81.9511 5.96265 81.9751 6.08272C81.831 6.15476 81.711 6.13074 81.711 6.13074L81.5669 6.15476L81.4948 6.29884L81.5669 6.51497C81.735 6.80313 82.1672 6.80314 82.2873 6.80314L82.6955 7.21137H82.7195C82.9117 7.30743 83.0317 7.18736 83.0317 7.16335L83.3919 6.73109L83.8962 6.46694L84.0403 6.53898C83.6321 6.77912 83.44 7.16335 83.3679 7.30743C83.1998 7.28342 82.8876 7.23539 82.8876 7.23539H82.8156L82.7916 7.30743L82.5514 8.14792C82.3353 8.29201 82.1432 8.6282 82.0472 8.7963L81.711 8.43609L81.6149 8.31602L80.7024 7.37947C80.5343 7.18736 80.3422 7.06729 80.102 7.06729C79.7658 7.04328 79.4777 7.2594 79.3576 7.35546C79.4536 7.28341 79.5257 7.18736 79.5257 7.06729C79.5497 6.92321 79.4777 6.77913 79.3576 6.70708L79.3096 6.68307L80.126 4.52181C80.3181 3.9935 80.15 3.70533 79.9819 3.56124C79.8139 3.41716 79.5737 3.36913 79.4296 3.36913C79.3336 3.12899 79.2135 2.96089 79.0454 2.93688L78.8293 2.96089C78.7572 2.69674 78.6372 2.52864 78.4691 2.48061C78.2769 2.40857 78.0848 2.50463 77.9648 2.55265C77.8927 2.33653 77.7727 2.21646 77.6526 2.16843L77.3884 2.19244V0.847656H76.1157V2.16843C75.9476 2.1204 75.8035 2.1204 75.7074 2.19244C75.5394 2.2885 75.4913 2.4566 75.4433 2.57667C75.2512 2.48061 75.0591 2.4566 74.939 2.52864C74.7709 2.62469 74.7229 2.86484 74.6989 2.98491C74.5308 2.9609 74.3867 2.96089 74.2906 3.05695C74.1465 3.15301 74.1225 3.3211 74.1225 3.41716C73.9064 3.44117 73.7383 3.53723 73.6423 3.68131C73.4021 4.04153 73.5942 4.56983 73.5942 4.59384C73.5942 4.59384 73.9784 5.96265 74.0265 6.17877C73.8824 6.53898 72.4896 8.31602 71.9132 9.03644L71.457 8.89235L71.577 8.86834L71.6251 8.84433V8.7963C71.6011 8.67623 71.6011 8.60418 71.577 8.53214C71.529 8.38806 71.529 8.292 71.6011 7.93179C71.7211 7.30743 71.457 6.63504 71.457 6.61102C71.2649 5.98666 71.2649 5.77053 71.2649 5.72251C71.3609 5.55441 71.4089 5.38631 71.3609 5.21821C71.2889 4.93004 71.0247 4.71392 70.9287 4.66589C70.9527 4.44977 71.0007 3.70533 70.9287 3.53723C70.8806 3.39315 70.7846 3.3211 70.6885 3.27307C70.5444 3.24906 70.4244 3.29709 70.3283 3.34512C70.2563 3.20104 70.1602 3.12899 70.0642 3.10498C69.9441 3.08097 69.824 3.12899 69.776 3.153C69.6559 3.00892 69.5359 2.91286 69.4158 2.91286C69.2957 2.91286 69.1756 2.98491 69.1276 3.05695L68.8875 2.33653L68.8635 2.26449L68.7914 2.2885L68.047 2.52864L67.9749 2.55265L67.999 2.6247L68.2391 3.39314C68.095 3.36913 67.999 3.41716 67.9269 3.4892C67.8309 3.58525 67.8549 3.75335 67.8549 3.84941C67.7348 3.87342 67.6628 3.92145 67.6147 3.99349C67.5427 4.11356 67.5667 4.25765 67.5907 4.32969L67.3506 4.47377C67.2545 4.61786 67.3025 4.83398 67.3025 4.93004V4.95406C67.3025 5.00208 67.4947 5.31426 67.8309 5.8906C67.6628 6.3949 67.9269 6.63504 68.047 6.73109L68.071 6.75511C67.9269 7.30743 68.1911 7.85976 68.2871 8.02785L68.2151 8.09989C67.8789 8.50813 67.3506 9.15651 66.294 9.39665L62.5718 10.5253L60.7227 11.0536C59.9302 11.2938 58.9457 11.4619 58.7776 10.9816L58.7536 10.9576C58.7295 10.9095 58.7055 10.5733 58.8976 10.1651C59.0898 9.75686 59.474 9.46869 59.9783 9.30059C60.0743 9.46869 60.4586 9.90094 61.3471 9.85291H61.4191V9.78087L61.3951 9.68482C61.5392 9.73285 61.5872 9.78088 61.6593 9.82891L61.7553 9.90094L61.8514 9.97298V9.85291C61.8514 9.80489 61.8754 9.44468 61.7553 9.22855L66.366 9.20454C66.39 9.20454 67.9029 9.03644 67.8549 7.0913C67.8309 5.48236 65.8617 5.45835 64.9252 5.45835C64.733 5.45835 64.613 5.45835 64.5169 5.43434L64.3008 5.41032C64.0366 5.38631 63.5564 5.31427 63.4603 5.26624L63.3883 5.24223L63.3402 5.29025C63.2922 5.38631 63.2202 5.55441 63.2922 5.72251C62.908 5.62645 62.5478 5.55441 62.4997 5.50638L62.4037 5.43434L62.3797 5.53039C62.3797 5.5544 62.3076 5.79454 62.4037 6.01067C62.0675 5.8906 61.6833 5.7225 61.6112 5.65046L61.5152 5.55441L61.4671 5.69849C61.4671 5.72251 61.275 6.41891 62.0915 7.01926C62.908 7.61961 64.2768 7.52355 64.9011 7.21137C65.2614 7.04327 66.318 6.51497 66.7502 6.77912C66.8703 6.85116 66.9423 7.01926 66.9183 7.23539C66.8703 8.31602 66.1739 8.29201 65.6456 8.26799H65.4535C65.4535 8.26799 62.4277 8.31602 61.7073 8.31602C61.7793 8.19595 61.8754 7.95581 61.8033 7.61961L61.7793 7.52356L61.6833 7.57158L61.3711 7.73968L61.3951 7.69165L61.299 7.66764C61.299 7.66764 60.3865 7.49954 59.8582 8.43609C59.7381 8.48412 59.0898 8.70025 58.6335 9.08447C58.2973 9.37264 57.6969 10.1651 57.841 11.0536C57.9131 11.5339 58.1772 11.75 58.3213 11.8221C58.1772 11.9902 58.1052 12.1823 58.1292 12.3744C58.1532 12.7346 58.4414 12.9747 58.4654 12.9988L58.5374 13.0708L58.5855 12.9747C58.8256 12.3744 59.2819 12.1583 60.3145 11.9181C60.7467 11.8221 61.155 11.702 61.3711 11.63C61.251 11.8461 61.179 12.1102 61.1069 12.3264C61.0349 12.5185 60.9869 12.7106 60.9148 12.7826C60.6507 13.0708 60.3625 12.9507 60.1224 12.7586L60.0983 12.7346H59.8342C59.522 12.8787 59.3539 13.5751 59.3059 13.7912C58.8976 13.7912 58.6095 13.8633 58.4654 14.0554C58.3453 14.2235 58.3693 14.4396 58.3934 14.4876C58.2973 15.112 58.1292 16.1686 58.2493 16.3127C58.6335 16.793 58.8976 16.6969 58.9217 16.6729L58.9697 16.6489V16.6009V16.1926H59.2819C59.6421 16.841 60.0023 17.0091 60.0503 17.0091L60.4826 17.3453L60.5546 17.4413L60.6026 17.3213C60.6267 17.2732 60.7467 17.0091 60.6987 16.817L60.7948 16.793C60.8428 16.817 60.9869 16.9611 61.1069 17.1532L61.155 17.2252L61.227 17.1772C61.4671 17.0091 61.4431 16.6969 61.4431 16.5768C61.6112 16.4328 61.5872 16.1446 61.5632 16.0005C61.8514 15.9525 62.1635 16.0245 62.2836 16.0485L62.3076 16.5288V16.5528V16.5768C62.5238 17.1051 63.0761 17.1772 63.1241 17.1772C63.3883 17.2492 63.7725 17.3213 64.2768 17.3453H64.3248C65.1653 17.3933 66.1979 17.3693 67.0624 17.3213C68.6233 17.2492 70.0642 17.0571 70.1602 17.0331C70.5204 17.1052 70.7846 17.0811 70.9287 17.0571L70.9046 17.1292L71.0007 17.1532C71.3849 17.2252 71.6251 17.0571 71.7211 16.937C71.8892 17.1292 72.1053 17.2252 72.1053 17.2252L72.1534 17.2492L72.2014 17.2012L72.2254 17.1772L72.2975 17.2252L72.3455 17.2492L72.3935 17.2252C72.5856 17.1292 72.6337 16.9611 72.6817 16.817L72.8738 16.889L72.9939 16.841C73.1139 16.9851 73.3061 17.0811 73.3541 17.0811L73.4021 17.1052L73.4261 17.0571L73.4741 16.9851C73.6182 17.1532 73.8344 17.2012 73.8344 17.2012H73.8824L73.9064 17.1532C74.1465 16.841 74.1465 16.4328 74.1225 16.2166L74.1465 16.1926L74.2186 16.0485L74.4107 16.0726C74.2186 16.1926 74.1225 16.2887 74.1946 16.5048C74.2906 16.817 74.4107 16.913 74.7949 16.9611L74.891 17.0091C74.915 17.0571 74.939 17.1292 75.0591 17.2492C75.1551 17.3453 75.2752 17.3693 75.3953 17.3213C75.5634 17.2492 75.7315 17.0811 75.7315 16.913C75.7555 16.769 75.7315 16.6729 75.7074 16.5528L75.8035 16.6249C75.9956 16.769 76.692 17.3453 76.692 17.3693L76.7401 17.4173L76.7881 17.3693L77.5325 16.793C77.9888 17.0811 78.2529 17.0811 78.373 17.0811L78.5411 16.9851L78.5891 16.841C79.3096 17.2973 80.1981 17.1772 80.2461 17.1772H80.2701L80.2941 17.1532L80.3902 16.9611C80.5343 16.9851 80.7024 17.0811 80.7504 17.1292C81.0145 17.3453 81.4468 17.1772 81.4708 17.1772L81.5188 17.1532V17.1052L81.4468 16.937L81.4708 16.793L81.6389 16.937C81.831 17.1772 82.1432 17.1292 82.1672 17.1052H82.2152L82.2393 17.0571C82.5034 17.2492 82.8156 17.1532 82.8156 17.1532H82.8396L82.8636 17.1292L82.9357 16.841C84.7847 17.4173 87.5223 17.3453 87.5464 17.3453C91.1965 17.3213 91.7488 16.6249 91.7488 16.6009C91.8929 16.4087 91.8449 16.1926 91.8449 16.1686L91.7728 15.9765C91.989 15.9285 92.1811 15.9285 92.2771 15.9285C92.2771 16.0245 92.2531 16.2647 91.9649 16.5048C91.8449 16.6009 91.8689 16.7449 91.9169 16.793C92.5893 17.5374 93.5499 16.7209 93.5499 16.7209L93.5739 16.6969V16.6489L93.5259 16.4568C93.6459 16.3847 93.766 16.2406 93.838 16.1686L94.1982 16.2647C94.1502 16.5048 94.0782 16.7209 94.0782 16.7209L94.0542 16.793L94.1262 16.817C94.3423 16.865 94.5344 16.865 94.7025 16.769C94.9907 16.6009 95.0627 16.2887 95.0627 16.2647V16.2406V16.2166L94.7266 14.4396C94.5825 14.1034 93.5979 13.9833 93.2617 13.9593C93.2617 13.7672 93.2617 13.3109 93.0216 13.1669C92.9015 13.0948 92.7814 13.1188 92.6133 13.1909C92.3252 13.359 91.8929 13.2389 91.7248 13.1909C91.7488 13.1188 91.7728 12.9027 91.7728 12.6385C91.7728 12.3504 91.7008 11.8461 91.6768 11.63C92.109 11.726 92.2531 11.774 92.6854 11.8701L93.2857 12.0142C94.1502 12.2063 94.3904 12.7106 94.4384 12.8066L94.5344 13.0708L94.5585 13.1188H94.6065C94.6545 13.1188 94.6545 13.1188 94.8226 12.8547C94.9667 12.5905 95.0627 12.3504 94.9427 12.0862L94.8226 11.8941C95.1348 11.702 95.2789 11.3898 95.3029 11.3418C95.447 11.0776 95.567 10.3812 95.3029 9.75686Z" fill="black"/>
<path d="M79.3576 6.77914H79.3336V6.75513L79.3576 6.77914Z" fill="black"/>
<path d="M76.7401 1.08777H76.4759L76.596 1.35192L76.668 1.47199L76.62 1.52002L76.4999 1.44798L76.2838 1.3039V1.59206V1.90425L76.4999 1.73615L76.62 1.66411L76.668 1.73615L76.596 1.85621L76.4759 2.09635H76.7401H76.9802L76.8601 1.85621L76.7881 1.73615L76.8361 1.66411L76.9562 1.73615L77.1723 1.90425V1.59206V1.3039L76.9562 1.44798L76.8361 1.52002L76.7881 1.47199L76.8601 1.35192L76.9802 1.08777H76.7401Z" fill="white"/>
<path d="M75.1551 2.72075C74.963 2.76878 74.8189 3.00892 74.867 3.27308C75.0831 3.15301 75.2992 3.05695 75.5634 2.9609C75.4913 2.7928 75.3232 2.69674 75.1551 2.72075Z" fill="white"/>
<path d="M76.3078 2.7688C76.2598 2.50465 76.0437 2.31255 75.8516 2.33656C75.6594 2.38459 75.5634 2.62472 75.6114 2.91289V2.9369C75.8516 2.86486 76.0677 2.81683 76.3078 2.7688Z" fill="white"/>
<path d="M77.9167 2.88886C77.8927 2.60068 77.7246 2.38455 77.5325 2.40856C77.3644 2.40856 77.2444 2.57667 77.2203 2.81682C77.4605 2.84083 77.7006 2.88886 77.9167 2.96091V2.88886Z" fill="white"/>
<path d="M78.6372 3.17705C78.6132 2.88888 78.4451 2.67275 78.2529 2.69677C78.1329 2.69677 78.0128 2.79283 77.9648 2.93691C78.2049 3.00895 78.421 3.10501 78.6372 3.22508V3.17705Z" fill="white"/>
<path d="M76.7401 2.88888C76.9802 2.88888 77.1964 2.67276 77.1964 2.43262H76.2838C76.2838 2.67276 76.4999 2.88888 76.7401 2.88888Z" fill="white"/>
<path d="M73.9064 14.6557L73.4981 14.2475L73.4741 14.4156L73.4021 14.5597L73.4501 14.8959L73.6422 14.9439C73.7623 14.9919 73.8103 15.088 73.8103 15.088C73.9784 14.9199 73.9064 14.6557 73.9064 14.6557Z" fill="white"/>
<path d="M59.2818 14.0314C58.9216 15.3521 59.1858 16.1206 59.1858 16.1206H58.8976V14.6798C58.3693 14.5357 58.6094 14.2955 58.6094 14.2955C58.8496 13.9593 59.2818 14.0314 59.2818 14.0314Z" fill="white"/>
<path d="M60.4585 16.745C60.5786 16.9371 60.5066 17.2012 60.5066 17.2012C60.4586 17.0091 60.1944 16.9611 60.1944 16.9611C60.3145 16.5769 60.4585 16.745 60.4585 16.745Z" fill="white"/>
<path d="M60.9388 16.721C61.0589 16.6009 61.0829 16.4808 61.0829 16.4808C61.3471 16.6249 61.203 17.0091 61.203 17.0091C61.131 16.793 60.9388 16.721 60.9388 16.721Z" fill="white"/>
<path d="M60.6506 15.6403C61.0589 15.6643 61.1069 16.0005 61.1069 16.0005C61.323 16.1686 61.299 15.9045 61.299 15.9045C61.0829 15.184 60.6506 15.6403 60.6506 15.6403Z" fill="white"/>
<path d="M61.155 16.1686C61.275 16.2166 61.3471 16.0966 61.3471 16.0966C61.4431 16.3367 61.3231 16.5528 61.3231 16.5528C61.275 16.3607 61.155 16.3607 61.155 16.3607V16.1686Z" fill="white"/>
<path d="M61.7073 15.088C62.1155 15.16 62.4517 14.3435 62.4517 14.3435C63.1001 14.3195 63.3883 14.6317 63.3883 14.6317C63.6764 14.9199 63.2922 14.8719 63.2922 14.8719C62.884 14.8478 62.2116 14.9919 62.2116 14.9919L62.1636 15.184C62.2116 15.3521 62.2356 15.8804 62.2356 15.8804C61.8994 15.7844 61.4431 15.8564 61.4431 15.8564C61.1069 14.9919 60.5306 15.5202 60.5306 15.5202C60.2905 14.9439 60.6027 14.4396 60.6027 14.4396C60.6747 14.4156 61.155 14.3676 61.5392 14.4396C61.8514 14.5116 61.5872 15.0399 61.5872 15.0399L61.7073 15.088Z" fill="white"/>
<path d="M62.4037 15.1841C62.6678 15.7124 65.7176 15.5683 66.9663 15.5203C67.9269 15.4722 67.9269 15.4722 70.7606 15.136C70.6405 15.7604 70.7125 16.4808 70.7125 16.4808C70.7606 16.817 70.2082 16.9131 70.2082 16.9131C65.7897 17.6815 63.3883 17.1292 63.3883 17.1292C62.5958 17.0572 62.4517 16.6009 62.4757 16.4568C62.5238 15.9765 62.4037 15.1841 62.4037 15.1841Z" fill="white"/>
<path d="M67.9029 14.2475C68.2391 13.7672 68.6954 14.1034 68.6954 14.1034C68.7914 14.1755 68.9115 14.4156 68.9115 14.4156C68.6954 14.4156 68.6473 14.5837 68.6473 14.5837C68.4792 14.2235 67.9029 14.2475 67.9029 14.2475Z" fill="white"/>
<path d="M68.5512 15.2321C68.5032 15.0159 68.6713 14.8959 68.6713 14.8959C68.7914 14.9919 68.8634 15.2081 68.8634 15.2081L68.5512 15.2321Z" fill="white"/>
<path d="M68.7434 14.7278C68.9595 14.8479 69.0316 15.16 69.0316 15.16L69.2477 15.136C69.2957 14.7278 69.0316 14.5117 69.0316 14.5117C68.7914 14.5357 68.7434 14.7278 68.7434 14.7278Z" fill="white"/>
<path d="M68.8635 14.0074C68.9835 14.0794 69.1036 14.3676 69.1036 14.3676C69.2717 14.4876 69.3437 14.7758 69.3437 14.7758C69.4878 14.6797 69.68 14.7038 69.68 14.7038C69.5599 13.9833 68.8635 14.0074 68.8635 14.0074Z" fill="white"/>
<path d="M69.3917 14.8719L69.4157 15.136L69.7279 15.088C69.7519 14.9439 69.6559 14.8239 69.6559 14.8239C69.4878 14.7518 69.3917 14.8719 69.3917 14.8719Z" fill="white"/>
<path d="M71.481 12.9508V13.1909C71.3369 12.9508 70.8566 12.8067 70.8566 12.8067C70.8086 12.9027 70.8806 13.1909 70.8806 13.1909C70.6405 12.7346 70.1122 12.7106 70.1122 12.7106C70.1122 12.9027 70.2562 13.0468 70.2562 13.0468C70.0161 12.8787 69.5358 12.9508 69.5358 12.9508C69.6079 13.407 69.9921 13.7432 69.9921 13.7432L69.9441 13.8393C69.6559 13.6472 69.5598 13.7913 69.5598 13.7913V13.8873C69.7039 14.1515 70.3043 14.3676 70.3043 14.3676C70.1362 14.4396 70.0881 14.5597 70.0881 14.5597C70.3043 14.968 70.9527 14.9439 70.9527 14.9439C70.8326 14.5597 70.9046 14.2235 70.9767 14.0794L69.752 13.0949C69.752 13.0949 70.7125 13.7672 71.0727 13.9353C71.3369 13.6952 71.6971 13.7432 71.6971 13.7432L71.8652 13.5511C71.8172 13.2149 71.481 12.9508 71.481 12.9508Z" fill="white"/>
<path d="M71.1207 14.8718C70.9286 14.5356 71.0727 14.2955 71.0727 14.2955C71.2168 13.8152 71.6731 13.8873 71.6731 13.8873C71.8412 13.9353 71.8892 13.8152 71.8892 13.8152C72.2014 13.407 72.3695 13.6471 72.3695 13.6471C72.4655 13.7912 72.7537 13.8152 72.7537 13.8152C73.0419 13.8873 72.8978 14.2235 72.8978 14.2235C72.8017 14.4156 72.9458 14.4636 72.9458 14.4636C73.5462 14.5356 73.0419 15.4962 73.0419 15.4962C72.9458 15.6643 72.6817 15.5923 72.6817 15.5923L72.6096 15.6643C72.7297 15.8804 72.6096 16.0005 72.6096 16.0005C72.3935 16.2406 72.0813 16.1926 72.0813 16.1926C71.6731 16.1926 71.6491 16.0005 71.6491 16.0005C71.601 15.8084 71.3609 15.8084 71.3609 15.8084C71.0247 15.7123 71.0007 15.3761 71.0007 15.3761C70.9767 15.208 71.0967 15.112 71.0967 15.112C71.2408 14.9919 71.1207 14.8718 71.1207 14.8718Z" fill="white"/>
<path d="M71.7451 14.1514C71.4329 13.8633 71.3369 14.1995 71.3849 14.2955C71.4089 14.3435 71.577 14.4156 71.3129 14.4876C71.0727 14.5357 71.1207 14.8478 71.3849 14.8478C71.6491 14.8719 71.8412 14.7518 71.8892 14.6317C71.9372 14.5597 71.9372 14.3436 71.7451 14.1514Z" fill="black"/>
<path d="M72.7297 14.3196C73.0178 13.9593 72.6576 13.8873 72.5616 13.9593C72.5136 13.9834 72.4415 14.1755 72.3455 13.9113C72.2734 13.6472 71.9612 13.7432 71.9612 14.0074C71.9612 14.2955 72.1053 14.4877 72.2014 14.5117C72.3214 14.5597 72.5616 14.5357 72.7297 14.3196Z" fill="black"/>
<path d="M72.6337 15.3522C72.9939 15.5443 72.9939 15.2081 72.9218 15.136C72.8978 15.112 72.7297 15.064 72.9218 14.9439C73.138 14.8239 72.9939 14.5837 72.7537 14.6318C72.5136 14.6798 72.3695 14.8479 72.3695 14.9439C72.3695 15.04 72.4175 15.2321 72.6337 15.3522Z" fill="black"/>
<path d="M71.8172 15.6163C71.6731 16.0005 72.0093 15.9525 72.0573 15.8565C72.0813 15.8324 72.1054 15.6403 72.2494 15.8325C72.3935 16.0246 72.6097 15.8565 72.5376 15.6403C72.4656 15.4242 72.2735 15.2801 72.1774 15.3041C72.0813 15.3281 71.8892 15.4002 71.8172 15.6163Z" fill="black"/>
<path d="M71.4329 15.0159C71.0727 15.064 71.2408 15.3041 71.3369 15.3281C71.3849 15.3281 71.529 15.2561 71.4329 15.4722C71.3369 15.6643 71.577 15.7844 71.7211 15.6163C71.8652 15.4482 71.8892 15.2561 71.8412 15.184C71.7931 15.088 71.6731 14.9679 71.4329 15.0159Z" fill="black"/>
<path d="M72.7297 13.6472C72.7297 13.6472 72.8017 13.359 72.9218 13.335C73.0419 13.311 73.0659 13.359 73.0659 13.359C73.1139 13.7432 73.354 14.0074 73.354 14.0074L73.306 14.5357C73.258 14.3436 73.0419 14.3436 73.0419 14.3436C73.21 13.8633 72.7297 13.6472 72.7297 13.6472Z" fill="white"/>
<path d="M71.577 16.0966L71.3849 16.0726L70.9287 16.6009C70.8806 16.8891 70.5444 17.0091 70.5444 17.0091C71.2408 16.9371 71.3369 16.6729 71.3369 16.6729C71.2889 16.8891 71.1928 17.0812 71.1928 17.0812C71.8892 16.865 71.577 16.0966 71.577 16.0966Z" fill="white"/>
<path d="M71.8892 16.2887C72.1774 16.3607 72.3455 16.3367 72.3455 16.3367C72.7057 16.6729 72.3215 17.1772 72.3215 17.1772C72.2014 16.9371 72.2014 16.5528 72.2014 16.5528C72.0333 16.769 72.1534 17.1532 72.1534 17.1532C71.8412 17.0331 71.7692 16.6969 71.7692 16.6969C71.7692 16.4328 71.8892 16.2887 71.8892 16.2887Z" fill="white"/>
<path d="M73.6663 15.2801L73.8584 15.2561C73.8584 15.2561 73.5942 14.8959 73.3301 15.016C73.3301 15.016 73.3061 15.4002 73.114 15.6403C73.21 15.7604 73.5702 16.2167 73.5942 16.5048C73.5942 16.5048 73.282 15.9765 72.9459 15.7604L72.8738 15.8084C72.8738 15.8084 72.8978 16.2167 72.5136 16.2887C72.5136 16.2887 72.5856 16.5048 72.7057 16.5288L72.8018 16.769C72.8018 16.769 72.9699 16.9131 72.9939 16.5769C72.9939 16.5769 73.114 16.9371 73.3541 16.9851C73.3541 16.9851 73.4501 16.889 73.4021 16.6249C73.4021 16.6249 73.4501 16.9851 73.7863 17.1292C73.7863 17.1292 74.0985 16.4088 73.7863 16.0245C73.7863 16.0245 73.8584 16.1206 74.0265 16.1206C74.0025 16.1446 74.0985 15.4722 73.6663 15.2801Z" fill="white"/>
<path d="M74.8429 13.2389C75.011 13.1909 75.0831 13.0708 75.0831 13.0708C75.1791 13.335 74.987 13.6471 74.987 13.6471C75.011 13.407 74.8189 13.2389 74.8429 13.2389Z" fill="white"/>
<path d="M74.4347 13.5271C74.6028 13.4791 74.6268 13.311 74.6268 13.311C74.7949 13.5271 74.7469 13.8873 74.7469 13.8873C74.6028 13.6952 74.4347 13.5271 74.4347 13.5271Z" fill="white"/>
<path d="M74.2426 9.34863V9.82891C73.8104 10.7174 74.0985 11.8941 74.0985 11.8941C73.9545 11.9661 73.8824 12.0382 73.8824 12.0382C73.4982 10.2852 74.2426 9.34863 74.2426 9.34863Z" fill="white"/>
<path d="M75.8755 16.5769L76.7401 17.2493L77.5806 16.5769V14.8719L77.2203 15.112V16.4568L76.7401 16.817L76.2358 16.4568V15.04L75.8755 14.7758V16.5769Z" fill="white"/>
<path d="M76.5959 15.4242L76.716 15.5923L76.8361 15.4242L76.716 15.2561L76.5959 15.4242Z" fill="white"/>
<path d="M76.5959 16.2167L76.716 16.3848L76.8361 16.2167L76.716 16.0486L76.5959 16.2167Z" fill="white"/>
<path d="M76.3798 15.8084L76.4999 15.9765L76.644 15.8084L76.4999 15.6403L76.3798 15.8084Z" fill="white"/>
<path d="M76.8121 15.8084L76.9562 15.9765L77.0762 15.8084L76.9562 15.6403L76.8121 15.8084Z" fill="white"/>
<path d="M75.1071 14.3436C75.2031 14.7758 74.7469 14.7038 74.7469 14.7038C74.5788 15.016 74.8189 15.016 74.8189 15.016C75.1791 15.088 75.3472 14.9199 75.3232 14.6798C75.2752 14.4636 75.1071 14.3436 75.1071 14.3436Z" fill="white"/>
<path d="M74.2666 13.8873C74.1946 13.6472 74.3387 13.5991 74.3387 13.5991C74.4827 14.0074 74.915 14.3436 74.915 14.3436C74.963 14.5357 74.7229 14.5597 74.7229 14.5597C74.3867 14.2715 74.2666 13.8873 74.2666 13.8873Z" fill="white"/>
<path d="M74.7949 13.9834L74.891 13.7432L74.987 13.8393L75.0591 13.7672L75.2032 14.0074C75.0351 14.0554 74.963 14.1995 74.963 14.1995C74.843 14.0794 74.7949 13.9834 74.7949 13.9834Z" fill="white"/>
<path d="M78.0368 14.6798L78.1809 14.8719L78.5651 14.2235L78.421 14.0794L78.0368 14.6798Z" fill="white"/>
<path d="M78.6852 14.2955L78.301 14.9439C78.9253 15.3521 79.3095 14.3195 79.3095 14.3195C78.9493 14.4156 78.6852 14.2955 78.6852 14.2955Z" fill="white"/>
<path d="M79.0934 9.10852V9.66084C79.3576 10.0691 79.4056 10.9816 79.4056 10.9816C79.4056 10.9816 79.4056 10.9336 79.5257 10.8375L79.6458 10.7655C79.6458 9.87697 79.0934 9.10852 79.0934 9.10852Z" fill="white"/>
<path d="M78.5411 16.5529C78.9013 17.1052 80.102 17.1052 80.102 17.1052C79.9819 16.793 79.6457 16.6729 79.6457 16.6729C80.174 16.4568 80.6543 16.9371 80.6543 16.9371C80.9425 17.2012 81.2787 17.2012 81.2787 17.2012C81.1346 17.0331 80.9905 16.9131 80.9905 16.9131C81.1586 16.9851 81.3027 16.9371 81.3027 16.9371C81.1106 16.6249 80.6063 16.3127 80.6063 16.3127C81.1586 16.0246 81.6149 16.6969 81.6149 16.6969C81.855 17.0572 82.0711 17.1052 82.0711 17.1052L81.903 16.6009C82.0711 17.0572 82.6955 17.2012 82.6955 17.2012L82.7435 17.0091C82.2392 16.841 82.2873 16.6729 82.2873 16.6729L82.2392 16.1446C81.6629 16.0486 81.7349 15.7364 81.7349 15.7364C81.807 15.2801 82.2392 15.2081 82.2392 15.2081L82.1912 14.6077C82.5274 14.3676 83.1998 14.4877 83.1998 14.4877C83.1277 14.1275 82.8396 14.2475 82.8396 14.2475C82.8396 13.9353 82.5274 13.9594 82.5274 13.9594L81.5909 14.7758C81.7349 15.5203 81.3507 15.7124 81.3507 15.7124C80.7023 16.1206 80.2221 15.5443 80.2221 15.5443L79.7898 15.8084C80.0299 15.8084 80.4382 16.1446 80.4382 16.1206C80.198 15.9525 79.5737 15.9285 79.5737 15.9285L78.5411 16.5529Z" fill="white"/>
<path d="M79.8379 14.4396C79.9339 15.4002 80.8225 15.5923 80.8225 15.5923C81.3988 15.6643 81.3988 15.2081 81.3988 15.2081C81.3988 14.0074 80.1981 13.9833 80.1981 13.9833C79.7178 14.0314 79.8379 14.4396 79.8379 14.4396Z" fill="white"/>
<path d="M83.3919 14.5116C84.0403 14.3435 83.4159 14.0554 83.4159 14.0554C82.8636 13.8393 82.7435 13.8873 82.7435 13.8873C82.9356 13.9834 83.0317 14.1274 83.0317 14.1274C83.3439 14.1274 83.3919 14.5116 83.3919 14.5116Z" fill="white"/>
<path d="M83.4159 15.2081L83.584 14.5837C83.2238 14.7278 83.0077 14.6317 83.0077 14.6317C82.6235 14.5597 82.4794 14.6797 82.4794 14.6797C82.0471 14.9439 83.4399 15.2081 83.4159 15.2081Z" fill="white"/>
<path d="M84.1604 15.088L84.2805 15.2321L84.9048 15.16L84.5206 15.4242L85.145 15.4962L84.8808 14.8478L84.1604 15.088Z" fill="white"/>
<path d="M78.5891 14.0074C78.7812 14.2475 79.3335 14.1755 79.3335 14.1755C79.4296 14.0554 79.3576 13.7912 79.3576 13.7912C79.3095 13.5991 79.3335 13.5271 79.3335 13.5271C79.7178 13.5271 79.4296 14.0314 79.4296 14.0314C80.0059 13.6712 79.4536 12.8547 79.4536 12.8547C79.7178 11.3178 80.6783 11.606 80.7744 11.63C81.1586 11.654 82.1432 11.9902 82.1432 11.9902C82.5034 12.0862 83.6561 12.3264 83.7041 12.3264C83.7521 12.3024 83.6561 12.2063 83.8002 12.1103C84.2804 11.7741 84.4005 10.7174 84.4005 10.7174C84.4005 10.5493 84.4725 10.6214 84.4725 10.6214C84.6166 11.2698 84.1604 11.9902 84.1604 11.9902C84.5446 12.4224 85.9374 12.3504 85.9374 12.3504C86.6338 12.2543 87.2822 11.9422 87.2822 11.9422C88.0987 11.63 88.9151 11.678 88.9151 11.678L88.8671 11.4859C88.2187 11.1977 88.675 10.8615 88.675 10.8615L88.5069 10.5734C87.1621 10.2131 85.5052 9.30061 85.5052 9.30061C83.584 8.26801 82.5995 8.4361 82.5995 8.4361C81.759 9.30061 81.9031 10.7655 81.9031 10.7655L82.3593 10.8135C82.3113 9.8049 82.9597 9.2766 82.9597 9.2766C83.1278 9.20455 83.0077 9.42068 83.0077 9.42068C82.3353 10.4053 82.6235 11.0776 82.6235 11.0776C82.3353 10.9336 80.5823 10.8615 80.5823 10.8615C79.5257 10.7415 79.3095 11.702 79.3095 11.702L78.9733 12.8787C78.6131 13.5751 78.5891 14.0074 78.5891 14.0074Z" fill="white"/>
<path d="M81.7109 9.90094C81.783 9.4927 81.9271 9.06045 81.9271 9.06045L80.7744 7.81173C80.198 7.11532 79.8618 7.37948 79.8618 7.37948L79.6217 7.49955C79.8859 7.69166 80.078 8.00384 80.078 8.00384L80.3181 8.19595L81.7109 9.90094Z" fill="white"/>
<path d="M82.3113 3.41718C82.2873 2.98492 82.1192 2.91288 82.1192 2.91288C81.663 2.57668 81.5909 2.67274 81.5909 2.67274C81.4708 2.79281 81.8311 3.03295 81.8311 3.03295L82.3113 3.41718Z" fill="white"/>
<path d="M82.8877 3.84942C82.9597 3.48921 82.5995 3.20105 82.5995 3.20105L82.2633 2.98492C82.4314 3.12901 82.4314 3.48921 82.4314 3.48921L82.8877 3.84942Z" fill="white"/>
<path d="M83.0077 3.92146L83.416 4.20963C83.416 3.80138 83.2719 3.60927 83.2719 3.60927L82.8156 3.32111C83.1038 3.56125 83.0077 3.92146 83.0077 3.92146Z" fill="white"/>
<path d="M82.0952 6.29889C81.807 6.39494 81.711 6.3229 81.735 6.37093C81.783 6.65909 82.2153 6.63508 82.2153 6.63508C82.4074 6.63508 82.5755 6.44297 82.5755 6.44297V6.34692C82.4074 6.51502 82.2633 6.44297 82.2393 6.44297L82.0952 6.29889Z" fill="white"/>
<path d="M82.7916 7.06733L82.4794 6.73112C82.4794 6.73112 82.8396 6.515 82.6715 6.27486C82.5995 6.15479 82.4073 6.32289 82.3353 6.32289C82.1912 6.29888 82.1432 5.96268 82.1672 5.86662L82.3593 5.62648L82.6475 5.60247L83.8482 4.30571C84.0643 3.80142 84.4005 3.87345 84.4005 3.87345C84.2804 3.72937 84.1604 3.29712 84.1604 3.29712C84.8328 3.29712 84.9048 3.96951 84.9048 3.96951C86.922 5.57845 85.6492 8.17197 85.6492 8.17197C85.0009 7.7157 83.6081 7.42754 83.6081 7.42754C83.8242 6.97127 84.4245 6.63507 84.4245 6.63507C85.217 6.61106 85.0729 5.67451 85.0729 5.67451C85.0009 5.53042 84.9528 5.69852 84.9528 5.69852C84.8568 7.21141 83.6321 6.0107 83.6321 6.0107C83.536 5.91465 83.536 6.08275 83.536 6.08275C83.584 6.22683 83.8002 6.34691 83.8002 6.34691L83.2478 6.63507L82.8636 7.04331L82.7916 7.06733Z" fill="white"/>
<path d="M83.464 3.72937L83.8482 3.96951C83.8002 4.16162 83.5841 4.32972 83.5841 4.32972C83.6321 4.04155 83.464 3.72937 83.464 3.72937Z" fill="white"/>
<path d="M85.145 3.94549C85.8174 3.87345 86.3697 4.73795 86.3697 4.71394C86.0335 4.40175 85.7693 4.4738 85.7693 4.4738C85.5532 4.25767 85.145 3.94549 85.145 3.94549Z" fill="white"/>
<path d="M85.7933 4.6419C85.9374 4.85803 86.0574 5.24225 86.0574 5.24225C86.5858 5.36232 86.7779 5.77055 86.7779 5.77055C86.4657 4.54584 85.7933 4.6419 85.7933 4.6419Z" fill="white"/>
<path d="M86.1536 5.50641C86.994 5.74655 86.7779 6.85119 86.7779 6.85119C86.6338 6.51499 86.2976 6.41894 86.2976 6.41894C86.2736 5.69852 86.1536 5.50641 86.1536 5.50641Z" fill="white"/>
<path d="M86.3217 6.58704C86.3457 6.77915 86.2496 7.11534 86.2496 7.11534C86.5618 7.3795 86.5138 7.69168 86.5138 7.69168C86.6338 7.49956 86.7059 7.0433 86.7059 7.0433C86.6339 6.73112 86.3217 6.58704 86.3217 6.58704Z" fill="white"/>
<path d="M86.2016 7.30743C86.1536 7.5956 85.8174 8.24398 85.8174 8.24398L86.1296 8.46011C86.5618 7.83574 86.2016 7.30743 86.2016 7.30743Z" fill="white"/>
<path d="M88.1707 11.9181C88.9632 11.702 89.4675 12.2303 89.4675 12.2303C89.6596 12.6146 89.6836 13.0708 89.6836 13.0708C89.1793 13.335 88.2428 13.359 88.2428 13.359C87.7865 13.4791 88.1227 13.7192 88.1227 13.7192C88.8671 14.4156 88.2668 14.5597 88.2668 14.5597C87.5704 14.7038 86.7539 15.5443 86.7539 15.5443C86.2016 15.5923 85.4091 15.5203 85.4091 15.5203C85.193 15.3522 85.0489 14.8239 85.0489 14.8239C85.3371 14.5597 85.6012 14.8479 85.6012 14.8479C86.2016 15.2321 87.1381 14.5117 87.1381 14.5117C87.2582 14.4156 87.4743 14.3436 87.4743 14.3436L87.4263 14.1515C87.018 13.8873 86.7299 13.5271 86.7299 13.5271C86.5137 13.1669 86.7059 12.9988 86.7059 12.9988C87.018 12.7346 88.1707 11.9181 88.1707 11.9181Z" fill="white"/>
<path d="M82.3834 15.04C82.4794 15.6884 82.4554 16.0966 82.4554 16.6249C82.4554 16.9131 84.5926 17.3693 86.6819 17.3693C92.061 17.3693 91.5807 16.3848 91.5807 16.3607C91.3406 15.8084 91.2205 15.136 91.2205 15.136C91.2205 15.136 90.356 15.6643 86.6819 15.6643C83.2479 15.6884 82.3834 15.04 82.3834 15.04Z" fill="white"/>
<path d="M91.6528 15.9525L91.3646 15.064C91.1725 14.7518 90.8843 14.9679 90.8843 14.9679C90.6442 15.136 90.332 15.04 90.332 15.04C90.0198 14.9919 90.284 14.7998 90.284 14.7998C90.7162 14.5116 91.1245 14.4156 91.1245 14.4156C91.4367 14.5357 92.013 14.5117 92.013 14.5117C92.5413 14.4396 92.4212 14.8719 92.4212 14.8719C92.4452 15.2801 92.3252 15.9525 92.3252 15.9525C92.037 15.8805 91.6528 15.9525 91.6528 15.9525Z" fill="white"/>
<path d="M92.5893 16.2887L92.5173 16.2406L92.4692 16.1446C92.4692 16.1446 92.4212 16.5528 92.1331 16.817L92.1811 16.889L92.2771 16.9611L92.5893 16.2887Z" fill="white"/>
<path d="M92.6854 16.3367L92.3492 17.0331C92.9495 17.1292 93.3818 16.7449 93.3818 16.7449L93.2857 16.3127C93.0216 16.4328 92.6854 16.3367 92.6854 16.3367Z" fill="white"/>
<path d="M93.838 16.0966L94.2222 16.1927C94.3183 15.6403 94.1262 15.088 94.1262 15.088C94.5825 15.2321 94.5825 15.064 94.5825 15.064C94.7746 14.3676 93.1896 14.3436 93.1896 14.3436C93.1896 14.5597 93.2857 15.016 93.2857 15.016C94.0301 15.2801 93.838 16.0966 93.838 16.0966Z" fill="white"/>
<path d="M71.2648 7.04327L71.2408 6.99524L71.2648 7.04327C71.2168 7.25939 71.2168 7.52355 71.2889 7.73967C71.2889 7.73967 71.0727 7.76369 70.9767 7.64362C70.9767 7.64362 71.0247 8.00382 70.7606 8.53213C70.4964 9.06044 70.4964 9.03643 70.4724 9.1565C70.4724 9.1565 70.3523 8.9884 69.7039 8.70023C69.5358 8.62819 69.2237 8.36403 69.1516 8.17192C69.1516 8.17192 69.0796 8.26798 68.8875 8.34002C68.8875 8.34002 68.8394 8.05186 68.6473 7.7877C68.4312 7.49954 68.4072 7.54756 68.3832 7.42749C68.3591 7.33144 68.3832 7.16334 68.3832 7.16334C68.4072 7.30742 68.5032 7.45151 68.7194 7.66763C68.9115 7.88376 68.9595 8.19594 68.9595 8.19594C69.1276 8.12389 69.1516 7.93178 69.1516 7.93178C69.1996 8.05185 69.5118 8.43608 69.7039 8.53213C70.3043 8.8203 70.4003 8.91636 70.4003 8.91636C70.4244 8.79629 70.4244 8.86833 70.6885 8.34002C70.9046 7.85974 70.8326 7.37946 70.8326 7.37946C70.9767 7.59559 71.1688 7.64362 71.1688 7.64362C71.1448 7.42749 71.0967 7.28341 71.1448 7.06728L71.1928 6.82714C71.1448 6.63503 71.0727 6.4189 71.0487 6.27482C71.0007 5.96264 70.9046 5.77052 71.0007 5.65045C71.2168 5.3863 71.0007 4.97806 70.7365 4.97806C69.6319 4.90602 68.2151 5.77052 68.071 6.03468C67.8068 6.49094 68.3591 6.65904 68.3111 6.77911C68.119 7.23538 68.2631 7.57158 68.5032 8.00383C68.7434 8.41207 68.7674 8.9884 68.7674 8.9884C68.9835 8.86833 69.0315 8.58016 69.0315 8.58016C69.1996 9.49269 69.848 9.63678 69.848 9.63678C70.1362 9.70882 70.2563 9.94896 70.2563 9.94896C70.3283 9.68481 70.3523 9.51671 70.3523 9.51671C70.4244 9.87692 70.6885 9.92495 70.6885 9.92495C70.7365 9.58875 70.8566 9.34861 70.8566 9.34861C71.0968 8.84432 70.9767 8.48411 70.9767 8.48411C71.0727 8.67622 71.3129 8.72425 71.3129 8.72425C71.1688 8.26798 71.2408 8.21995 71.3369 7.85974C71.4089 7.59559 71.2648 7.04327 71.2648 7.04327Z" fill="white"/>
<path d="M71.3129 7.71568C71.2648 7.49955 71.2408 7.2354 71.2888 7.04329V6.99526H71.2408L71.2168 6.82716V6.77913V6.7311L71.1447 6.70709V6.75512L71.0967 7.01927C71.0727 7.18737 71.0727 7.33145 71.0967 7.47554V7.54758C71.0247 7.52357 70.9286 7.45153 70.8326 7.30744L70.7605 7.33145C70.7605 7.33145 70.8326 7.81173 70.6164 8.29201C70.4964 8.55616 70.4243 8.65223 70.4003 8.72427L70.3523 8.82032C70.2802 8.77229 70.1121 8.67624 69.6799 8.46011C69.4878 8.36406 69.1756 7.97983 69.1276 7.88378H69.0555C69.0555 7.88378 69.0315 8.00384 68.9114 8.07589C68.8874 7.97983 68.8394 7.7637 68.6953 7.59561C68.5032 7.40349 68.4071 7.2354 68.3831 7.11533H68.3111C68.3111 7.11533 68.2871 7.28343 68.3111 7.4035L68.3831 7.54758C68.4312 7.59561 68.4792 7.64364 68.5752 7.76371C68.7674 8.00385 68.8154 8.29201 68.8154 8.29201V8.34004L68.8634 8.31603C68.9835 8.268 69.0795 8.21997 69.1036 8.17194C69.1996 8.36405 69.4878 8.60419 69.6559 8.67624C70.2802 8.94039 70.4243 9.10849 70.4243 9.10849L70.4724 9.15652L70.4964 9.08448C70.5204 8.98842 70.5204 8.98842 70.6405 8.74828L70.7845 8.46011C70.9767 8.07589 71.0007 7.76371 71.0007 7.64364C71.1207 7.71568 71.2648 7.71568 71.2648 7.71568H71.3129Z" fill="black"/>
<path d="M79.7418 4.49781L79.5977 4.93006L79.4056 4.47379L79.0934 5.31429L79.4777 5.21823L79.3096 5.57844C79.2135 5.72253 78.4451 5.89063 78.421 5.36232C78.421 5.1702 78.4451 4.83401 78.8773 5.12218C78.8773 5.12218 79.1415 4.37774 78.4451 4.68992C78.4451 4.68992 78.7332 4.25767 78.325 3.9695C77.9168 4.25767 78.1809 4.68992 78.1809 4.68992C77.5085 4.37774 77.7486 5.12218 77.7486 5.12218C78.1809 4.83401 78.2049 5.19422 78.1809 5.38633C78.1569 5.60246 78.0128 5.69851 77.6526 5.69851C77.6526 5.69851 76.9802 5.6745 77.1003 4.90605C77.1003 4.90605 77.3164 4.76196 77.5565 5.12218L77.5325 4.11358C77.5325 4.11358 77.3644 4.40175 77.0763 4.44978C77.0763 4.44978 76.9562 4.16161 77.2924 3.84943H76.9082H76.4279C76.7641 4.16161 76.644 4.44978 76.644 4.44978C76.3318 4.40175 76.1877 4.11358 76.1877 4.11358V5.12218C76.4279 4.76196 76.644 4.90605 76.644 4.90605C76.7401 5.6745 76.1157 5.69851 76.1157 5.69851C75.7555 5.69851 75.5874 5.60246 75.5634 5.38633V5.36232C75.5394 5.1702 75.5634 4.83401 75.9956 5.12218C75.9956 5.12218 76.2358 4.37774 75.5634 4.68992C75.5634 4.68992 75.8275 4.25767 75.4193 3.9695C75.011 4.28168 75.2992 4.68992 75.2992 4.68992C74.8189 4.47379 74.8429 4.93006 74.891 5.12218C75.3232 4.83401 75.3232 5.1702 75.3232 5.36232V5.38633C75.2992 5.91464 74.3386 5.84259 74.2666 5.6745C74.2186 5.55443 74.0745 5.1702 74.0745 5.1702L74.4107 5.36232L74.2906 4.49781L74.0265 4.85802L73.9544 4.40175L73.8344 4.73795L74.3867 6.56302C75.8755 6.20281 77.8447 6.25083 79.1895 6.539L79.8619 4.834L79.7418 4.49781Z" fill="white"/>
<path d="M68.8635 3.24908L68.6714 3.05697H68.9115L68.7674 2.67274L68.5753 2.86486L68.5993 2.55267L68.1671 2.69676L68.4072 2.9369L68.1911 2.91288L68.3111 3.29711L68.5032 3.12901L68.4792 3.48922V3.53725C68.4792 3.68133 68.6233 3.8014 68.7674 3.8014C68.9115 3.8014 69.0316 3.65731 69.0316 3.51323L68.8635 3.24908Z" fill="white"/>
<path d="M69.1997 3.29712L69.2477 3.39317L69.2237 3.48923C70.0161 3.34515 70.4724 3.72938 70.6405 3.92149L70.6165 4.25769C70.5685 4.32973 70.2082 4.59388 70.0882 4.35374C70.0401 4.25768 69.9921 4.08959 70.3043 4.13762C70.3043 4.13762 70.3043 3.72937 69.9921 4.01754C69.9921 4.01754 70.0642 3.75339 69.776 3.68135C69.6079 3.89748 69.824 4.06558 69.824 4.06558C69.3918 4.06558 69.6559 4.37776 69.6559 4.37776C69.848 4.13762 69.9201 4.30572 69.9441 4.40177C69.9681 4.52184 69.9201 4.59389 69.7039 4.66593C69.7039 4.66593 69.3197 4.786 69.2477 4.40177C69.2477 4.40177 69.3437 4.2817 69.5359 4.42579L69.3437 3.9455C69.3437 3.9455 69.3197 4.1136 69.1516 4.20965C69.1516 4.20965 69.0316 4.08959 69.1516 3.87346L68.9355 3.9455L68.6713 4.01754C68.9115 4.1136 68.9115 4.2817 68.9115 4.2817C68.7434 4.32973 68.5993 4.20965 68.5993 4.20965L68.7914 4.68994C68.8635 4.47381 69.0075 4.47381 69.0075 4.47381C69.1997 4.83402 68.8635 4.97811 68.8635 4.97811C68.6473 5.05015 68.5513 5.05015 68.5032 4.93008C68.4552 4.83402 68.4072 4.66593 68.6954 4.71395C68.6954 4.71395 68.6954 4.30571 68.3592 4.59388C68.3592 4.59388 68.4312 4.32973 68.143 4.2817C67.9749 4.49783 68.2151 4.66593 68.2151 4.66593C67.7588 4.66593 68.047 4.97811 68.047 4.97811C68.2391 4.73797 68.3111 4.90607 68.3592 5.00213C68.4552 5.26628 67.9749 5.36233 67.9029 5.29029C67.8068 5.19424 67.7348 5.02614 67.7108 4.97811C67.6868 4.90607 67.5667 4.35375 68.3592 3.82543L68.3111 3.75339L68.2631 3.68135C67.6387 4.1136 67.5427 4.59388 67.5187 4.9541L68.047 5.79459C69.2477 5.02614 69.4638 4.90607 70.7846 4.71395L70.8326 3.75339C70.7846 3.75339 70.1842 3.10501 69.1997 3.29712Z" fill="white"/>
<path d="M69.5599 11.4619C69.4878 11.3178 69.3918 11.0536 69.3918 11.0536V11.2938C69.4638 11.654 69.752 12.0862 69.752 12.0862C68.3832 13.5751 66.0778 11.9181 65.4294 11.63C64.2768 11.1017 62.4757 13.0228 62.4037 13.7432C62.2596 14.7278 61.8033 14.8719 61.8033 14.8719C61.9954 14.4396 61.6592 14.2235 61.5632 14.2235L60.5066 14.2475C59.9542 14.9679 60.3865 15.7364 60.3865 15.7364C61.299 15.7124 60.9388 16.4808 60.9388 16.4808C60.8428 16.6969 60.6507 16.6969 60.6507 16.6969C60.6987 15.9525 59.9542 16.0005 59.9542 16.0005C60.5546 16.2407 60.4345 16.6249 60.4345 16.6249C60.2184 16.5528 60.0983 16.889 60.0983 16.889C59.1858 16.3127 59.3299 15.2321 59.3299 15.2321C59.57 13.335 59.8822 13.0948 59.8822 13.0948C60.0023 13.0228 60.0743 13.1188 60.0743 13.1188C60.5306 13.431 60.9868 13.1429 60.9868 13.1429C61.179 13.0468 61.275 12.6626 61.275 12.6626C61.4911 11.8461 61.8754 11.3898 61.8754 11.3898L59.618 11.9662C58.7295 12.1823 58.4894 12.8307 58.4894 12.8307C58.1052 12.0622 58.7535 11.8941 58.7535 11.8941C58.1772 11.726 58.1052 11.3178 58.1052 11.3178C57.865 10.7655 58.2733 9.34864 59.6901 8.84434L60.0503 8.74829C60.5066 8.09991 61.1309 8.02787 61.1309 8.02787C61.0349 8.21998 60.8668 8.36406 60.8668 8.36406C61.299 8.29202 61.6833 7.95582 61.6833 7.95582C61.6592 8.48413 61.1549 8.67624 61.1549 8.67624V8.70026C61.8514 8.67624 66.2699 8.65223 66.2699 8.65223C67.3746 8.48413 67.2305 7.18738 67.2305 7.18738C66.9903 6.2028 65.6696 6.7311 65.6696 6.7311C62.4037 8.36406 61.7313 6.08273 61.7313 6.08273C63.1961 6.87519 63.4843 6.63505 63.4843 6.63505C62.8359 6.44294 62.6678 5.89061 62.6678 5.89061C64.0126 6.34688 64.1327 6.08273 64.1327 6.08273C63.6524 6.08273 63.5564 5.62646 63.5564 5.62646C63.9166 5.77055 64.8771 5.77054 64.8771 5.77054C65.3574 5.74653 66.1979 5.81857 66.1979 5.81857C67.6387 6.05871 67.6387 7.13935 67.6387 7.13935C67.6868 8.98843 66.318 9.01244 66.318 9.01244C65.7176 9.06047 61.9234 9.03645 61.1549 9.03645V9.06047C61.1549 9.06047 61.6833 9.20455 61.7553 9.73286C61.7553 9.73286 61.3471 9.44469 60.9148 9.42068C60.9148 9.42068 61.1069 9.54075 61.203 9.73286C61.203 9.73286 60.5546 9.8049 60.1464 9.18054C60.1464 9.18054 60.0983 9.18054 59.7621 9.30061C58.5614 9.73286 58.5374 10.7895 58.5374 10.7895C58.4173 11.606 59.522 11.5579 59.522 11.5579C60.0023 11.5339 60.9868 11.2698 60.9868 11.2698C61.4671 11.1257 66.366 9.68484 66.9663 9.46871C67.8308 9.15653 68.4552 8.31603 68.4552 8.31603C68.5513 8.41209 68.6713 9.22857 68.6713 9.22857C68.8875 9.20456 68.9835 9.03645 68.9835 9.03645C69.1516 9.6368 69.872 9.90096 69.872 9.90096C70.1122 9.94899 70.3523 10.2612 70.3523 10.2612L70.4724 9.973C70.5925 10.1171 71.2408 10.7414 72.1293 11.2938L73.7863 12.3504C74.5067 11.5579 75.0831 12.1823 74.963 12.2543L74.7709 12.2063C74.4107 12.1583 74.1705 12.3504 74.1705 12.3504C75.035 12.2063 75.1551 12.5185 75.1551 12.5185C75.3472 12.9507 74.7709 13.1429 74.7709 13.1429C74.7709 12.5665 74.2186 12.5905 74.2186 12.5905C74.6268 12.8067 74.6028 13.1669 74.6028 13.1669C74.4347 13.6712 74.0024 13.2869 74.0024 13.2869C73.8343 13.2149 73.5942 12.9988 73.5942 12.9988C72.2254 12.9027 71.2168 12.1102 71.0727 12.0382C70.9286 11.9662 70.6405 12.3264 70.4244 12.3024C69.9921 12.2543 69.5599 11.4619 69.5599 11.4619Z" fill="white"/>
<path d="M63.5083 16.6489C63.5083 16.769 63.5323 16.793 63.6284 16.817C63.7965 16.841 63.8445 16.6969 63.8445 16.3847C63.8205 16.0966 63.7485 15.9285 63.6044 15.9045C63.4843 15.8804 63.4843 15.9285 63.4843 16.0485C63.4843 16.2407 63.4843 16.4568 63.5083 16.6489ZM63.1721 16.817V16.745H63.2201L63.2922 16.6009C63.2922 16.4088 63.2682 16.1926 63.2682 16.0005L63.1961 15.8324H63.1721V15.7604L63.4843 15.8084H63.5563C63.6764 15.8324 63.7965 15.8564 63.8925 15.9285C64.0126 16.0245 64.1087 16.1926 64.1087 16.3847C64.1087 16.5769 64.0606 16.7209 63.9406 16.817C63.8445 16.889 63.7244 16.865 63.6044 16.865H63.5563C63.4123 16.865 63.2922 16.841 63.1721 16.817Z" fill="black"/>
<path d="M64.8531 16.0245H64.8051L64.733 16.1686C64.733 16.3607 64.7571 16.5529 64.7571 16.745L64.8531 16.8891H64.9011V16.9611C64.7571 16.9611 64.589 16.9371 64.4449 16.9371V16.8651H64.4929L64.5649 16.721C64.5649 16.5288 64.5409 16.3367 64.5409 16.1446L64.4449 16.0005H64.3969V15.9285C64.5409 15.9285 64.685 15.9525 64.8291 15.9525L64.8531 16.0245Z" fill="black"/>
<path d="M65.9818 16.3128H65.9097C65.8617 16.1206 65.7656 16.0486 65.6216 16.0486C65.5015 16.0486 65.5015 16.0966 65.5255 16.1927L65.5495 16.4088H65.5975C65.6936 16.4088 65.7416 16.3608 65.7416 16.2167H65.8137C65.8377 16.3608 65.8377 16.5289 65.8377 16.673H65.7656C65.7416 16.5289 65.6936 16.4808 65.5975 16.4808H65.5495L65.5735 16.769C65.5735 16.8891 65.5975 16.9131 65.6936 16.9131C65.8857 16.9131 65.9578 16.841 65.9818 16.6249H66.0538C66.0538 16.745 66.0778 16.8651 66.0778 16.9851C65.8137 16.9851 65.5495 16.9851 65.2613 16.9851V16.9131H65.2854L65.3574 16.769C65.3334 16.5769 65.3334 16.3848 65.3094 16.1927L65.2133 16.0486H65.1653V15.9766C65.4294 16.0006 65.6936 16.0006 65.9578 16.0006C65.9578 16.0966 65.9818 16.1927 65.9818 16.3128Z" fill="black"/>
<path d="M66.7983 16.0245H66.7502L66.6782 16.1206C66.7022 16.2647 66.7022 16.4328 66.7262 16.5769C66.7502 16.6969 66.7502 16.769 66.7742 16.793L66.9663 16.889C67.1344 16.889 67.1825 16.769 67.1585 16.5769C67.1585 16.4568 67.1345 16.3367 67.1345 16.1926C67.1104 16.0485 67.0864 16.0245 66.9904 16.0245V15.9525C67.1104 15.9525 67.2305 15.9285 67.3266 15.9285V16.0005C67.2305 16.0005 67.2065 16.0485 67.2065 16.1926C67.2065 16.3127 67.2305 16.4328 67.2305 16.5528C67.2545 16.6969 67.2545 16.793 67.1825 16.865C67.1344 16.9371 67.0384 16.9851 66.9183 16.9851C66.7742 16.9851 66.6782 16.9611 66.6061 16.889C66.5341 16.817 66.5101 16.6969 66.5101 16.5528C66.5101 16.4088 66.4861 16.2647 66.4861 16.1206L66.39 16.0245H66.342V15.9525C66.4861 15.9525 66.6302 15.9285 66.7983 15.9285V16.0245Z" fill="black"/>
<path d="M69.0075 16.0726L68.9355 16.0966C68.8875 15.9285 68.7914 15.8564 68.6233 15.8805C68.5032 15.9045 68.5032 15.9285 68.5272 16.0486L68.5513 16.2647H68.5993C68.6953 16.2407 68.7434 16.1926 68.7194 16.0726H68.7914C68.8154 16.2166 68.8154 16.3607 68.8394 16.5048H68.7674C68.7434 16.3847 68.6953 16.3127 68.5993 16.3367H68.5513L68.5753 16.6249C68.5993 16.7449 68.5993 16.7689 68.6953 16.7689C68.8634 16.7449 68.9355 16.6489 68.9595 16.4328H69.0315C69.0556 16.5528 69.0556 16.6729 69.0556 16.793C68.7914 16.841 68.5272 16.865 68.2631 16.913V16.841H68.3111L68.3591 16.6969C68.3351 16.5048 68.3111 16.3127 68.3111 16.1446L68.2151 16.0245H68.191V15.9525C68.4552 15.9285 68.7194 15.8805 68.9835 15.8564C68.9835 15.8564 68.9835 15.9525 69.0075 16.0726Z" fill="black"/>
<path d="M70.2563 15.9045H70.2082C70.1122 15.7123 70.0401 15.6163 69.9201 15.6403L69.896 15.6883C69.9201 15.9045 69.9441 16.1446 69.9921 16.3607L70.0882 16.4328H70.1362L70.1602 16.5048C69.9921 16.5288 69.824 16.5768 69.6799 16.6008V16.5288L69.7279 16.5048L69.8 16.3847C69.776 16.1686 69.752 15.9285 69.7039 15.7123L69.6799 15.6643C69.5599 15.6883 69.5118 15.8084 69.4638 16.0245L69.4158 16.0485C69.3918 15.9285 69.3918 15.7844 69.3677 15.6643C69.6559 15.6163 69.9441 15.5683 70.2322 15.4962C70.2082 15.6403 70.2322 15.7604 70.2563 15.9045Z" fill="black"/>
<path d="M83.0077 16.4327V16.5048L82.7195 16.4327V16.3607C82.8156 16.3847 82.8396 16.3367 82.8396 16.2166C82.8396 16.0245 82.8396 15.8564 82.8396 15.6643L82.7676 15.4962L82.7436 15.4722V15.4001C82.8636 15.4242 82.9597 15.4482 83.0797 15.4962C83.1518 15.7363 83.1998 15.9525 83.2719 16.1926C83.3439 16.0005 83.3919 15.7844 83.4399 15.5682C83.56 15.5923 83.6561 15.6163 83.7761 15.6403V15.7123H83.7521L83.6801 15.8324C83.6801 16.0245 83.6801 16.2166 83.6801 16.4087L83.7521 16.5768H83.7761V16.6489C83.6321 16.6249 83.512 16.6008 83.3679 16.5768V16.5048H83.3919L83.464 16.3847C83.464 16.1446 83.464 15.9044 83.464 15.6643C83.3919 15.9525 83.2959 16.2647 83.2238 16.5528L83.1758 16.5288C83.0797 16.1926 83.0077 15.8564 82.9116 15.5202C82.9116 15.7363 82.9116 15.9765 82.9116 16.2166C82.8876 16.3607 82.9117 16.4087 83.0077 16.4327Z" fill="black"/>
<path d="M84.6647 16.3127C84.6647 16.0005 84.5686 15.8324 84.4246 15.8084C84.2805 15.7844 84.2084 15.9285 84.2084 16.2407C84.2084 16.5529 84.3045 16.721 84.4486 16.745C84.5927 16.769 84.6647 16.6249 84.6647 16.3127ZM84.7367 15.9285C84.8328 16.0486 84.8808 16.1926 84.8808 16.3367C84.8808 16.4808 84.8328 16.6249 84.7607 16.721C84.6887 16.793 84.5686 16.841 84.4486 16.817C84.3285 16.793 84.2084 16.721 84.1364 16.6249C84.0403 16.5048 83.9923 16.3607 83.9923 16.2167C83.9923 16.0486 84.0403 15.9285 84.1124 15.8565C84.1844 15.7844 84.3045 15.7364 84.4246 15.7604C84.5446 15.7604 84.6407 15.8324 84.7367 15.9285Z" fill="black"/>
<path d="M85.6733 16.0005V15.9285L85.9614 15.9525V16.0246C85.8654 16.0246 85.8654 16.0726 85.8654 16.1927C85.8894 16.4568 85.8894 16.697 85.9134 16.9611H85.8174C85.6253 16.697 85.4572 16.4328 85.2651 16.1686C85.2651 16.3367 85.2891 16.5048 85.2891 16.673C85.2891 16.817 85.3131 16.8651 85.4091 16.8651V16.9371L85.097 16.9131V16.841C85.193 16.841 85.217 16.793 85.217 16.673C85.217 16.4808 85.193 16.2647 85.193 16.0726L85.0729 15.9765V15.9045L85.3371 15.9285C85.5052 16.1686 85.6733 16.4088 85.8174 16.6489C85.8174 16.5048 85.7933 16.3608 85.7933 16.2167C85.7933 16.0486 85.7693 16.0005 85.6733 16.0005Z" fill="black"/>
<path d="M86.946 16.793C86.946 16.9131 86.97 16.9371 87.0661 16.9371C87.2101 16.9371 87.2822 16.793 87.2582 16.5048C87.2342 16.2167 87.1621 16.0726 87.018 16.0486C86.922 16.0486 86.922 16.0966 86.922 16.1927C86.922 16.3848 86.922 16.6009 86.946 16.793ZM86.6338 17.0091V16.9371H86.6578L86.7299 16.793C86.7299 16.6009 86.7059 16.4088 86.7059 16.2167L86.6338 16.0726H86.6098V16.0005H86.898H86.97C87.0901 16.0005 87.1861 16.0006 87.2822 16.0726C87.4023 16.1687 87.4743 16.3127 87.4983 16.5048C87.5223 16.697 87.4503 16.8651 87.3542 16.9371C87.2582 17.0091 87.1621 17.0091 87.0421 17.0091H86.994C86.8499 17.0091 86.7539 17.0091 86.6338 17.0091Z" fill="black"/>
<path d="M87.9787 16.4088H88.0267C88.1708 16.4088 88.2188 16.3607 88.1948 16.2167C88.1948 16.0966 88.1227 16.0246 88.0267 16.0486C87.9306 16.0486 87.9306 16.0966 87.9306 16.2167L87.9787 16.4088ZM88.0987 16.9131H88.1227V16.9851C87.9787 16.9851 87.8346 17.0091 87.6905 17.0091V16.9371H87.7145L87.7865 16.793C87.7625 16.6009 87.7625 16.4088 87.7385 16.2167L87.6665 16.0726H87.6425V16.0005C87.7625 16.0005 87.8826 16.0005 88.0027 15.9765C88.2668 15.9525 88.4109 16.0006 88.4349 16.1927C88.4589 16.3367 88.3629 16.4088 88.1708 16.4568C88.2908 16.4808 88.3629 16.5288 88.4109 16.6489L88.4589 16.793L88.507 16.841C88.555 16.841 88.555 16.769 88.555 16.6489H88.603V16.6969C88.627 16.889 88.555 17.0091 88.4349 17.0091L88.2908 16.9371C88.2428 16.865 88.2188 16.769 88.2188 16.6249C88.1948 16.5048 88.1468 16.4808 88.0267 16.4808L88.0507 16.769L88.0987 16.9131Z" fill="black"/>
<path d="M89.3954 16.3608C89.3714 16.0486 89.2754 15.9045 89.1313 15.9285C88.9872 15.9525 88.9392 16.0966 88.9632 16.4088C88.9872 16.721 89.0833 16.8651 89.2273 16.8651C89.3714 16.841 89.4195 16.6729 89.3954 16.3608ZM89.4435 15.9525C89.5395 16.0486 89.6116 16.1686 89.6116 16.3367C89.6356 16.5048 89.5876 16.6489 89.5155 16.745C89.4435 16.841 89.3474 16.9131 89.2273 16.9131C89.1073 16.9371 88.9872 16.8891 88.8911 16.793C88.7951 16.697 88.7471 16.5769 88.723 16.4088C88.699 16.2407 88.7471 16.1206 88.8191 16.0006C88.8911 15.9045 88.9872 15.8325 89.1073 15.8325C89.2514 15.8325 89.3474 15.8805 89.4435 15.9525Z" fill="black"/>
<path d="M90.1639 15.7844H90.1399L90.0918 15.9525C90.1158 16.1446 90.1399 16.3367 90.1639 16.5288L90.2599 16.6729H90.2839V16.7449C90.1399 16.7689 90.0198 16.793 89.8757 16.817V16.7449H89.8997L89.9477 16.5768C89.9237 16.3847 89.8997 16.1926 89.8757 16.0005L89.8036 15.8564H89.7556V15.7844C89.8997 15.7604 90.0198 15.7364 90.1639 15.7123V15.7844Z" fill="black"/>
<path d="M91.1725 15.9285L91.1245 15.9525C91.0524 15.7364 90.9804 15.6403 90.8603 15.6644L90.8363 15.7364C90.8603 15.9765 90.9083 16.2167 90.9324 16.4568L91.0284 16.5529H91.0764V16.6249C90.9324 16.6489 90.7883 16.6969 90.6442 16.7209V16.6489L90.6922 16.6249L90.7643 16.5048C90.7402 16.2647 90.6922 16.0246 90.6682 15.7844L90.6442 15.7364C90.5241 15.7604 90.4761 15.8805 90.4521 16.1206L90.404 16.1446C90.38 16.0005 90.38 15.8805 90.356 15.7364C90.6202 15.6884 90.8603 15.6403 91.1245 15.5683C91.1245 15.6644 91.1485 15.7844 91.1725 15.9285Z" fill="black"/>
<path d="M73.9064 6.82715C73.9064 6.82715 72.1534 9.22856 71.9612 9.42067C71.8412 9.54074 71.1208 9.18053 71.1208 9.18053C71.1208 9.39666 71.0007 9.58877 71.0007 9.58877C70.9286 9.75687 70.8806 10.1891 70.8806 10.1891L71.4569 10.5974C71.6491 10.7174 72.0573 10.7414 72.2014 10.6454C72.3455 10.5493 72.7297 9.75687 72.7297 9.75687C73.0899 8.17193 73.9784 7.5956 73.9784 7.5956L74.0264 7.40349C73.7143 7.2594 73.8103 6.97123 73.9064 6.82715Z" fill="white"/>
<path d="M79.0935 6.85117C79.0935 6.85117 76.7881 6.29885 74.2907 6.80314C74.2907 6.80314 74.0745 6.82716 74.0985 7.01927C74.0985 7.11533 74.1706 7.21138 74.2907 7.21138L74.3867 7.18737C74.7709 7.11533 77.0283 6.68307 78.9974 7.21138L79.0694 7.2354C79.1895 7.2354 79.2616 7.13934 79.2616 7.04329C79.2616 6.8992 79.0935 6.85117 79.0935 6.85117Z" fill="white"/>
<path d="M82.0712 7.90779C81.9031 7.90779 81.783 7.78772 81.783 7.61962C81.783 7.45152 81.9271 7.33145 82.0712 7.33145C82.2393 7.33145 82.3593 7.45152 82.3593 7.61962C82.3593 7.78772 82.2393 7.90779 82.0712 7.90779ZM82.7195 7.69166L82.5755 7.59561C82.5514 7.35547 82.3353 7.13934 82.0952 7.13934C81.807 7.13934 81.5909 7.35547 81.5909 7.64364C81.5909 7.90779 81.807 8.14793 82.0952 8.14793C82.3113 8.14793 82.4794 8.00384 82.5514 7.83575L82.6955 7.81173L82.7195 7.69166Z" fill="black"/>
<path d="M91.4607 11.5339C92.1571 11.702 93.3818 11.9422 93.3818 11.9422C94.5825 12.1823 94.6305 12.9027 94.6305 12.9027C94.9667 12.1583 94.3664 11.9422 94.3664 11.9422C94.9427 11.7981 95.0388 11.3658 95.0388 11.3658C95.3029 10.8135 95.495 9.39667 93.9101 8.89238L93.5019 8.79632C92.9976 8.14794 92.3012 8.0759 92.3012 8.0759C92.3972 8.26801 92.5893 8.4121 92.5893 8.4121C92.109 8.34005 91.6768 8.00386 91.6768 8.00386C91.7008 8.53217 92.2771 8.72428 92.2771 8.72428V8.7483C91.4847 8.72428 88.603 8.70027 88.603 8.70027C87.3783 8.53217 87.5224 7.23541 87.5224 7.23541C87.7865 6.25084 89.2754 6.77915 89.2754 6.77915C92.9255 8.4121 93.694 6.13076 93.694 6.13076C92.061 6.92323 91.7248 6.68309 91.7248 6.68309C92.4693 6.49098 92.6614 5.93866 92.6614 5.93866C91.1485 6.39492 91.0284 6.13076 91.0284 6.13076C91.5807 6.13076 91.6528 5.6745 91.6528 5.6745C91.2445 5.81858 90.1639 5.8426 90.1639 5.8426C89.6116 5.81859 88.675 5.89062 88.675 5.89062C87.0421 6.13076 87.0661 7.2114 87.0661 7.2114C87.0181 9.06047 88.555 9.08449 88.555 9.08449C89.2274 9.13252 91.4126 9.10851 92.2771 9.10851V9.13252C92.2771 9.13252 91.6768 9.27661 91.5807 9.80491C91.5807 9.80491 92.061 9.51674 92.5413 9.49273C92.5413 9.49273 92.3252 9.6128 92.2051 9.80491C92.2051 9.80491 92.9255 9.87695 93.4058 9.25259C93.4058 9.25259 93.4778 9.25259 93.8381 9.37266C95.2069 9.80491 94.7506 10.9576 94.7506 10.9576C94.5105 11.8221 93.4538 11.63 93.4538 11.63C92.9015 11.63 88.651 10.5734 88.651 10.5734L88.7471 10.7655C88.9872 10.8135 89.0593 10.9096 89.0833 11.0056C89.1073 11.1257 89.0593 11.2458 89.0593 11.2458C89.0112 11.3898 88.9392 11.4379 88.9392 11.4379L88.9872 11.654C89.6596 11.8461 89.7557 12.7106 89.7557 12.7106C89.8517 13.335 90.1879 13.5751 90.1879 13.5751C91.0764 14.3676 92.013 14.2235 92.013 14.2235C92.3012 14.1995 92.3492 14.2955 92.3492 14.2955C92.6614 14.4636 92.6133 15.3281 92.6133 15.3281C92.6374 15.6643 92.4693 16.0245 92.4693 16.0245C92.5653 16.3127 93.0936 16.1686 93.0936 16.1686L93.1897 16.0245C93.2377 15.8564 93.1176 15.7124 93.1176 15.7124V15.6403C93.4538 15.8084 93.4298 16.2167 93.4298 16.2167C93.9581 15.5683 93.2137 15.112 93.2137 15.112L93.0456 15.064C92.9495 14.7278 92.9495 14.0554 92.9495 13.8633C92.9495 13.6712 92.8055 13.4791 92.6614 13.5511C92.2531 13.7672 91.4126 13.5031 91.4126 13.5031C91.6288 12.6146 91.3166 11.5099 91.3166 11.5099L91.4607 11.5339Z" fill="white"/>
<path d="M89.1793 11.1017C89.1793 11.2938 89.0112 11.4619 88.8191 11.4619C88.627 11.4619 88.4589 11.2938 88.4589 11.1017C88.4589 10.9096 88.627 10.7415 88.8191 10.7415C89.0112 10.7415 89.1793 10.9096 89.1793 11.1017Z" fill="black"/>
<path d="M89.2274 14.9679C89.0833 14.9679 88.9872 14.8478 88.9872 14.6797C88.9872 14.5116 89.0833 14.3916 89.2274 14.3916L89.4435 14.5597L89.4675 14.6797C89.4675 14.8478 89.3714 14.9679 89.2274 14.9679ZM89.5876 14.3435C89.5155 14.2475 89.4195 14.1754 89.2994 14.1514C89.2994 14.0554 89.2994 13.9353 89.2754 13.7912C89.4195 13.7432 89.5155 13.5991 89.5155 13.431C89.5155 13.2389 89.3714 13.1188 89.2274 13.0708C89.2033 12.9507 89.2033 12.8066 89.1793 12.6866C89.2994 12.6385 89.3954 12.5185 89.3954 12.3744C89.3954 12.2063 89.2514 12.0622 89.1073 12.0382L89.0593 11.75L88.9152 11.726C88.9392 11.8221 88.9632 11.9421 88.9872 12.0622C88.8431 12.1102 88.7471 12.2303 88.7471 12.3984C88.7471 12.5905 88.8912 12.7346 89.0833 12.7346C89.1073 12.8547 89.1073 12.9747 89.1073 13.0948C88.9392 13.1188 88.7951 13.2629 88.7951 13.455C88.7951 13.6711 88.9632 13.8152 89.1553 13.8392C89.1553 13.9833 89.1793 14.1034 89.1793 14.1754C88.9632 14.2235 88.7711 14.4396 88.7711 14.7037C88.7711 14.9919 88.9872 15.2321 89.2514 15.2321C89.5155 15.2321 89.7317 14.9919 89.7317 14.7037C89.7076 14.5597 89.6596 14.4396 89.5876 14.3435Z" fill="black"/>
<path d="M90.1638 15.04L90.1398 15.3041C90.1398 15.3041 90.452 15.2561 90.6922 15.1841C90.6681 15.1841 90.1879 15.1841 90.1638 15.04Z" fill="white"/>
<path d="M63.5324 15.0159L63.3883 15.3041C63.3883 15.3041 62.7159 15.3521 62.5478 15.088C62.5478 15.088 62.884 15.064 63.5324 15.0159Z" fill="white"/>
<path d="M82.1192 13.8633L81.783 14.1994L81.6869 14.0554L81.9751 13.7672L81.831 13.6231L81.5909 13.9113L81.4708 13.7672L81.6869 13.479L81.6629 13.455L81.5669 13.3349L81.3507 13.6471L81.2307 13.5511L81.4708 13.2149L81.3507 13.0708L81.1346 13.455L81.0145 13.383L81.1826 12.9267C81.0626 12.7586 81.0866 12.7586 81.0866 12.7586C81.0866 12.7586 80.9665 13.3349 80.6783 13.8152C80.6783 13.8152 81.2307 13.9593 81.4948 14.5597L82.3113 13.8873L82.1192 13.8633Z" fill="white"/>
<path d="M77.1003 2.98492H76.5239V3.56126H77.1003V2.98492Z" fill="white"/>
<path d="M74.2426 3.63331C74.0745 3.58529 73.8584 3.70536 73.7383 3.92149C73.6182 4.13762 73.6182 4.37776 73.7623 4.49783C73.8584 4.23368 74.0265 3.96952 74.2426 3.75339V3.63331Z" fill="white"/>
<path d="M74.3386 3.65734C74.4827 3.51326 74.6508 3.39319 74.8429 3.27312L74.5307 3.17706C74.3626 3.20108 74.2426 3.39319 74.2426 3.60931L74.3386 3.65734Z" fill="white"/>
<path d="M79.3095 3.65733C79.2855 3.36917 79.1174 3.15304 78.9253 3.17705L78.7332 3.27311C78.9493 3.39318 79.1414 3.53726 79.3095 3.70536V3.65733Z" fill="white"/>
<path d="M80.006 3.96952C79.8619 3.70536 79.5737 3.56128 79.3816 3.68136L79.3336 3.72938C79.6217 4.01755 79.7658 4.18565 79.8619 4.52185C79.8859 4.52185 80.1741 4.23367 80.006 3.96952Z" fill="white"/>
<path d="M76.3558 3.00891V3.56124C76.3558 3.56124 75.1311 3.44117 74.0505 4.25764C74.0265 4.25764 74.7709 3.22504 76.3558 3.00891Z" fill="white"/>
<path d="M77.2684 3.00891V3.56124C77.2684 3.56124 78.4691 3.44117 79.5737 4.25764C79.5737 4.25764 78.8293 3.22504 77.2684 3.00891Z" fill="white"/>
<path d="M80.7264 15.2801L80.7984 15.04C80.9425 15.016 81.0386 15.016 81.0866 15.04L81.0386 15.2561L80.7264 15.2801ZM79.9819 14.5117C80.03 14.3676 80.054 14.2235 80.054 14.1275L80.2941 14.1995C80.2941 14.2715 80.2941 14.4156 80.2461 14.5357L79.9819 14.5117ZM80.3902 14.4877C80.4142 14.3676 80.4142 14.2235 80.4142 14.1755C80.4382 14.1515 80.5823 14.1275 80.7264 14.1515C80.7504 14.2235 80.7744 14.3916 80.7744 14.5117C80.6783 14.4877 80.5343 14.4396 80.3902 14.4877ZM80.2701 14.992C80.3421 14.8239 80.3421 14.6798 80.3421 14.6077C80.4862 14.5357 80.6783 14.5837 80.7504 14.6077C80.7504 14.6558 80.7504 14.7758 80.6783 14.9439C80.6063 14.9439 80.4142 14.9439 80.2701 14.992ZM81.1346 14.5357C81.1346 14.6558 81.1346 14.8239 81.0866 14.9439C81.0386 14.9199 80.9425 14.9199 80.8224 14.9439C80.8705 14.7758 80.8705 14.6558 80.8705 14.6077L81.1346 14.5357ZM81.1586 15.2321L81.2067 15.016L81.4468 15.064L81.4948 14.9679C81.4708 14.9439 81.3267 14.8959 81.2067 14.8959C81.2307 14.7758 81.2307 14.6077 81.2547 14.5117V14.4877L81.2787 14.4156H81.2547V14.3916H81.1346V14.4156L80.8945 14.4637C80.8945 14.3196 80.8464 14.1515 80.8464 14.1275H80.8224L80.8464 14.0554C80.7744 14.0554 80.6063 14.0314 80.4622 14.0554V14.0074H80.3421L80.3181 14.1034L80.078 14.0314H80.0059L79.8619 14.0554L79.9339 14.1515H79.9579C79.9579 14.2475 79.9339 14.4396 79.8378 14.5837L79.7658 14.6318L79.7898 14.6558L79.7658 14.7038L79.8619 14.7758L79.9339 14.6798H80.2221C80.2221 14.7518 80.1981 14.9439 80.102 15.112V15.136L80.03 15.2081L80.054 15.2321L80.03 15.2561L80.126 15.3282L80.1981 15.2081C80.3421 15.112 80.5583 15.112 80.6543 15.112C80.6303 15.1841 80.6063 15.3282 80.5583 15.4482L80.4862 15.5443H80.5102L80.4862 15.5683L80.5823 15.6403L80.6783 15.4963C80.7744 15.4002 80.9185 15.4002 80.9905 15.4002C80.9905 15.4002 80.9905 15.5923 80.8945 15.7124L80.9905 15.7844C81.1106 15.6644 81.1106 15.4722 81.1106 15.4242C81.2547 15.3762 81.4468 15.4482 81.4468 15.4482L81.4948 15.3522C81.4708 15.3041 81.3027 15.2321 81.1586 15.2321Z" fill="black"/>
<path d="M76.4519 5.8666L76.7881 6.15476L77.1243 5.8666L76.7881 5.57843L76.4519 5.8666Z" fill="black"/>
<path d="M75.6594 5.9867C75.6594 6.05874 75.5394 6.13078 75.3953 6.15479C75.2512 6.17881 75.1071 6.10677 75.1071 6.03473C75.1071 5.96269 75.2272 5.89065 75.3713 5.86664C75.5394 5.86664 75.6594 5.91466 75.6594 5.9867Z" fill="black"/>
<path d="M78.373 6.05872C78.373 6.13077 78.2289 6.17879 78.0848 6.17879C77.9408 6.15478 77.8207 6.08274 77.8207 6.01069C77.8207 5.93865 77.9648 5.89062 78.1088 5.89062C78.2529 5.89062 78.373 5.98668 78.373 6.05872Z" fill="black"/>
<path d="M84.0163 5.05011C83.5841 4.93004 83.512 4.64187 83.488 4.64187L83.44 4.61786L83.416 4.66589C83.416 4.66589 83.44 4.76194 83.536 4.88201C83.512 4.93004 83.488 4.97807 83.488 5.09814C83.488 5.21821 83.5841 5.29024 83.6801 5.29024L83.8722 5.09814L83.9923 5.14617L84.0403 5.12215L84.0163 5.05011Z" fill="black"/>
<path d="M83.5601 5.02615L83.6081 5.07417L83.6801 5.02615L83.6081 4.9541L83.5601 5.02615Z" fill="white"/>
<path d="M73.21 13.1188L73.258 13.335C73.306 13.455 73.4021 13.5271 73.5221 13.5751C73.6422 13.6231 73.7623 13.5991 73.8824 13.5511L74.0264 13.455" fill="white"/>
<path d="M73.3301 11.8701L73.5942 12.0142L73.7383 11.7981V11.774L73.3301 11.8701Z" fill="white"/>
<path d="M73.6422 11.2697L73.6182 11.3418L73.5462 11.3898L72.9458 11.4138L72.8738 11.3898L72.8498 11.3178H72.8257L72.8498 11.5339L72.9938 11.6299L73.5702 11.5819L73.6662 11.6059V11.678H73.6902L73.6662 11.2457L73.6422 11.2697Z" fill="white"/>
<path d="M73.0179 9.63681L73.162 9.51674C73.234 9.49273 73.3541 9.49273 73.4741 9.54076L73.6903 9.63681L73.8103 9.87695C73.7863 9.97301 73.7143 10.021 73.5942 10.021L73.3541 9.99702L73.1379 9.90097L73.0179 9.63681ZM73.306 10.1651C73.4261 10.1891 73.5462 10.1891 73.6422 10.1411C73.7623 10.0931 73.8343 9.99702 73.8583 9.85294C73.8824 9.73287 73.8824 9.6128 73.8343 9.51674C73.7623 9.42069 73.6662 9.34864 73.5462 9.30062C73.4021 9.2766 73.306 9.27661 73.186 9.34865C73.0899 9.42069 73.0179 9.49273 72.9939 9.6128C72.9698 9.73287 72.9698 9.85294 73.0419 9.949C73.0659 10.0691 73.1619 10.1411 73.306 10.1651Z" fill="white"/>
<path d="M73.186 9.03647L73.21 9.06048L73.258 8.98844H73.3541L73.9064 9.22858L73.9784 9.30062L73.9544 9.37266L73.9784 9.39668L74.1705 8.98844H74.1225L74.0745 9.03647H74.0024L73.4261 8.79633L73.3781 8.72429L73.4021 8.65224L73.3781 8.62823L73.186 9.03647Z" fill="white"/>
<path d="M73.4501 8.50816L73.6663 8.62823L73.6903 8.60421L73.5942 8.4121L73.6423 8.29202L74.1946 8.65224L74.2666 8.72428L74.2186 8.82034H74.2426L74.2666 8.79632V8.46013L73.7623 8.12393L73.8584 8.02788L74.0745 8.05188V8.02788L73.8584 7.88379L73.4501 8.50816Z" fill="white"/>
<path d="M79.4296 7.71567L79.4536 7.78771L79.4056 7.85975L79.1174 8.07588V8.34003L79.5257 8.02785L79.6217 8.00384L79.6938 8.07588L79.7178 8.05186L79.4536 7.69165L79.4296 7.71567Z" fill="white"/>
<path d="M79.1174 8.72429L79.1895 8.79633L79.4536 8.67626L79.4296 8.65224H79.1895L79.1174 8.62823V8.72429Z" fill="white"/>
<path d="M79.9099 8.38806V8.43609L79.8859 8.50813L79.5977 8.89235L79.4296 8.9644L79.3336 8.98842L79.2856 8.91637L79.2615 8.94038L79.4296 9.32461L79.4777 9.3006L79.4536 9.20454L79.5257 9.15651L79.7418 9.06045L80.1981 9.10849L80.2461 9.13249L80.2701 9.15651H80.2941L80.1741 8.89235L80.1501 8.91637L80.1741 8.98842L80.1501 9.03644H80.078H80.03L79.7658 9.01242L79.9579 8.72426L79.982 8.70024H80.006H80.03L80.078 8.77228L80.102 8.74827L79.9339 8.38806H79.9099Z" fill="white"/>
<path d="M80.126 10.045L80.054 9.90095L80.3902 9.82891H80.4382L80.4622 9.87693L80.4382 9.997L80.2941 10.045H80.126ZM80.3902 9.51672V9.61278L80.3181 9.66081L79.7658 9.78088H79.6698L79.6217 9.70884H79.5977L79.6938 10.1171H79.7178V10.021L79.8138 9.97299L80.054 9.92496L80.102 10.0931L80.15 10.1891L80.2701 10.2852H80.3902L80.5583 10.1651V9.92496L80.4622 9.54074L80.3902 9.51672Z" fill="white"/>
<path d="M80.4622 10.5013L79.8378 10.5493L79.7658 10.5253L79.7418 10.4533H79.7178L79.7418 10.7655C79.9339 10.6454 80.174 10.5733 80.5102 10.5974H80.6063L80.5823 10.3812H80.5582L80.5342 10.4533L80.4622 10.5013Z" fill="white"/>
<path d="M80.4622 12.1343L80.3662 12.1583L80.006 12.1103L80.4622 11.8701C80.3181 11.8941 80.1981 11.8461 79.9099 12.1583L80.3662 12.2303L80.4382 12.2543L80.4622 12.3264H80.4862L80.5343 12.0622H80.5102L80.4622 12.1343Z" fill="white"/>
<path d="M80.1261 12.3744L79.958 12.4945L79.9099 12.5665L79.8139 12.6385H79.7178H79.6938L79.6698 12.7586L79.7659 12.8067H79.9339L80.03 12.7346L80.102 12.6385L80.2221 12.5425H80.3182L80.3902 12.5905V12.6866L80.2942 12.8067L80.102 12.8307V12.8787L80.3662 12.9507V12.9267L80.3422 12.9027V12.8547L80.3902 12.8067L80.4382 12.6866L80.4142 12.4945L80.2701 12.3744H80.1261Z" fill="white"/>
<path d="M79.8138 12.3264L79.9579 12.3024L79.982 12.2783L79.8619 12.2543L79.8138 12.3264Z" fill="white"/>
<path d="M79.8139 13.2869L80.03 13.383L80.054 13.431L80.03 13.479L79.8859 13.6471H79.7658L79.7418 13.6951L79.9099 13.7912L80.2461 13.1668L80.2221 13.1428L80.1741 13.1909H80.102L79.7658 13.0228L79.8139 13.2869Z" fill="white"/>
<path d="M73.8584 13.335L73.7863 13.359L73.5462 13.4311C73.4261 13.4551 73.33 13.407 73.306 13.335L73.33 13.1429" fill="black"/>
<path d="M82.8876 7.47552C82.8876 7.47552 84.4966 7.57158 86.0575 8.58017L85.6493 9.15651C85.6493 9.15651 83.7522 8.17193 82.7195 8.19595L82.8876 7.47552Z" fill="white"/>
<path d="M83.3919 7.97985C83.0798 8.31604 82.8396 8.00387 82.8396 7.90781L82.8876 7.71569L82.9837 7.83576L83.1038 7.5476L82.9357 7.61964L83.0077 7.47555L82.8636 7.45154L82.7195 8.19597C83.512 8.244 84.5686 8.65224 85.6252 9.20456L86.0815 8.5802L85.9855 8.50816L85.8654 8.67625L85.6973 8.50816L85.5772 8.7483L85.7933 8.77231L85.6733 8.86837C85.3851 9.08449 84.9769 8.84435 85.0009 8.5802C85.0009 8.5802 85.0489 8.38809 85.265 8.5802C85.265 8.5802 85.4812 8.38809 85.1209 8.38809C85.1209 8.38809 85.3131 8.29203 85.169 8.14795C84.9528 8.17196 85.0009 8.34006 85.0009 8.34006C84.8328 8.19597 84.7607 8.34006 84.7367 8.4121C84.9769 8.38808 84.9288 8.50815 84.8808 8.55618C84.6647 8.74829 84.2084 8.55619 84.2084 8.26802V8.244C84.2324 8.17196 84.2805 8.07591 84.4726 8.244C84.5206 8.19598 84.5686 8.07591 84.3045 8.02788C84.3045 8.02788 84.4966 7.95584 84.3285 7.78774C84.1124 7.81175 84.1844 7.97985 84.1844 7.97985C83.9683 7.83576 83.9202 7.97985 83.9202 8.05189C84.1604 8.02787 84.1364 8.14794 84.1124 8.19597L84.0883 8.21999C83.8482 8.4121 83.464 8.31605 83.488 8.02788C83.488 8.02788 83.536 7.83577 83.7521 8.02788C83.7521 8.02788 83.9683 7.83576 83.6081 7.83576C83.6081 7.83576 83.8002 7.73971 83.6561 7.59562C83.44 7.61964 83.488 7.78774 83.488 7.78774C83.3199 7.64366 83.2479 7.78774 83.2238 7.85978C83.488 7.81175 83.44 7.93182 83.3919 7.97985Z" fill="black"/>
<path d="M74.4107 11.0776V11.7981C75.1792 11.726 75.1071 12.3024 75.1071 12.3024C75.4193 12.4224 75.2272 12.9747 75.2272 12.9747C75.3473 13.2869 75.2032 13.6231 75.2032 13.6231C75.5394 14.4396 76.4519 14.8238 76.548 14.8959V11.1017H74.4107V11.0776Z" fill="white"/>
<path d="M76.5719 7.45151C75.4433 7.42749 74.6988 7.66764 74.4347 7.76369V10.7174H76.5479V7.45151H76.5719Z" fill="white"/>
<path d="M76.9081 10.7174H78.8533V7.73971C78.0368 7.5476 77.3164 7.47555 76.9081 7.45154V10.7174Z" fill="white"/>
<path d="M76.9081 14.9199C77.8927 14.7038 78.253 13.8873 78.253 13.8873C78.301 13.5271 78.8773 11.9422 78.8773 11.9422V11.1017H76.9322V14.9199H76.9081Z" fill="white"/>
<path d="M69.728 6.58702C69.848 6.539 69.9441 6.49097 69.9681 6.44294C69.9921 6.41892 69.9681 6.25082 69.9201 6.08272C69.872 5.91462 70.0642 5.91462 70.0642 5.91462C70.5684 5.98666 70.4724 5.48236 70.4724 5.48236C70.2563 5.67448 70.1602 5.60243 70.0642 5.62645C69.6799 5.72251 69.752 5.98666 69.8 6.08272L69.8961 6.41892L69.728 6.49096L69.5358 6.51498L69.4158 6.20279C69.4158 6.10674 69.3197 5.84258 68.9355 5.98666C68.8394 6.03469 68.7914 6.13075 68.5032 6.10674C68.5032 6.10674 68.7194 6.56301 69.0796 6.22681C69.0796 6.22681 69.2237 6.10673 69.2957 6.27483C69.3677 6.44293 69.4398 6.58702 69.4638 6.61103C69.4878 6.63505 69.6079 6.63505 69.728 6.58702Z" fill="black"/>
<path d="M70.0882 7.78773C70.5684 7.06731 70.3043 6.32288 70.3043 6.32288C70.2322 7.37949 69.7279 6.58703 69.7279 6.58703C69.7279 6.58703 69.752 7.52358 69.1036 6.7071C69.1036 6.7071 69.2717 7.45154 70.0882 7.78773Z" fill="black"/>
<path d="M69.6079 7.21141C69.8 7.45155 70.0402 7.54762 70.0402 7.54762C70.1842 7.28346 70.1842 7.0193 70.1842 7.0193C70.0161 7.16339 69.848 6.94727 69.848 6.94727C69.8 7.23543 69.6079 7.21141 69.6079 7.21141Z" fill="white"/>
<path d="M84.5926 11.9182C84.9288 11.654 85.0729 11.1497 85.0729 10.5734L85.0249 10.5013L84.9769 10.5974C84.9529 11.1017 84.8088 11.558 84.4966 11.8221L84.5206 11.8941L84.5926 11.9182Z" fill="black"/>
<path d="M85.0969 11.9902C85.4091 11.7501 85.5532 11.2458 85.5532 10.7175L85.5052 10.6694L85.4571 10.7415C85.4331 11.2218 85.289 11.654 85.0009 11.8941L85.0249 11.9662L85.0969 11.9902Z" fill="black"/>
<path d="M85.5532 12.0862C85.8654 11.8461 86.0095 11.3658 86.0095 10.8615L85.9614 10.8135L85.9134 10.8855C85.9134 11.3418 85.7453 11.774 85.4572 12.0142L85.4812 12.0862H85.5532Z" fill="black"/>
<path d="M69.0796 12.0622C68.7434 11.7981 68.5993 11.2938 68.5993 10.7175L68.6473 10.6694L68.7194 10.7415C68.7434 11.2458 68.8875 11.702 69.1997 11.9662L69.1756 12.0382L69.0796 12.0622Z" fill="black"/>
<path d="M68.5993 12.1583C68.2871 11.8941 68.143 11.4379 68.143 10.8856L68.191 10.8375L68.2391 10.9096C68.2631 11.3899 68.4072 11.8221 68.6953 12.0622L68.6713 12.1343L68.5993 12.1583Z" fill="black"/>
<path d="M68.143 12.2303C67.8309 11.9902 67.6868 11.5099 67.6868 11.0056L67.7348 10.9576L67.7828 11.0296C67.8068 11.4859 67.9509 11.9181 68.2391 12.1583L68.2151 12.2303H68.143Z" fill="black"/>
<path d="M70.9286 16.4088L70.8806 16.0005L70.9046 15.6884C70.9046 15.6884 71.0007 15.8565 71.1208 15.9525L71.2648 16.0246L70.9286 16.4088Z" fill="white"/>
<path d="M68.5753 14.7037C68.5753 14.7037 67.999 13.9833 67.3746 14.7037C67.3746 14.7037 66.246 14.4636 65.9098 14.1754C65.9098 14.1754 66.318 13.9593 66.39 13.5991C66.39 13.5991 67.0624 13.6471 67.3266 13.2629C67.3266 13.2629 66.7022 13.1428 66.342 12.6385C66.1739 12.3984 65.5255 11.8221 65.1173 11.7981C64.685 11.774 63.8205 11.9902 62.98 13.1188C62.98 13.1188 63.7245 13.383 64.637 13.503C64.637 13.503 64.9732 13.503 64.8051 13.7432C64.8051 13.7432 64.613 13.9593 64.0607 14.1994C64.0607 14.1994 63.9166 14.2475 63.9166 14.4636C63.9166 14.4636 63.8926 14.7758 63.9886 14.8238C63.9886 14.8238 64.589 15.16 66.0538 15.3761C66.0538 15.3761 67.8069 15.3521 68.3352 15.2561C68.3592 15.232 68.3112 14.8238 68.5753 14.7037Z" fill="white"/>
<path d="M79.7658 14.992C79.6217 14.7278 79.5977 14.2235 79.5977 14.2235C79.5977 14.2235 79.3576 15.016 78.8533 15.1841C78.9013 15.2321 79.0214 15.3762 79.0214 15.5443C79.0214 15.7124 78.8773 15.8565 78.7092 15.8565L78.6131 15.8324L78.4691 16.3608C78.4691 16.3608 78.8773 16.2167 79.0934 15.9765C79.0934 15.9765 79.3336 15.6644 79.5257 14.992C79.6217 14.6798 79.3576 15.8565 79.3576 15.8565L80.054 15.3762C80.054 15.3762 79.9339 15.2561 79.7658 14.992Z" fill="white"/>
<path d="M78.8533 15.5442C78.8533 15.4482 78.7813 15.3761 78.6852 15.3521L78.5651 15.3281C78.0849 15.136 77.7967 14.8478 77.7967 14.8478V15.3041C78.4931 15.7123 78.6852 15.7123 78.6852 15.7123L78.8533 15.5442Z" fill="white"/>
<path d="M78.445 16.937L78.3009 16.817L78.2049 16.793C77.7966 16.6729 77.7246 16.5768 77.7246 16.5768V16.7209L77.6285 16.817C78.2769 17.1532 78.349 17.1051 78.349 17.1051L78.445 16.937Z" fill="white"/>
<path d="M74.4107 14.4396L74.0985 14.8719C74.0985 14.8719 73.9544 15.064 74.1225 15.2321L74.4107 15.5203C74.4107 15.5203 74.5788 15.5683 74.6268 15.3522L74.4347 15.1601C74.4347 15.1601 74.2906 15.04 74.3867 14.9199L74.6028 14.6318L74.4347 14.4637L74.4107 14.4396Z" fill="white"/>
<path d="M73.7623 13.9593L73.6663 13.9833L73.6183 13.9353L73.5942 13.9593L73.8584 14.2955L73.9064 14.2715L73.8584 14.1995L73.8824 14.1274L74.0985 13.9593L74.0265 13.7672L73.7623 13.9593Z" fill="white"/>
<path d="M74.0985 14.3676L74.0025 14.3916L73.9544 14.3436H73.9304L74.1466 14.6317L74.3387 14.3676L74.2666 14.2475L74.0985 14.3676Z" fill="white"/>
<path d="M84.9528 12.3744L84.8328 12.3024L84.6887 12.4705L84.5206 12.4225C84.3285 12.4225 84.1844 12.5666 84.1844 12.7587L84.2084 12.9028L83.9923 13.0468C83.9202 12.9508 83.8242 12.9028 83.7281 12.9028C83.536 12.9028 83.3919 13.0468 83.3919 13.2389V13.263L83.1998 13.287L83.0077 13.263L83.0317 13.1669C83.0317 12.9748 82.8876 12.8307 82.6955 12.8307C82.5754 12.8307 82.4794 12.9027 82.4073 12.9748L82.1432 12.7587L82.1912 12.5906C82.1912 12.3985 82.0471 12.2544 81.855 12.2544L81.735 12.2784C81.6389 12.1583 81.5428 12.0142 81.4468 11.8461L81.2787 11.8701C81.3747 12.0382 81.4948 12.2063 81.5909 12.3504L81.4948 12.5906C81.4948 12.7827 81.6389 12.9268 81.831 12.9268L82.0471 12.8547L82.3353 13.0949L82.3113 13.1669C82.3113 13.359 82.4554 13.5031 82.6475 13.5031L82.8876 13.383L83.1278 13.407L83.3679 13.383C83.4159 13.5031 83.536 13.5751 83.6561 13.5751C83.8482 13.5751 83.9923 13.4311 83.9923 13.2389L83.9683 13.1669L84.2324 12.9988L84.4485 13.0949C84.6407 13.0949 84.7847 12.9508 84.7847 12.7587L84.7127 12.5425L84.9528 12.3744Z" fill="black"/>
<path d="M81.8791 8.0519L81.735 7.97986C81.6149 8.24401 81.4948 8.48416 81.4228 8.7243H81.3747C81.2307 8.7243 81.1106 8.84437 81.1106 8.98845L81.2547 9.20458C81.1826 9.42071 81.1346 9.5888 81.1106 9.7569C80.9425 9.78091 80.7984 9.925 80.7984 10.0931C80.7984 10.2372 80.8945 10.3573 81.0145 10.4053C80.9905 10.5734 80.9905 10.6694 80.9905 10.6934H81.1346C81.1346 10.6694 81.1346 10.5974 81.1346 10.4293C81.3027 10.4053 81.4468 10.2612 81.4468 10.0931C81.4468 9.94901 81.3747 9.82894 81.2307 9.78092C81.2787 9.61282 81.3267 9.44472 81.3747 9.22859C81.4948 9.20458 81.6149 9.10852 81.6149 8.96444L81.5429 8.77232C81.6629 8.55619 81.759 8.31605 81.8791 8.0519Z" fill="black"/>
<path d="M75.3472 15.8565C75.3232 16.0246 75.2272 16.5048 75.035 16.793C75.035 16.793 75.2031 16.2647 75.2512 15.8324C74.939 15.6643 74.7229 15.4722 74.7229 15.4722C74.5788 15.9765 74.2906 15.6403 74.2906 15.6403C74.0505 16.4088 74.6748 15.9525 74.939 15.9525C75.2512 15.9525 75.035 16.1446 75.035 16.1446C74.8429 16.2647 74.6268 16.3367 74.6268 16.3367C74.2426 16.4808 74.4107 16.793 74.4107 16.793C74.6028 17.0332 74.8669 16.9611 74.8669 16.9611C75.035 16.9851 75.035 17.1052 75.035 17.1052C75.1311 17.4174 75.3953 17.2733 75.3953 17.2733C75.6114 17.0812 75.4913 16.721 75.4913 16.721C75.2752 15.9045 75.5634 16.1206 75.5634 16.1206L75.6354 16.2407V15.9765C75.5393 15.9285 75.4433 15.9045 75.3472 15.8565Z" fill="white"/>
</svg>
