<svg width="37" height="37" viewBox="0 0 37 37" fill="none" xmlns="http://www.w3.org/2000/svg">
<g clip-path="url(#clip0)">
<path d="M37 18.5C37 20.9294 36.5215 23.3351 35.5918 25.5796C34.662 27.8242 33.2993 29.8636 31.5815 31.5815C29.8636 33.2994 27.8242 34.6621 25.5796 35.5918C23.3351 36.5215 20.9294 37 18.5 37C16.0705 37 13.6649 36.5215 11.4204 35.5918C9.17584 34.6621 7.13641 33.2994 5.41853 31.5815C3.70065 29.8636 2.33795 27.8242 1.40824 25.5796C0.478524 23.3351 7.59319e-06 20.9294 7.62939e-06 18.5C7.59319e-06 16.0705 0.478524 13.6649 1.40824 11.4204C2.33795 9.17583 3.70065 7.13641 5.41853 5.41852C7.13641 3.70064 9.17584 2.33794 11.4204 1.40823C13.6649 0.478517 16.0705 0 18.5 0C20.9294 0 23.3351 0.478517 25.5796 1.40823C27.8242 2.33794 29.8636 3.70064 31.5815 5.41852C33.2993 7.13641 34.662 9.17583 35.5918 11.4204C36.5215 13.6649 37 16.0705 37 18.5Z" fill="#D40000"/>
<path d="M9.26746 27.3475H6.17616V14.2886C5.04671 15.4725 3.71558 16.348 2.18276 16.9152V13.7707C2.98951 13.4748 3.86592 12.9137 4.81202 12.0875C5.75811 11.2613 6.40717 10.2974 6.75921 9.1958H9.26746V27.3475ZM16.5502 17.5934C15.7508 17.2153 15.1695 16.6953 14.8065 16.0335C14.4435 15.3717 14.262 14.6463 14.262 13.857C14.262 12.5088 14.6818 11.3949 15.5216 10.5153C16.3613 9.63563 17.5549 9.19582 19.1024 9.1958C20.6352 9.19582 21.8252 9.63563 22.6723 10.5153C23.5194 11.3949 23.9429 12.5088 23.9429 13.857C23.9429 14.6956 23.7485 15.4416 23.3599 16.0952C22.9711 16.7487 22.4248 17.2482 21.7207 17.5934C22.6154 17.9963 23.2957 18.5841 23.7614 19.3568C24.2271 20.1296 24.46 21.0215 24.46 22.0327C24.46 23.7015 23.9851 25.058 23.0353 26.102C22.0856 27.1461 20.8223 27.6681 19.2454 27.6681C17.7786 27.6681 16.5575 27.2365 15.5821 26.3733C14.4306 25.3539 13.8549 23.9564 13.8549 22.1807C13.8549 21.2024 14.0713 20.3043 14.504 19.4863C14.9367 18.6683 15.6188 18.0374 16.5502 17.5934ZM17.1882 14.1037C17.1882 14.7942 17.3624 15.3327 17.7108 15.7191C18.0592 16.1055 18.523 16.2987 19.1024 16.2986C19.6891 16.2987 20.1585 16.1034 20.5106 15.7129C20.8626 15.3224 21.0386 14.7819 21.0386 14.0913C21.0386 13.4419 20.8644 12.9219 20.5161 12.5314C20.1677 12.1409 19.7075 11.9457 19.1354 11.9457C18.5414 11.9457 18.0683 12.143 17.7163 12.5376C17.3643 12.9322 17.1882 13.4542 17.1882 14.1037ZM16.9022 21.8477C16.9022 22.8014 17.1204 23.5454 17.5568 24.0797C17.9932 24.6141 18.5377 24.8812 19.1904 24.8812C19.8285 24.8812 20.3566 24.6243 20.7746 24.1105C21.1926 23.5967 21.4017 22.8548 21.4017 21.8847C21.4017 21.038 21.189 20.3577 20.7636 19.8439C20.3382 19.3301 19.7992 19.0732 19.1464 19.0732C18.391 19.0732 17.8281 19.365 17.4578 19.9487C17.0874 20.5324 16.9022 21.1654 16.9022 21.8477Z" fill="white"/>
<path d="M29.3077 24.0997V19.4111H24.6201V17.1104H29.3077V12.4229H31.6084V17.1104H36.297V19.4111H31.6084V24.0997H29.3077Z" fill="white"/>
</g>
<defs>
<clipPath id="clip0">
<rect width="37" height="37" fill="white"/>
</clipPath>
</defs>
</svg>
