<svg width="87" height="60" viewBox="0 0 87 60" fill="none" xmlns="http://www.w3.org/2000/svg">
<g clip-path="url(#clip0)">
<path d="M0.000747681 15.7584C0.000747681 15.7584 25.6748 12.4359 26.3991 12.3182C27.511 12.1367 28.497 11.9241 29.4175 11.6707C31.4941 11.1017 33.4055 10.2335 35.0978 9.08889C36.7214 8.00156 38.2306 6.41885 39.7267 4.6824C40.6767 3.57708 41.6757 2.1366 42.6077 0.746783V0.074707C41.5024 1.71142 40.4135 3.1225 39.2934 4.3668C37.8088 6.01986 36.2522 7.37049 34.6645 8.38424C33.0261 9.44051 31.1834 10.227 29.1837 10.7257C28.2877 10.9513 27.3295 11.1344 26.2504 11.2848C25.5407 11.3845 24.8082 11.4615 24.1002 11.535C23.8173 11.5662 0.000747681 14.0923 0.000747681 14.0923V15.7584Z" fill="#BDBCBC"/>
<path d="M34.4304 11.4599C32.8231 12.3838 30.9673 13.0607 28.9136 13.4695C28.0372 13.6477 27.0807 13.7916 25.9918 13.9093C25.3508 13.9795 24.7066 14.0351 24.0607 14.0908C23.7124 14.1202 23.3642 14.1512 23.0159 14.1823C15.1479 14.8887 7.32075 15.6392 0.000488281 16.3488V18.015C7.37798 17.1255 15.2607 16.1821 23.1255 15.2926C23.4754 15.2518 23.8253 15.2125 24.1752 15.1748C24.8194 15.1044 25.4653 15.0326 26.1111 14.9476C27.2311 14.7988 28.2106 14.6271 29.105 14.4243C31.2387 13.9469 33.1649 13.1948 34.831 12.1859C36.4857 11.1934 37.9475 9.80197 39.5204 8.10148C40.4998 7.04358 41.5888 5.54913 42.6091 4.14623V3.53467C41.4073 5.16321 40.2676 6.53181 39.1411 7.69926C37.6057 9.29019 36.0213 10.5541 34.4304 11.4599Z" fill="#BDBCBC"/>
<path d="M38.9235 11.0517C37.3571 12.4889 35.722 13.6188 34.0624 14.4101C32.4387 15.1933 30.6238 15.7427 28.5096 16.0894C27.6381 16.2349 26.6898 16.3526 25.6122 16.4507L0.000320435 18.5534V20.2147L22.7672 17.7997L25.712 17.4906C26.8222 17.3615 27.7902 17.2176 28.6698 17.0508C30.8592 16.6371 32.7379 16.0207 34.4106 15.1639C36.1209 14.2989 37.8296 12.8601 39.4189 11.3362C40.4849 10.3143 41.5118 8.99472 42.6089 7.61144V7.05713C41.3417 8.63335 40.1318 9.94471 38.9235 11.0517Z" fill="#BDBCBC"/>
<path d="M32.7304 19.6811C31.2392 20.515 30.1241 20.9958 27.9952 21.2182C26.7084 21.3571 25.3856 21.4225 24.1054 21.4863C23.4873 21.5173 22.8676 21.5484 22.2479 21.5877C18.3793 21.8084 14.5793 22.0537 10.7026 22.3055L0.000961304 23.0265V24.6878L10.8105 23.6969C14.303 23.383 18.3613 23.0216 22.3231 22.6979L25.2041 22.4755C26.3291 22.3889 27.2513 22.2973 28.1048 22.1861C30.2958 21.9033 32.1679 21.4601 33.8259 20.8339C35.6114 20.1668 37.2956 19.1302 38.9813 17.9104C40.502 16.8116 42.6063 14.6451 42.6079 14.6173V14.0303C41.2328 15.371 40.4415 16.1249 38.9355 17.1174C37.1353 18.3028 34.0679 18.9339 32.7304 19.6811Z" fill="#BDBCBC"/>
<path d="M33.2749 22.8393C31.6594 23.3135 29.8412 23.634 27.7156 23.8187C26.8539 23.8939 25.9252 23.9511 24.8755 23.9937L22.0108 24.1195C14.8933 24.4498 7.80848 24.8193 0.000961304 25.233V26.8894C7.4602 26.3122 14.769 25.7513 22.0762 25.2314L24.931 25.0368C26.0347 24.9632 26.9488 24.8848 27.8088 24.7883C29.9867 24.5447 31.8507 24.1685 33.5054 23.6388C35.3384 23.0583 37.1255 22.2163 38.8162 21.1371C40.0638 20.3425 41.313 19.3942 42.6079 18.2643V18.2349C41.1805 19.453 39.8201 19.7244 38.4646 20.5419C36.8034 21.5492 35.0571 22.321 33.2749 22.8393Z" fill="#BDBCBC"/>
<path d="M33.0106 25.5923C31.3837 25.9733 29.6195 26.2169 27.4596 26.3624C26.6273 26.418 25.7313 26.4589 24.6407 26.4932L21.8038 26.5946C14.6552 26.8644 7.40692 27.175 0 27.4971V29.1535C7.3595 28.6515 14.5784 28.1626 21.8594 27.7081L24.6897 27.538C25.8 27.4742 26.7041 27.4105 27.5364 27.3336C29.7356 27.1309 31.5358 26.8349 33.2003 26.4049C35.0676 25.9242 36.8825 25.2178 38.5944 24.3087C39.9189 23.6073 41.24 22.7636 42.6086 21.7466V21.0386C41.1288 22.1063 39.7096 22.9777 38.2903 23.6874C36.6078 24.5294 34.8321 25.1704 33.0106 25.5923Z" fill="#BDBCBC"/>
<path d="M32.7684 28.2913C31.1349 28.5905 29.3772 28.7818 27.2336 28.8913C26.4275 28.9339 25.5642 28.9633 24.436 28.9895L0.00128174 29.65V31.3064L21.6678 30.1749L24.4752 30.0326C25.5707 29.9803 26.4668 29.928 27.2957 29.8643C29.4688 29.6975 31.2559 29.4588 32.9204 29.1105C34.8106 28.7181 36.6451 28.1457 38.3718 27.41C39.7632 26.8197 41.1563 26.1003 42.6083 25.2255V24.5601C41.0582 25.4626 39.5834 26.1853 38.1183 26.7657C36.4162 27.4427 34.616 27.9561 32.7684 28.2913Z" fill="#BDBCBC"/>
<path d="M32.5765 31.0023C29.5778 31.4029 26.4924 31.4487 23.5068 31.4928C22.8233 31.502 22.1382 31.5125 21.4547 31.5272L0.000808716 31.9131V33.5662L21.4923 32.6407C22.1725 32.6097 22.856 32.5819 23.5394 32.5557C26.5447 32.4347 29.653 32.3104 32.6926 31.8281C34.6155 31.5256 36.4664 31.076 38.1947 30.4955C39.6254 30.0164 41.1068 29.3967 42.6078 28.6642V28.0298C41.0299 28.7639 39.4782 29.3755 37.9887 29.8333C36.2817 30.3598 34.4618 30.7539 32.5765 31.0024" fill="#BDBCBC"/>
<path d="M32.4062 33.7307C29.5971 33.9629 26.7226 33.9629 23.9414 33.9629C23.0764 33.9629 22.2115 33.9629 21.3465 33.9694C14.2388 34.0005 7.18831 34.0594 0.000488281 34.1214V35.7745C6.84658 35.5424 14.108 35.3003 21.371 35.0845C22.2327 35.0551 23.0944 35.0339 23.9577 35.011C26.7537 34.9407 29.6445 34.8687 32.483 34.5613C34.4647 34.3488 36.2699 34.0365 37.9982 33.6097C39.5057 33.2386 41.0541 32.7448 42.6091 32.1513V31.543C41.0034 32.1185 39.4043 32.5894 37.8461 32.9328C36.1342 33.3105 34.3552 33.5705 32.4062 33.7307Z" fill="#BDBCBC"/>
<path d="M32.2977 36.4198C31.1269 36.4656 29.8597 36.4885 28.4225 36.4885C27.8796 36.4885 27.3351 36.4859 26.7939 36.4807L21.2641 36.4137C17.4919 36.3858 13.7329 36.3793 10.206 36.3762L0.00149536 36.3854V38.0367L10.2305 37.7702C13.7443 37.6836 17.5132 37.5937 21.2755 37.5266L26.8005 37.4529C28.3162 37.4301 30.3159 37.3843 32.3418 37.2518C34.3268 37.1227 36.1335 36.9248 37.8651 36.6485C39.4233 36.4 41.0159 36.0648 42.6084 35.6576V35.0723C40.9717 35.4483 39.3448 35.7509 37.767 35.9618C36.0453 36.1924 34.2565 36.3411 32.2977 36.4196" fill="#BDBCBC"/>
<path d="M26.7296 39.0182L21.2194 38.9594C14.1886 38.8596 7.16589 38.7321 0.000961304 38.598V40.2511C6.83887 40.207 14.0823 40.1545 21.2243 40.0745L26.7378 39.9927C28.5953 39.96 30.4151 39.9258 32.2546 39.8652C36.0431 39.7442 39.4375 39.4776 42.6079 39.0574V38.4819C39.4244 38.8253 36.0267 39.0051 32.235 39.0296C30.4021 39.046 28.5658 39.0336 26.7296 39.0179" fill="#BDBCBC"/>
<path d="M42.6084 41.9416L0.00149536 40.8608V42.5139H42.6084V41.9416Z" fill="#BDBCBC"/>
<path d="M38.7719 14.1745C37.1532 15.4744 35.9039 16.3982 33.9222 17.1847C32.1972 17.8714 30.3447 18.151 28.2273 18.4404C26.8652 18.6317 25.4411 18.913 24.0807 19.0045C23.5215 19.0421 22.9623 19.078 22.4047 19.1222L0.000808716 20.7557V22.4137L22.4946 20.2324L25.4116 19.9594C26.4924 19.8563 27.4539 19.7387 28.3466 19.5932C30.5262 19.2433 32.4049 18.7102 34.089 17.9597C35.8353 17.1896 37.6028 15.9273 39.2461 14.5456C40.3628 13.6071 41.4387 12.4266 42.6078 11.1365V10.543C41.1935 12.0047 40.0195 13.1738 38.7719 14.1745Z" fill="#BDBCBC"/>
<path d="M17.7102 58.3599H55.0326V41.7622H17.7102V58.3599Z" fill="white"/>
<path d="M55.0392 17.5415H17.7102V42.5125H55.0392V17.5415Z" fill="#254AA5"/>
<path d="M36.7797 21.0929H38.078L37.0315 21.9087L37.4386 23.2021L36.3954 22.4058L35.3523 23.2021L35.7643 21.9087L34.708 21.0929H36.003L36.3954 19.8306L36.7797 21.0929Z" fill="#FFF200"/>
<path d="M36.8255 37.7455H38.127L37.0789 38.5319L37.4861 39.7746L36.4429 39.0094L35.4013 39.7746L35.8117 38.5319L34.7538 37.7455H36.0505L36.4429 36.5322L36.8255 37.7455Z" fill="#FFF200"/>
<path d="M40.9447 36.6431H42.2463L41.1982 37.4279L41.6053 38.6722L40.5622 37.9038L39.5206 38.6722L39.931 37.4279L38.8731 36.6431H40.1697L40.5622 35.4282L40.9447 36.6431Z" fill="#FFF200"/>
<path d="M40.9447 22.2035H42.2463L41.1982 22.9883L41.6053 24.2326L40.5622 23.4657L39.5206 24.2326L39.931 22.9883L38.8731 22.2035H40.1697L40.5622 20.9902L40.9447 22.2035Z" fill="#FFF200"/>
<path d="M44.0032 25.2618H45.3014L44.255 26.0449L44.6621 27.2909L43.6189 26.524L42.579 27.2909L42.9894 26.0449L41.9315 25.2618H43.2265L43.6189 24.0469L44.0032 25.2618Z" fill="#FFF200"/>
<path d="M44.0032 33.6264H45.3014L44.255 34.4129L44.6621 35.6589L43.6189 34.8904L42.579 35.6589L42.9894 34.4129L41.9315 33.6264H43.2265L43.6189 32.4116L44.0032 33.6264Z" fill="#FFF200"/>
<path d="M45.149 29.3803H46.4506L45.4025 30.1651L45.8096 31.4111L44.7664 30.6425L43.7249 31.4111L44.1353 30.1651L43.0774 29.3803H44.3724L44.7664 28.167L45.149 29.3803Z" fill="#FFF200"/>
<path d="M32.58 22.2137H33.8782L32.8318 23.0002L33.2389 24.2445L32.1958 23.4759L31.1526 24.2445L31.5646 23.0002L30.5083 22.2137H31.8033L32.1958 21.0005L32.58 22.2137Z" fill="#FFF200"/>
<path d="M29.6064 25.2719H30.9079L29.8599 26.0567L30.2654 27.3027L29.2238 26.5341L28.1823 27.3027L28.591 26.0567L27.5348 25.2719H28.8314L29.2238 24.0586L29.6064 25.2719Z" fill="#FFF200"/>
<path d="M28.5027 29.3905H29.8027L28.7562 30.1753L29.1617 31.4212L28.1202 30.6544L27.077 31.4212L27.4874 30.1753L26.4327 29.3905H27.7277L28.1202 28.1772L28.5027 29.3905Z" fill="#FFF200"/>
<path d="M29.6064 33.6368H30.9079L29.8599 34.4233L30.2654 35.6693L29.2238 34.9008L28.1823 35.6693L28.591 34.4233L27.5348 33.6368H28.8314L29.2238 32.4253L29.6064 33.6368Z" fill="#FFF200"/>
<path d="M32.6233 36.6534H33.9216L32.8751 37.4382L33.279 38.6824L32.2391 37.9156L31.1959 38.6824L31.6079 37.4382L30.5517 36.6534H31.8466L32.2391 35.4385L32.6233 36.6534Z" fill="#FFF200"/>
<path d="M17.7102 60.0001H55.0424V57.8696H17.7102V60.0001Z" fill="#254AA5"/>
<path d="M60.3517 0C60.3517 0 68.1347 12.1208 69.5588 14.3494C70.9813 16.5764 72.6083 18.3391 78.367 19.536C84.1258 20.7328 86.6324 21.2985 86.6324 21.2985V21.7302C86.6324 21.7302 82.9731 20.965 78.264 19.9349C73.5566 18.9048 71.6321 18.5565 69.4852 15.6297C67.6981 13.1935 60.3517 2.83848 60.3517 2.83848V0Z" fill="#BDBCBC"/>
<path d="M60.3517 3.44629C60.3517 3.44629 68.3947 14.9688 69.4624 16.3815C70.5301 17.7942 71.9673 20.0702 78.3245 21.4142C79.9662 21.7609 86.6536 23.0771 86.6536 23.0771V23.4417C86.6536 23.4417 81.5718 22.4623 78.3245 21.7788C75.0756 21.0954 71.6632 20.4724 69.4853 17.7255C67.5068 15.2303 60.337 6.02809 60.337 6.02809L60.3517 3.44629H60.3517Z" fill="#BDBCBC"/>
<path d="M60.3517 6.90771C60.3517 6.90771 67.9303 16.7002 69.4624 18.659C70.9928 20.6162 73.1037 22.2333 78.3245 23.2356C81.3347 23.8144 86.6308 24.784 86.6308 24.784V25.1486C86.6308 25.1486 81.9904 24.2837 78.3245 23.6232C74.6587 22.9626 71.6322 22.3232 69.4624 19.8886C67.5592 17.7515 60.337 9.35212 60.337 9.35212L60.3517 6.90771H60.3517Z" fill="#BDBCBC"/>
<path d="M60.3367 10.3086C60.3367 10.3086 68.0101 19.192 69.4849 20.7764C71.7822 23.2437 72.8957 24.094 78.3242 25.1257C80.4956 25.5394 86.6304 26.6071 86.6304 26.6071V26.993C86.6304 26.993 81.5502 26.0823 78.3242 25.5133C75.0998 24.9443 72.3709 24.7317 69.4621 21.9373C67.2465 19.8101 60.3514 12.601 60.3514 12.601L60.3366 10.3086H60.3367Z" fill="#BDBCBC"/>
<path d="M60.3517 13.8462C60.3517 13.8462 67.4365 21.1239 69.4852 23.2136C71.6583 25.4291 74.4428 26.25 78.3016 26.9253C81.9854 27.5695 86.6307 28.3151 86.6307 28.3151V28.7238C86.6307 28.7238 82.2683 28.024 78.3016 27.3585C74.4117 26.7045 71.6893 26.3415 69.4624 24.3288C67.4676 22.5269 60.3517 15.9866 60.3517 15.9866V13.8462Z" fill="#BDBCBC"/>
<path d="M60.3517 17.1255C60.3517 17.1255 67.0898 23.2587 69.4852 25.3549C71.6893 27.2826 73.4765 27.8827 78.3245 28.7248C83.1741 29.5668 86.6307 30.0901 86.6307 30.0901V30.5233C86.6307 30.5233 82.2454 29.817 78.3016 29.2022C74.3578 28.5874 71.8447 28.3454 69.4852 26.47C66.7628 24.3051 60.3517 19.1301 60.3517 19.1301V17.1255Z" fill="#BDBCBC"/>
<path d="M60.3364 20.6323C60.3364 20.6323 68.0229 26.6069 69.4618 27.6534C70.9006 28.7014 72.8022 29.9228 78.3239 30.706C83.7998 31.4811 86.6072 31.867 86.6072 31.867V32.3232C86.6072 32.3232 81.6431 31.6152 78.3239 31.2064C75.0063 30.796 72.4621 30.6227 69.4846 28.6786C66.5856 26.7868 60.351 22.4848 60.351 22.4848L60.3363 20.6323H60.3364Z" fill="#BDBCBC"/>
<path d="M60.3364 23.9878C60.3364 23.9878 68.0457 29.0205 69.5075 29.8184C70.9709 30.6147 72.6878 31.913 78.3239 32.6193C83.9617 33.324 86.6072 33.6429 86.6072 33.6429V34.0762C86.6072 34.0762 81.9439 33.5759 78.301 33.1884C74.658 32.8009 72.176 32.2776 69.4618 30.8191C66.7475 29.3623 60.351 25.703 60.351 25.703L60.3363 23.9878H60.3364Z" fill="#BDBCBC"/>
<path d="M60.3517 27.3428C60.3517 27.3428 67.1749 30.9808 69.4853 32.1172C72.0605 33.3844 74.2875 33.9926 78.3245 34.4619C82.288 34.9262 86.6308 35.3742 86.6308 35.3742V35.7847C86.6308 35.7847 82.615 35.3628 78.3245 34.9639C74.0717 34.5698 72.556 34.3867 69.4853 33.0508C66.7383 31.8572 60.337 28.937 60.337 28.937L60.3517 27.3428H60.3517Z" fill="#BDBCBC"/>
<path d="M60.3517 30.7588C60.3517 30.7588 65.7197 33.0119 69.5082 34.4852C73.2362 35.9355 76.0828 36.0581 78.3474 36.3083C79.3448 36.4179 86.6079 37.1504 86.6079 37.1504V37.5592C86.6079 37.5592 82.2684 37.2191 78.3246 36.8774C74.3807 36.5356 72.6786 36.3917 69.4853 35.3518C66.2527 34.3004 60.337 32.2778 60.337 32.2778L60.3517 30.7588H60.3517Z" fill="#BDBCBC"/>
<path d="M60.3517 34.2202C60.3517 34.2202 65.7966 35.8749 69.5082 36.8314C73.2198 37.7879 76.6306 38.1754 78.3474 38.2883C80.0643 38.4027 86.6079 38.9259 86.6079 38.9259V39.3135C86.6079 39.3135 82.8963 39.0649 78.3246 38.7445C74.6276 38.4861 71.6583 38.213 69.4853 37.7421C67.0768 37.2205 60.337 35.6476 60.337 35.6476L60.3517 34.2202H60.3517Z" fill="#BDBCBC"/>
<path d="M60.3367 37.6362C60.3367 37.6362 64.8037 38.39 69.5079 39.1536C73.0347 39.7275 77.8141 40.0889 78.3242 40.1102C78.8344 40.1331 86.6305 40.6579 86.6305 40.6579V41.0666C86.6305 41.0666 81.6418 40.8149 78.3242 40.635C74.8693 40.447 71.4356 40.2426 69.485 40.0431C65.116 39.5951 60.3367 39.0032 60.3367 39.0032V37.6362Z" fill="#BDBCBC"/>
<path d="M60.3517 41.1729C60.3517 41.1729 67.3744 41.4312 69.5081 41.477C71.6419 41.5227 86.6307 42.1146 86.6307 42.1146V42.5251L60.3517 42.5087V41.1729Z" fill="#BDBCBC"/>
<path d="M19.8924 44.9741C19.8924 44.8972 19.9284 44.8564 20.0101 44.8564H22.1766C22.247 44.8564 22.2895 44.8973 22.2895 44.9677V45.3339C22.2895 45.4043 22.2601 45.4402 22.1718 45.4402H20.5645V46.4523H21.9886C22.0654 46.4523 22.1064 46.4884 22.1064 46.5586V46.9232C22.1064 46.9936 22.0769 47.0294 21.9886 47.0294H20.5645V48.1887H22.2127C22.2829 48.1887 22.319 48.2246 22.319 48.3015V48.6596C22.319 48.7365 22.2896 48.7659 22.2061 48.7659H20.0102C19.9285 48.7659 19.8925 48.7299 19.8925 48.6596V44.9741H19.8924Z" fill="#5A5758"/>
<path d="M25.0495 48.7662H24.6309C24.5426 48.7662 24.5197 48.7254 24.5197 48.655V48.4719L24.5079 48.4653C24.2774 48.6256 23.8768 48.8185 23.5187 48.8185C22.724 48.8185 22.6472 48.3476 22.6472 47.7295V45.998C22.6472 45.9278 22.6766 45.8818 22.7584 45.8818H23.1884C23.2653 45.8818 23.2947 45.9227 23.2947 45.998V47.6527C23.2947 48.0075 23.365 48.2299 23.7248 48.2299C23.9782 48.2299 24.3657 48.0418 24.5194 47.965V45.998C24.5194 45.9278 24.5423 45.8818 24.6306 45.8818H25.0492C25.1309 45.8818 25.1604 45.9227 25.1604 45.998V48.655C25.1604 48.7302 25.1309 48.7662 25.0492 48.7662" fill="#5A5758"/>
<path d="M26.3085 48.6546C26.3085 48.725 26.2791 48.7657 26.1973 48.7657H25.7722C25.6904 48.7657 25.661 48.7314 25.661 48.6546V45.9992C25.661 45.9223 25.6904 45.8815 25.7722 45.8815H26.1908C26.2791 45.8815 26.3085 45.9288 26.3085 45.9992V46.2575L26.3203 46.2694C26.4968 46.1059 26.9154 45.9047 27.1918 45.8524C27.2687 45.8343 27.3209 45.8524 27.334 45.9521L27.3748 46.3461C27.38 46.4295 27.3866 46.4638 27.2621 46.4884C26.9334 46.5522 26.5148 46.6698 26.3088 46.7581V48.6548L26.3085 48.6546Z" fill="#5A5758"/>
<path d="M28.7869 46.3875C28.2866 46.3875 28.1738 46.7063 28.1738 47.3179C28.1738 47.9425 28.2865 48.2482 28.7804 48.2482C29.3167 48.2482 29.423 47.9474 29.423 47.3179C29.423 46.6933 29.3232 46.3875 28.7869 46.3875ZM28.7804 48.814C27.5982 48.814 27.5214 47.9474 27.5214 47.277C27.5214 46.7227 27.6439 45.8218 28.7804 45.8218C29.9233 45.8218 30.0819 46.5821 30.0819 47.277C30.0819 47.9474 30.0002 48.814 28.7804 48.814Z" fill="#5A5758"/>
<path d="M31.8418 46.4227C31.5998 46.4227 31.2286 46.5928 31.052 46.6876V48.1592C31.3169 48.2361 31.5295 48.259 31.7306 48.259C32.1541 48.259 32.3012 48.0415 32.3012 47.3008C32.3012 46.5519 32.1541 46.4228 31.8418 46.4228V46.4227ZM31.7944 48.8198C31.5998 48.8198 31.3301 48.7838 31.0586 48.689L31.0521 48.6955V49.7322C31.0521 49.7959 31.0357 49.8499 30.9409 49.8499H30.5223C30.4292 49.8499 30.4111 49.8091 30.4111 49.7322V45.9993C30.4111 45.9225 30.4406 45.8816 30.5223 45.8816H30.9409C31.0244 45.8816 31.0473 45.9273 31.0473 45.9993V46.1759L31.0653 46.1877C31.2762 46.0405 31.6539 45.8345 31.9957 45.8345C32.7658 45.8345 32.9669 46.4166 32.9669 47.306C32.9669 48.2658 32.7249 48.8201 31.7945 48.8201" fill="#5A5758"/>
<path d="M33.9842 47.0588H35.15C35.15 46.6991 35.0552 46.3525 34.5679 46.3525C34.1313 46.3525 34.0137 46.6173 33.9842 47.0588ZM33.9777 47.5003C33.9957 48.0955 34.2082 48.2606 34.6905 48.2606C34.9031 48.2606 35.2318 48.2181 35.4558 48.1952C35.5621 48.1834 35.598 48.1834 35.616 48.295L35.6504 48.4896C35.6685 48.5779 35.657 48.6253 35.5508 48.6727C35.3202 48.761 34.8918 48.8199 34.6024 48.8199C33.4775 48.8199 33.3123 48.1021 33.3123 47.3352C33.3123 46.7646 33.4187 45.8228 34.5681 45.8228C35.6211 45.8228 35.8091 46.5062 35.8271 47.1406C35.8336 47.3532 35.7748 47.5004 35.5393 47.5004H33.9778L33.9777 47.5003Z" fill="#5A5758"/>
<path d="M37.9105 47.4528H37.1927C36.8984 47.4528 36.7087 47.5592 36.7087 47.9483C36.7087 48.2066 36.797 48.29 37.075 48.29C37.3284 48.29 37.6865 48.1412 37.9105 48.012V47.4528ZM37.9465 48.4306C37.6522 48.6546 37.2565 48.8132 36.8625 48.8132C36.2379 48.8132 36.0563 48.4715 36.0563 47.9777C36.0498 47.2877 36.421 46.9933 37.1633 46.9933H37.9171V46.8413C37.9171 46.4881 37.7863 46.3638 37.3039 46.3638C37.1093 46.3638 36.7382 46.3933 36.5027 46.4162C36.385 46.4342 36.3555 46.4279 36.3392 46.3459L36.2853 46.1285C36.2735 46.0515 36.2919 46.0042 36.421 45.9519C36.6745 45.8636 37.1389 45.8228 37.4168 45.8228C38.4355 45.8228 38.5581 46.2398 38.5581 46.9003V48.0367C38.5581 48.277 38.5875 48.2835 38.7707 48.3064C38.859 48.313 38.8819 48.3309 38.8819 48.3947V48.6433C38.8819 48.7071 38.841 48.7479 38.7412 48.7658C38.6464 48.7839 38.5532 48.7953 38.4649 48.7953C38.1869 48.7953 38.0169 48.7135 37.958 48.4372L37.9463 48.4307L37.9465 48.4306Z" fill="#5A5758"/>
<path d="M41.4484 48.7661H41.0249C40.9479 48.7661 40.912 48.7301 40.912 48.6549L40.9185 47.0002C40.9185 46.6519 40.8368 46.423 40.4951 46.423C40.2596 46.423 39.8475 46.6111 39.6873 46.6879V48.6549C39.6873 48.7253 39.6579 48.7661 39.5761 48.7661H39.1575C39.0758 48.7661 39.0464 48.7301 39.0464 48.6549V45.9979C39.0464 45.9226 39.0758 45.8817 39.1575 45.8817H39.5761C39.6579 45.8817 39.6873 45.9225 39.6873 45.9979V46.1761C39.6938 46.1761 39.7004 46.1813 39.7054 46.1813C39.9228 46.0293 40.3348 45.8281 40.6946 45.8281C41.4892 45.8281 41.5612 46.353 41.5612 46.9466V48.6552C41.5612 48.7256 41.5366 48.7664 41.4483 48.7664" fill="#5A5758"/>
<path d="M21.429 51.0288C21.7168 51.0288 22.1943 51.0696 22.5066 51.1989C22.6014 51.2414 22.6357 51.2888 22.6177 51.3819L22.5654 51.624C22.5474 51.6944 22.5181 51.7237 22.4117 51.7122C22.124 51.6763 21.7708 51.6355 21.465 51.6355C20.6638 51.6355 20.5461 52.2829 20.5461 53.0482C20.5461 53.8199 20.6933 54.4266 21.465 54.4266C21.8051 54.4266 22.0945 54.3906 22.4117 54.3497C22.5246 54.3379 22.5474 54.3677 22.572 54.4445L22.6177 54.6685C22.6422 54.7617 22.6125 54.8156 22.518 54.8565C22.2302 54.979 21.7168 55.0331 21.429 55.0331C20.116 55.0331 19.8397 54.0619 19.8397 53.0596C19.8397 52.054 20.0866 51.0288 21.429 51.0288" fill="#5A5758"/>
<path d="M23.9543 52.6004C23.454 52.6004 23.3411 52.9192 23.3411 53.5307C23.3411 54.1553 23.454 54.4611 23.9477 54.4611C24.484 54.4611 24.5903 54.1603 24.5903 53.5307C24.5903 52.9061 24.4905 52.6004 23.9543 52.6004ZM23.9477 55.0269C22.7656 55.0269 22.6887 54.1603 22.6887 53.4899C22.6887 52.9356 22.8113 52.0347 23.9477 52.0347C25.0907 52.0347 25.2493 52.795 25.2493 53.4899C25.2493 54.1603 25.1675 55.0269 23.9477 55.0269Z" fill="#5A5758"/>
<path d="M29.7001 54.9793H29.2766C29.1933 54.9793 29.1637 54.9433 29.1637 54.8681V53.1954C29.1637 52.7588 29.0591 52.6362 28.7632 52.6362C28.5457 52.6362 28.1925 52.8063 28.011 52.9011C28.011 52.96 28.0162 53.0662 28.0162 53.2003V54.8681C28.0162 54.9385 27.9934 54.9793 27.9051 54.9793H27.475C27.3982 54.9793 27.3752 54.9433 27.3752 54.8681V53.1659C27.3752 52.8062 27.2804 52.6362 26.9861 52.6362C26.7801 52.6362 26.4498 52.7834 26.2258 52.9011V54.8681C26.2258 54.9385 26.1963 54.9793 26.1146 54.9793H25.6911C25.6142 54.9793 25.5847 54.9433 25.5847 54.8681V52.2111C25.5847 52.1359 25.6142 52.0949 25.6911 52.0949H26.108C26.1963 52.0949 26.2258 52.1407 26.2258 52.2111V52.3827L26.2323 52.3893C26.4612 52.229 26.785 52.0525 27.1104 52.041C27.4505 52.041 27.7333 52.1114 27.9164 52.4531C28.2108 52.2356 28.5754 52.041 28.9531 52.041C29.7298 52.041 29.8066 52.5479 29.8066 53.1366V54.8681C29.8066 54.9385 29.782 54.9793 29.7003 54.9793" fill="#5A5758"/>
<path d="M34.315 54.9793H33.8915C33.8082 54.9793 33.7786 54.9433 33.7786 54.8681V53.1954C33.7786 52.7588 33.6739 52.6362 33.378 52.6362C33.1605 52.6362 32.8073 52.8063 32.6258 52.9011C32.6258 52.96 32.6311 53.0662 32.6311 53.2003V54.8681C32.6311 54.9385 32.6082 54.9793 32.5199 54.9793H32.0899C32.0131 54.9793 31.9901 54.9433 31.9901 54.8681V53.1659C31.9901 52.8062 31.8952 52.6362 31.6009 52.6362C31.3949 52.6362 31.0646 52.7834 30.8406 52.9011V54.8681C30.8406 54.9385 30.8112 54.9793 30.7294 54.9793H30.306C30.229 54.9793 30.1996 54.9433 30.1996 54.8681V52.2111C30.1996 52.1359 30.229 52.0949 30.306 52.0949H30.7229C30.8112 52.0949 30.8406 52.1407 30.8406 52.2111V52.3827L30.8471 52.3893C31.0761 52.229 31.3998 52.0525 31.7252 52.041C32.0653 52.041 32.3481 52.1114 32.5313 52.4531C32.8256 52.2356 33.1902 52.041 33.5679 52.041C34.3446 52.041 34.4214 52.5479 34.4214 53.1366V54.8681C34.4214 54.9385 34.3968 54.9793 34.3151 54.9793" fill="#5A5758"/>
<path d="M35.5442 54.8679C35.5442 54.9317 35.5213 54.979 35.4379 54.979H35.0193C34.9376 54.979 34.9016 54.9446 34.9016 54.8679V52.2059C34.9016 52.1241 34.9376 52.0948 35.0193 52.0948H35.4379C35.5213 52.0948 35.5442 52.1421 35.5442 52.2059V54.8679ZM35.2319 51.6712C34.9262 51.6712 34.8853 51.4996 34.8853 51.3295C34.8853 51.1415 34.9491 50.9927 35.2319 50.9927C35.5213 50.9927 35.5802 51.1284 35.5802 51.3295C35.5802 51.511 35.5263 51.6712 35.2319 51.6712Z" fill="#5A5758"/>
<path d="M37.004 55.0266C36.7097 55.0266 36.3157 54.9858 36.0916 54.8975C35.9739 54.8501 35.9494 54.7961 35.9674 54.7029L36.0082 54.5083C36.0263 54.4135 36.0671 54.4086 36.1619 54.42C36.4202 54.4608 36.7979 54.4904 36.9974 54.4904C37.3751 54.4904 37.5288 54.3906 37.5288 54.1552C37.5288 53.8838 37.4274 53.8249 37.0563 53.7726C36.4791 53.6892 35.9738 53.5666 35.9738 52.924C35.9738 52.3419 36.4202 52.0361 37.0808 52.0361C37.3212 52.0361 37.7283 52.0705 37.9752 52.1652C38.075 52.206 38.1174 52.2535 38.0994 52.3418L38.0521 52.5528C38.034 52.6362 37.9998 52.6476 37.8935 52.6362C37.6401 52.6068 37.3098 52.5708 37.0923 52.5708C36.7163 52.5708 36.628 52.677 36.628 52.9011C36.628 53.13 36.7686 53.1594 37.1283 53.2183C37.6875 53.3016 38.1927 53.4129 38.1927 54.1143C38.1927 54.8027 37.6106 55.0267 37.004 55.0267" fill="#5A5758"/>
<path d="M39.4704 55.0266C39.1761 55.0266 38.782 54.9858 38.558 54.8975C38.4403 54.8501 38.4158 54.7961 38.4337 54.7029L38.4746 54.5083C38.4926 54.4135 38.5334 54.4086 38.6283 54.42C38.8866 54.4608 39.2643 54.4904 39.4638 54.4904C39.8415 54.4904 39.9952 54.3906 39.9952 54.1552C39.9952 53.8838 39.8938 53.8249 39.5226 53.7726C38.9455 53.6892 38.4402 53.5666 38.4402 52.924C38.4402 52.3419 38.8866 52.0361 39.5472 52.0361C39.7875 52.0361 40.1946 52.0705 40.4415 52.1652C40.5413 52.206 40.5838 52.2535 40.5658 52.3418L40.5185 52.5528C40.5005 52.6362 40.4661 52.6476 40.3599 52.6362C40.1064 52.6068 39.7762 52.5708 39.5587 52.5708C39.1826 52.5708 39.0943 52.677 39.0943 52.9011C39.0943 53.13 39.2349 53.1594 39.5947 53.2183C40.1539 53.3016 40.6591 53.4129 40.6591 54.1143C40.6591 54.8027 40.077 55.0267 39.4704 55.0267" fill="#5A5758"/>
<path d="M41.6956 54.8679C41.6956 54.9317 41.6727 54.979 41.5892 54.979H41.1706C41.0889 54.979 41.0529 54.9446 41.0529 54.8679V52.2059C41.0529 52.1241 41.0889 52.0948 41.1706 52.0948H41.5892C41.6727 52.0948 41.6956 52.1421 41.6956 52.2059V54.8679ZM41.3833 51.6712C41.0775 51.6712 41.0366 51.4996 41.0366 51.3295C41.0366 51.1415 41.1005 50.9927 41.3833 50.9927C41.6727 50.9927 41.7315 51.1284 41.7315 51.3295C41.7315 51.511 41.6777 51.6712 41.3833 51.6712Z" fill="#5A5758"/>
<path d="M43.3967 52.6004C42.8964 52.6004 42.7852 52.9192 42.7852 53.5307C42.7852 54.1553 42.8964 54.4611 43.3902 54.4611C43.9265 54.4611 44.0328 54.1603 44.0328 53.5307C44.0328 52.9061 43.933 52.6004 43.3967 52.6004ZM43.3902 55.0269C42.208 55.0269 42.1312 54.1603 42.1312 53.4899C42.1312 52.9356 42.2537 52.0347 43.3902 52.0347C44.5331 52.0347 44.6917 52.795 44.6917 53.4899C44.6917 54.1603 44.61 55.0269 43.3902 55.0269Z" fill="#5A5758"/>
<path d="M47.4116 54.9795H46.9882C46.9113 54.9795 46.8753 54.9435 46.8753 54.8683L46.8818 53.2135C46.8818 52.8653 46.8001 52.6364 46.4583 52.6364C46.2229 52.6364 45.8109 52.8244 45.6506 52.9013V54.8683C45.6506 54.9386 45.6212 54.9795 45.5395 54.9795H45.1209C45.0391 54.9795 45.0097 54.9435 45.0097 54.8683V52.2112C45.0097 52.136 45.0391 52.0951 45.1209 52.0951H45.5395C45.6212 52.0951 45.6506 52.1359 45.6506 52.2112V52.3894C45.6572 52.3894 45.6624 52.3947 45.6687 52.3947C45.8861 52.2426 46.2998 52.0415 46.6579 52.0415C47.4525 52.0415 47.5245 52.5664 47.5245 53.16V54.8686C47.5245 54.939 47.5 54.9798 47.4116 54.9798" fill="#5A5758"/>
</g>
<defs>
<clipPath id="clip0">
<rect width="86.6536" height="60" fill="white"/>
</clipPath>
</defs>
</svg>
