<svg width="322" height="92" viewBox="0 0 322 92" fill="none" xmlns="http://www.w3.org/2000/svg">
<path opacity="0.54" fill-rule="evenodd" clip-rule="evenodd" d="M1 2C1.55228 2 2 1.55228 2 1C2 0.447715 1.55228 0 1 0C0.447715 0 0 0.447715 0 1C0 1.55228 0.447715 2 1 2ZM11 2C11.5523 2 12 1.55228 12 1C12 0.447715 11.5523 0 11 0C10.4477 0 10 0.447715 10 1C10 1.55228 10.4477 2 11 2ZM22 1C22 1.55228 21.5523 2 21 2C20.4477 2 20 1.55228 20 1C20 0.447715 20.4477 0 21 0C21.5523 0 22 0.447715 22 1ZM31 2C31.5523 2 32 1.55228 32 1C32 0.447715 31.5523 0 31 0C30.4477 0 30 0.447715 30 1C30 1.55228 30.4477 2 31 2ZM42 1C42 1.55228 41.5523 2 41 2C40.4477 2 40 1.55228 40 1C40 0.447715 40.4477 0 41 0C41.5523 0 42 0.447715 42 1ZM51 2C51.5523 2 52 1.55228 52 1C52 0.447715 51.5523 0 51 0C50.4477 0 50 0.447715 50 1C50 1.55228 50.4477 2 51 2ZM62 1C62 1.55228 61.5523 2 61 2C60.4477 2 60 1.55228 60 1C60 0.447715 60.4477 0 61 0C61.5523 0 62 0.447715 62 1ZM71 2C71.5523 2 72 1.55228 72 1C72 0.447715 71.5523 0 71 0C70.4477 0 70 0.447715 70 1C70 1.55228 70.4477 2 71 2ZM82 1C82 1.55228 81.5523 2 81 2C80.4477 2 80 1.55228 80 1C80 0.447715 80.4477 0 81 0C81.5523 0 82 0.447715 82 1ZM91 2C91.5523 2 92 1.55228 92 1C92 0.447715 91.5523 0 91 0C90.4477 0 90 0.447715 90 1C90 1.55228 90.4477 2 91 2ZM102 1C102 1.55228 101.552 2 101 2C100.448 2 100 1.55228 100 1C100 0.447715 100.448 0 101 0C101.552 0 102 0.447715 102 1ZM1 12C1.55228 12 2 11.5523 2 11C2 10.4477 1.55228 10 1 10C0.447715 10 0 10.4477 0 11C0 11.5523 0.447715 12 1 12ZM11 12C11.5523 12 12 11.5523 12 11C12 10.4477 11.5523 10 11 10C10.4477 10 10 10.4477 10 11C10 11.5523 10.4477 12 11 12ZM22 11C22 11.5523 21.5523 12 21 12C20.4477 12 20 11.5523 20 11C20 10.4477 20.4477 10 21 10C21.5523 10 22 10.4477 22 11ZM31 12C31.5523 12 32 11.5523 32 11C32 10.4477 31.5523 10 31 10C30.4477 10 30 10.4477 30 11C30 11.5523 30.4477 12 31 12ZM42 11C42 11.5523 41.5523 12 41 12C40.4477 12 40 11.5523 40 11C40 10.4477 40.4477 10 41 10C41.5523 10 42 10.4477 42 11ZM51 12C51.5523 12 52 11.5523 52 11C52 10.4477 51.5523 10 51 10C50.4477 10 50 10.4477 50 11C50 11.5523 50.4477 12 51 12ZM62 11C62 11.5523 61.5523 12 61 12C60.4477 12 60 11.5523 60 11C60 10.4477 60.4477 10 61 10C61.5523 10 62 10.4477 62 11ZM71 12C71.5523 12 72 11.5523 72 11C72 10.4477 71.5523 10 71 10C70.4477 10 70 10.4477 70 11C70 11.5523 70.4477 12 71 12ZM82 11C82 11.5523 81.5523 12 81 12C80.4477 12 80 11.5523 80 11C80 10.4477 80.4477 10 81 10C81.5523 10 82 10.4477 82 11ZM91 12C91.5523 12 92 11.5523 92 11C92 10.4477 91.5523 10 91 10C90.4477 10 90 10.4477 90 11C90 11.5523 90.4477 12 91 12ZM102 11C102 11.5523 101.552 12 101 12C100.448 12 100 11.5523 100 11C100 10.4477 100.448 10 101 10C101.552 10 102 10.4477 102 11ZM2 21C2 21.5523 1.55228 22 1 22C0.447715 22 0 21.5523 0 21C0 20.4477 0.447715 20 1 20C1.55228 20 2 20.4477 2 21ZM12 21C12 21.5523 11.5523 22 11 22C10.4477 22 10 21.5523 10 21C10 20.4477 10.4477 20 11 20C11.5523 20 12 20.4477 12 21ZM21 22C21.5523 22 22 21.5523 22 21C22 20.4477 21.5523 20 21 20C20.4477 20 20 20.4477 20 21C20 21.5523 20.4477 22 21 22ZM32 21C32 21.5523 31.5523 22 31 22C30.4477 22 30 21.5523 30 21C30 20.4477 30.4477 20 31 20C31.5523 20 32 20.4477 32 21ZM41 22C41.5523 22 42 21.5523 42 21C42 20.4477 41.5523 20 41 20C40.4477 20 40 20.4477 40 21C40 21.5523 40.4477 22 41 22ZM52 21C52 21.5523 51.5523 22 51 22C50.4477 22 50 21.5523 50 21C50 20.4477 50.4477 20 51 20C51.5523 20 52 20.4477 52 21ZM61 22C61.5523 22 62 21.5523 62 21C62 20.4477 61.5523 20 61 20C60.4477 20 60 20.4477 60 21C60 21.5523 60.4477 22 61 22ZM72 21C72 21.5523 71.5523 22 71 22C70.4477 22 70 21.5523 70 21C70 20.4477 70.4477 20 71 20C71.5523 20 72 20.4477 72 21ZM81 22C81.5523 22 82 21.5523 82 21C82 20.4477 81.5523 20 81 20C80.4477 20 80 20.4477 80 21C80 21.5523 80.4477 22 81 22ZM92 21C92 21.5523 91.5523 22 91 22C90.4477 22 90 21.5523 90 21C90 20.4477 90.4477 20 91 20C91.5523 20 92 20.4477 92 21ZM101 22C101.552 22 102 21.5523 102 21C102 20.4477 101.552 20 101 20C100.448 20 100 20.4477 100 21C100 21.5523 100.448 22 101 22ZM1 32C1.55228 32 2 31.5523 2 31C2 30.4477 1.55228 30 1 30C0.447715 30 0 30.4477 0 31C0 31.5523 0.447715 32 1 32ZM11 32C11.5523 32 12 31.5523 12 31C12 30.4477 11.5523 30 11 30C10.4477 30 10 30.4477 10 31C10 31.5523 10.4477 32 11 32ZM22 31C22 31.5523 21.5523 32 21 32C20.4477 32 20 31.5523 20 31C20 30.4477 20.4477 30 21 30C21.5523 30 22 30.4477 22 31ZM31 32C31.5523 32 32 31.5523 32 31C32 30.4477 31.5523 30 31 30C30.4477 30 30 30.4477 30 31C30 31.5523 30.4477 32 31 32ZM42 31C42 31.5523 41.5523 32 41 32C40.4477 32 40 31.5523 40 31C40 30.4477 40.4477 30 41 30C41.5523 30 42 30.4477 42 31ZM51 32C51.5523 32 52 31.5523 52 31C52 30.4477 51.5523 30 51 30C50.4477 30 50 30.4477 50 31C50 31.5523 50.4477 32 51 32ZM62 31C62 31.5523 61.5523 32 61 32C60.4477 32 60 31.5523 60 31C60 30.4477 60.4477 30 61 30C61.5523 30 62 30.4477 62 31ZM71 32C71.5523 32 72 31.5523 72 31C72 30.4477 71.5523 30 71 30C70.4477 30 70 30.4477 70 31C70 31.5523 70.4477 32 71 32ZM82 31C82 31.5523 81.5523 32 81 32C80.4477 32 80 31.5523 80 31C80 30.4477 80.4477 30 81 30C81.5523 30 82 30.4477 82 31ZM91 32C91.5523 32 92 31.5523 92 31C92 30.4477 91.5523 30 91 30C90.4477 30 90 30.4477 90 31C90 31.5523 90.4477 32 91 32ZM102 31C102 31.5523 101.552 32 101 32C100.448 32 100 31.5523 100 31C100 30.4477 100.448 30 101 30C101.552 30 102 30.4477 102 31ZM2 41C2 41.5523 1.55228 42 1 42C0.447715 42 0 41.5523 0 41C0 40.4477 0.447715 40 1 40C1.55228 40 2 40.4477 2 41ZM12 41C12 41.5523 11.5523 42 11 42C10.4477 42 10 41.5523 10 41C10 40.4477 10.4477 40 11 40C11.5523 40 12 40.4477 12 41ZM21 42C21.5523 42 22 41.5523 22 41C22 40.4477 21.5523 40 21 40C20.4477 40 20 40.4477 20 41C20 41.5523 20.4477 42 21 42ZM32 41C32 41.5523 31.5523 42 31 42C30.4477 42 30 41.5523 30 41C30 40.4477 30.4477 40 31 40C31.5523 40 32 40.4477 32 41ZM41 42C41.5523 42 42 41.5523 42 41C42 40.4477 41.5523 40 41 40C40.4477 40 40 40.4477 40 41C40 41.5523 40.4477 42 41 42ZM52 41C52 41.5523 51.5523 42 51 42C50.4477 42 50 41.5523 50 41C50 40.4477 50.4477 40 51 40C51.5523 40 52 40.4477 52 41ZM61 42C61.5523 42 62 41.5523 62 41C62 40.4477 61.5523 40 61 40C60.4477 40 60 40.4477 60 41C60 41.5523 60.4477 42 61 42ZM72 41C72 41.5523 71.5523 42 71 42C70.4477 42 70 41.5523 70 41C70 40.4477 70.4477 40 71 40C71.5523 40 72 40.4477 72 41ZM81 42C81.5523 42 82 41.5523 82 41C82 40.4477 81.5523 40 81 40C80.4477 40 80 40.4477 80 41C80 41.5523 80.4477 42 81 42ZM92 41C92 41.5523 91.5523 42 91 42C90.4477 42 90 41.5523 90 41C90 40.4477 90.4477 40 91 40C91.5523 40 92 40.4477 92 41ZM101 42C101.552 42 102 41.5523 102 41C102 40.4477 101.552 40 101 40C100.448 40 100 40.4477 100 41C100 41.5523 100.448 42 101 42ZM1 52C1.55228 52 2 51.5523 2 51C2 50.4477 1.55228 50 1 50C0.447715 50 0 50.4477 0 51C0 51.5523 0.447715 52 1 52ZM11 52C11.5523 52 12 51.5523 12 51C12 50.4477 11.5523 50 11 50C10.4477 50 10 50.4477 10 51C10 51.5523 10.4477 52 11 52ZM22 51C22 51.5523 21.5523 52 21 52C20.4477 52 20 51.5523 20 51C20 50.4477 20.4477 50 21 50C21.5523 50 22 50.4477 22 51ZM31 52C31.5523 52 32 51.5523 32 51C32 50.4477 31.5523 50 31 50C30.4477 50 30 50.4477 30 51C30 51.5523 30.4477 52 31 52ZM42 51C42 51.5523 41.5523 52 41 52C40.4477 52 40 51.5523 40 51C40 50.4477 40.4477 50 41 50C41.5523 50 42 50.4477 42 51ZM51 52C51.5523 52 52 51.5523 52 51C52 50.4477 51.5523 50 51 50C50.4477 50 50 50.4477 50 51C50 51.5523 50.4477 52 51 52ZM62 51C62 51.5523 61.5523 52 61 52C60.4477 52 60 51.5523 60 51C60 50.4477 60.4477 50 61 50C61.5523 50 62 50.4477 62 51ZM71 52C71.5523 52 72 51.5523 72 51C72 50.4477 71.5523 50 71 50C70.4477 50 70 50.4477 70 51C70 51.5523 70.4477 52 71 52ZM82 51C82 51.5523 81.5523 52 81 52C80.4477 52 80 51.5523 80 51C80 50.4477 80.4477 50 81 50C81.5523 50 82 50.4477 82 51ZM91 52C91.5523 52 92 51.5523 92 51C92 50.4477 91.5523 50 91 50C90.4477 50 90 50.4477 90 51C90 51.5523 90.4477 52 91 52ZM102 51C102 51.5523 101.552 52 101 52C100.448 52 100 51.5523 100 51C100 50.4477 100.448 50 101 50C101.552 50 102 50.4477 102 51ZM2 61C2 61.5523 1.55228 62 1 62C0.447715 62 0 61.5523 0 61C0 60.4477 0.447715 60 1 60C1.55228 60 2 60.4477 2 61ZM12 61C12 61.5523 11.5523 62 11 62C10.4477 62 10 61.5523 10 61C10 60.4477 10.4477 60 11 60C11.5523 60 12 60.4477 12 61ZM21 62C21.5523 62 22 61.5523 22 61C22 60.4477 21.5523 60 21 60C20.4477 60 20 60.4477 20 61C20 61.5523 20.4477 62 21 62ZM32 61C32 61.5523 31.5523 62 31 62C30.4477 62 30 61.5523 30 61C30 60.4477 30.4477 60 31 60C31.5523 60 32 60.4477 32 61ZM41 62C41.5523 62 42 61.5523 42 61C42 60.4477 41.5523 60 41 60C40.4477 60 40 60.4477 40 61C40 61.5523 40.4477 62 41 62ZM52 61C52 61.5523 51.5523 62 51 62C50.4477 62 50 61.5523 50 61C50 60.4477 50.4477 60 51 60C51.5523 60 52 60.4477 52 61ZM61 62C61.5523 62 62 61.5523 62 61C62 60.4477 61.5523 60 61 60C60.4477 60 60 60.4477 60 61C60 61.5523 60.4477 62 61 62ZM72 61C72 61.5523 71.5523 62 71 62C70.4477 62 70 61.5523 70 61C70 60.4477 70.4477 60 71 60C71.5523 60 72 60.4477 72 61ZM81 62C81.5523 62 82 61.5523 82 61C82 60.4477 81.5523 60 81 60C80.4477 60 80 60.4477 80 61C80 61.5523 80.4477 62 81 62ZM92 61C92 61.5523 91.5523 62 91 62C90.4477 62 90 61.5523 90 61C90 60.4477 90.4477 60 91 60C91.5523 60 92 60.4477 92 61ZM101 62C101.552 62 102 61.5523 102 61C102 60.4477 101.552 60 101 60C100.448 60 100 60.4477 100 61C100 61.5523 100.448 62 101 62ZM1 72C1.55228 72 2 71.5523 2 71C2 70.4477 1.55228 70 1 70C0.447715 70 0 70.4477 0 71C0 71.5523 0.447715 72 1 72ZM11 72C11.5523 72 12 71.5523 12 71C12 70.4477 11.5523 70 11 70C10.4477 70 10 70.4477 10 71C10 71.5523 10.4477 72 11 72ZM22 71C22 71.5523 21.5523 72 21 72C20.4477 72 20 71.5523 20 71C20 70.4477 20.4477 70 21 70C21.5523 70 22 70.4477 22 71ZM31 72C31.5523 72 32 71.5523 32 71C32 70.4477 31.5523 70 31 70C30.4477 70 30 70.4477 30 71C30 71.5523 30.4477 72 31 72ZM42 71C42 71.5523 41.5523 72 41 72C40.4477 72 40 71.5523 40 71C40 70.4477 40.4477 70 41 70C41.5523 70 42 70.4477 42 71ZM51 72C51.5523 72 52 71.5523 52 71C52 70.4477 51.5523 70 51 70C50.4477 70 50 70.4477 50 71C50 71.5523 50.4477 72 51 72ZM62 71C62 71.5523 61.5523 72 61 72C60.4477 72 60 71.5523 60 71C60 70.4477 60.4477 70 61 70C61.5523 70 62 70.4477 62 71ZM71 72C71.5523 72 72 71.5523 72 71C72 70.4477 71.5523 70 71 70C70.4477 70 70 70.4477 70 71C70 71.5523 70.4477 72 71 72ZM82 71C82 71.5523 81.5523 72 81 72C80.4477 72 80 71.5523 80 71C80 70.4477 80.4477 70 81 70C81.5523 70 82 70.4477 82 71ZM91 72C91.5523 72 92 71.5523 92 71C92 70.4477 91.5523 70 91 70C90.4477 70 90 70.4477 90 71C90 71.5523 90.4477 72 91 72ZM102 71C102 71.5523 101.552 72 101 72C100.448 72 100 71.5523 100 71C100 70.4477 100.448 70 101 70C101.552 70 102 70.4477 102 71ZM2 81C2 81.5523 1.55228 82 1 82C0.447715 82 0 81.5523 0 81C0 80.4477 0.447715 80 1 80C1.55228 80 2 80.4477 2 81ZM12 81C12 81.5523 11.5523 82 11 82C10.4477 82 10 81.5523 10 81C10 80.4477 10.4477 80 11 80C11.5523 80 12 80.4477 12 81ZM21 82C21.5523 82 22 81.5523 22 81C22 80.4477 21.5523 80 21 80C20.4477 80 20 80.4477 20 81C20 81.5523 20.4477 82 21 82ZM32 81C32 81.5523 31.5523 82 31 82C30.4477 82 30 81.5523 30 81C30 80.4477 30.4477 80 31 80C31.5523 80 32 80.4477 32 81ZM41 82C41.5523 82 42 81.5523 42 81C42 80.4477 41.5523 80 41 80C40.4477 80 40 80.4477 40 81C40 81.5523 40.4477 82 41 82ZM52 81C52 81.5523 51.5523 82 51 82C50.4477 82 50 81.5523 50 81C50 80.4477 50.4477 80 51 80C51.5523 80 52 80.4477 52 81ZM61 82C61.5523 82 62 81.5523 62 81C62 80.4477 61.5523 80 61 80C60.4477 80 60 80.4477 60 81C60 81.5523 60.4477 82 61 82ZM72 81C72 81.5523 71.5523 82 71 82C70.4477 82 70 81.5523 70 81C70 80.4477 70.4477 80 71 80C71.5523 80 72 80.4477 72 81ZM81 82C81.5523 82 82 81.5523 82 81C82 80.4477 81.5523 80 81 80C80.4477 80 80 80.4477 80 81C80 81.5523 80.4477 82 81 82ZM92 81C92 81.5523 91.5523 82 91 82C90.4477 82 90 81.5523 90 81C90 80.4477 90.4477 80 91 80C91.5523 80 92 80.4477 92 81ZM101 82C101.552 82 102 81.5523 102 81C102 80.4477 101.552 80 101 80C100.448 80 100 80.4477 100 81C100 81.5523 100.448 82 101 82ZM1 92C1.55228 92 2 91.5523 2 91C2 90.4477 1.55228 90 1 90C0.447715 90 0 90.4477 0 91C0 91.5523 0.447715 92 1 92ZM11 92C11.5523 92 12 91.5523 12 91C12 90.4477 11.5523 90 11 90C10.4477 90 10 90.4477 10 91C10 91.5523 10.4477 92 11 92ZM22 91C22 91.5523 21.5523 92 21 92C20.4477 92 20 91.5523 20 91C20 90.4477 20.4477 90 21 90C21.5523 90 22 90.4477 22 91ZM31 92C31.5523 92 32 91.5523 32 91C32 90.4477 31.5523 90 31 90C30.4477 90 30 90.4477 30 91C30 91.5523 30.4477 92 31 92ZM42 91C42 91.5523 41.5523 92 41 92C40.4477 92 40 91.5523 40 91C40 90.4477 40.4477 90 41 90C41.5523 90 42 90.4477 42 91ZM51 92C51.5523 92 52 91.5523 52 91C52 90.4477 51.5523 90 51 90C50.4477 90 50 90.4477 50 91C50 91.5523 50.4477 92 51 92ZM62 91C62 91.5523 61.5523 92 61 92C60.4477 92 60 91.5523 60 91C60 90.4477 60.4477 90 61 90C61.5523 90 62 90.4477 62 91ZM71 92C71.5523 92 72 91.5523 72 91C72 90.4477 71.5523 90 71 90C70.4477 90 70 90.4477 70 91C70 91.5523 70.4477 92 71 92ZM82 91C82 91.5523 81.5523 92 81 92C80.4477 92 80 91.5523 80 91C80 90.4477 80.4477 90 81 90C81.5523 90 82 90.4477 82 91ZM91 92C91.5523 92 92 91.5523 92 91C92 90.4477 91.5523 90 91 90C90.4477 90 90 90.4477 90 91C90 91.5523 90.4477 92 91 92ZM102 91C102 91.5523 101.552 92 101 92C100.448 92 100 91.5523 100 91C100 90.4477 100.448 90 101 90C101.552 90 102 90.4477 102 91ZM111 2C111.552 2 112 1.55228 112 1C112 0.447715 111.552 0 111 0C110.448 0 110 0.447715 110 1C110 1.55228 110.448 2 111 2ZM121 2C121.552 2 122 1.55228 122 1C122 0.447715 121.552 0 121 0C120.448 0 120 0.447715 120 1C120 1.55228 120.448 2 121 2ZM132 1C132 1.55228 131.552 2 131 2C130.448 2 130 1.55228 130 1C130 0.447715 130.448 0 131 0C131.552 0 132 0.447715 132 1ZM141 2C141.552 2 142 1.55228 142 1C142 0.447715 141.552 0 141 0C140.448 0 140 0.447715 140 1C140 1.55228 140.448 2 141 2ZM152 1C152 1.55228 151.552 2 151 2C150.448 2 150 1.55228 150 1C150 0.447715 150.448 0 151 0C151.552 0 152 0.447715 152 1ZM161 2C161.552 2 162 1.55228 162 1C162 0.447715 161.552 0 161 0C160.448 0 160 0.447715 160 1C160 1.55228 160.448 2 161 2ZM172 1C172 1.55228 171.552 2 171 2C170.448 2 170 1.55228 170 1C170 0.447715 170.448 0 171 0C171.552 0 172 0.447715 172 1ZM181 2C181.552 2 182 1.55228 182 1C182 0.447715 181.552 0 181 0C180.448 0 180 0.447715 180 1C180 1.55228 180.448 2 181 2ZM192 1C192 1.55228 191.552 2 191 2C190.448 2 190 1.55228 190 1C190 0.447715 190.448 0 191 0C191.552 0 192 0.447715 192 1ZM201 2C201.552 2 202 1.55228 202 1C202 0.447715 201.552 0 201 0C200.448 0 200 0.447715 200 1C200 1.55228 200.448 2 201 2ZM212 1C212 1.55228 211.552 2 211 2C210.448 2 210 1.55228 210 1C210 0.447715 210.448 0 211 0C211.552 0 212 0.447715 212 1ZM111 12C111.552 12 112 11.5523 112 11C112 10.4477 111.552 10 111 10C110.448 10 110 10.4477 110 11C110 11.5523 110.448 12 111 12ZM121 12C121.552 12 122 11.5523 122 11C122 10.4477 121.552 10 121 10C120.448 10 120 10.4477 120 11C120 11.5523 120.448 12 121 12ZM132 11C132 11.5523 131.552 12 131 12C130.448 12 130 11.5523 130 11C130 10.4477 130.448 10 131 10C131.552 10 132 10.4477 132 11ZM141 12C141.552 12 142 11.5523 142 11C142 10.4477 141.552 10 141 10C140.448 10 140 10.4477 140 11C140 11.5523 140.448 12 141 12ZM152 11C152 11.5523 151.552 12 151 12C150.448 12 150 11.5523 150 11C150 10.4477 150.448 10 151 10C151.552 10 152 10.4477 152 11ZM161 12C161.552 12 162 11.5523 162 11C162 10.4477 161.552 10 161 10C160.448 10 160 10.4477 160 11C160 11.5523 160.448 12 161 12ZM172 11C172 11.5523 171.552 12 171 12C170.448 12 170 11.5523 170 11C170 10.4477 170.448 10 171 10C171.552 10 172 10.4477 172 11ZM181 12C181.552 12 182 11.5523 182 11C182 10.4477 181.552 10 181 10C180.448 10 180 10.4477 180 11C180 11.5523 180.448 12 181 12ZM192 11C192 11.5523 191.552 12 191 12C190.448 12 190 11.5523 190 11C190 10.4477 190.448 10 191 10C191.552 10 192 10.4477 192 11ZM201 12C201.552 12 202 11.5523 202 11C202 10.4477 201.552 10 201 10C200.448 10 200 10.4477 200 11C200 11.5523 200.448 12 201 12ZM212 11C212 11.5523 211.552 12 211 12C210.448 12 210 11.5523 210 11C210 10.4477 210.448 10 211 10C211.552 10 212 10.4477 212 11ZM112 21C112 21.5523 111.552 22 111 22C110.448 22 110 21.5523 110 21C110 20.4477 110.448 20 111 20C111.552 20 112 20.4477 112 21ZM122 21C122 21.5523 121.552 22 121 22C120.448 22 120 21.5523 120 21C120 20.4477 120.448 20 121 20C121.552 20 122 20.4477 122 21ZM131 22C131.552 22 132 21.5523 132 21C132 20.4477 131.552 20 131 20C130.448 20 130 20.4477 130 21C130 21.5523 130.448 22 131 22ZM142 21C142 21.5523 141.552 22 141 22C140.448 22 140 21.5523 140 21C140 20.4477 140.448 20 141 20C141.552 20 142 20.4477 142 21ZM151 22C151.552 22 152 21.5523 152 21C152 20.4477 151.552 20 151 20C150.448 20 150 20.4477 150 21C150 21.5523 150.448 22 151 22ZM162 21C162 21.5523 161.552 22 161 22C160.448 22 160 21.5523 160 21C160 20.4477 160.448 20 161 20C161.552 20 162 20.4477 162 21ZM171 22C171.552 22 172 21.5523 172 21C172 20.4477 171.552 20 171 20C170.448 20 170 20.4477 170 21C170 21.5523 170.448 22 171 22ZM182 21C182 21.5523 181.552 22 181 22C180.448 22 180 21.5523 180 21C180 20.4477 180.448 20 181 20C181.552 20 182 20.4477 182 21ZM191 22C191.552 22 192 21.5523 192 21C192 20.4477 191.552 20 191 20C190.448 20 190 20.4477 190 21C190 21.5523 190.448 22 191 22ZM202 21C202 21.5523 201.552 22 201 22C200.448 22 200 21.5523 200 21C200 20.4477 200.448 20 201 20C201.552 20 202 20.4477 202 21ZM211 22C211.552 22 212 21.5523 212 21C212 20.4477 211.552 20 211 20C210.448 20 210 20.4477 210 21C210 21.5523 210.448 22 211 22ZM111 32C111.552 32 112 31.5523 112 31C112 30.4477 111.552 30 111 30C110.448 30 110 30.4477 110 31C110 31.5523 110.448 32 111 32ZM121 32C121.552 32 122 31.5523 122 31C122 30.4477 121.552 30 121 30C120.448 30 120 30.4477 120 31C120 31.5523 120.448 32 121 32ZM132 31C132 31.5523 131.552 32 131 32C130.448 32 130 31.5523 130 31C130 30.4477 130.448 30 131 30C131.552 30 132 30.4477 132 31ZM141 32C141.552 32 142 31.5523 142 31C142 30.4477 141.552 30 141 30C140.448 30 140 30.4477 140 31C140 31.5523 140.448 32 141 32ZM152 31C152 31.5523 151.552 32 151 32C150.448 32 150 31.5523 150 31C150 30.4477 150.448 30 151 30C151.552 30 152 30.4477 152 31ZM161 32C161.552 32 162 31.5523 162 31C162 30.4477 161.552 30 161 30C160.448 30 160 30.4477 160 31C160 31.5523 160.448 32 161 32ZM172 31C172 31.5523 171.552 32 171 32C170.448 32 170 31.5523 170 31C170 30.4477 170.448 30 171 30C171.552 30 172 30.4477 172 31ZM181 32C181.552 32 182 31.5523 182 31C182 30.4477 181.552 30 181 30C180.448 30 180 30.4477 180 31C180 31.5523 180.448 32 181 32ZM192 31C192 31.5523 191.552 32 191 32C190.448 32 190 31.5523 190 31C190 30.4477 190.448 30 191 30C191.552 30 192 30.4477 192 31ZM201 32C201.552 32 202 31.5523 202 31C202 30.4477 201.552 30 201 30C200.448 30 200 30.4477 200 31C200 31.5523 200.448 32 201 32ZM212 31C212 31.5523 211.552 32 211 32C210.448 32 210 31.5523 210 31C210 30.4477 210.448 30 211 30C211.552 30 212 30.4477 212 31ZM112 41C112 41.5523 111.552 42 111 42C110.448 42 110 41.5523 110 41C110 40.4477 110.448 40 111 40C111.552 40 112 40.4477 112 41ZM122 41C122 41.5523 121.552 42 121 42C120.448 42 120 41.5523 120 41C120 40.4477 120.448 40 121 40C121.552 40 122 40.4477 122 41ZM131 42C131.552 42 132 41.5523 132 41C132 40.4477 131.552 40 131 40C130.448 40 130 40.4477 130 41C130 41.5523 130.448 42 131 42ZM142 41C142 41.5523 141.552 42 141 42C140.448 42 140 41.5523 140 41C140 40.4477 140.448 40 141 40C141.552 40 142 40.4477 142 41ZM151 42C151.552 42 152 41.5523 152 41C152 40.4477 151.552 40 151 40C150.448 40 150 40.4477 150 41C150 41.5523 150.448 42 151 42ZM162 41C162 41.5523 161.552 42 161 42C160.448 42 160 41.5523 160 41C160 40.4477 160.448 40 161 40C161.552 40 162 40.4477 162 41ZM171 42C171.552 42 172 41.5523 172 41C172 40.4477 171.552 40 171 40C170.448 40 170 40.4477 170 41C170 41.5523 170.448 42 171 42ZM182 41C182 41.5523 181.552 42 181 42C180.448 42 180 41.5523 180 41C180 40.4477 180.448 40 181 40C181.552 40 182 40.4477 182 41ZM191 42C191.552 42 192 41.5523 192 41C192 40.4477 191.552 40 191 40C190.448 40 190 40.4477 190 41C190 41.5523 190.448 42 191 42ZM202 41C202 41.5523 201.552 42 201 42C200.448 42 200 41.5523 200 41C200 40.4477 200.448 40 201 40C201.552 40 202 40.4477 202 41ZM211 42C211.552 42 212 41.5523 212 41C212 40.4477 211.552 40 211 40C210.448 40 210 40.4477 210 41C210 41.5523 210.448 42 211 42ZM111 52C111.552 52 112 51.5523 112 51C112 50.4477 111.552 50 111 50C110.448 50 110 50.4477 110 51C110 51.5523 110.448 52 111 52ZM121 52C121.552 52 122 51.5523 122 51C122 50.4477 121.552 50 121 50C120.448 50 120 50.4477 120 51C120 51.5523 120.448 52 121 52ZM132 51C132 51.5523 131.552 52 131 52C130.448 52 130 51.5523 130 51C130 50.4477 130.448 50 131 50C131.552 50 132 50.4477 132 51ZM141 52C141.552 52 142 51.5523 142 51C142 50.4477 141.552 50 141 50C140.448 50 140 50.4477 140 51C140 51.5523 140.448 52 141 52ZM152 51C152 51.5523 151.552 52 151 52C150.448 52 150 51.5523 150 51C150 50.4477 150.448 50 151 50C151.552 50 152 50.4477 152 51ZM161 52C161.552 52 162 51.5523 162 51C162 50.4477 161.552 50 161 50C160.448 50 160 50.4477 160 51C160 51.5523 160.448 52 161 52ZM172 51C172 51.5523 171.552 52 171 52C170.448 52 170 51.5523 170 51C170 50.4477 170.448 50 171 50C171.552 50 172 50.4477 172 51ZM181 52C181.552 52 182 51.5523 182 51C182 50.4477 181.552 50 181 50C180.448 50 180 50.4477 180 51C180 51.5523 180.448 52 181 52ZM192 51C192 51.5523 191.552 52 191 52C190.448 52 190 51.5523 190 51C190 50.4477 190.448 50 191 50C191.552 50 192 50.4477 192 51ZM201 52C201.552 52 202 51.5523 202 51C202 50.4477 201.552 50 201 50C200.448 50 200 50.4477 200 51C200 51.5523 200.448 52 201 52ZM212 51C212 51.5523 211.552 52 211 52C210.448 52 210 51.5523 210 51C210 50.4477 210.448 50 211 50C211.552 50 212 50.4477 212 51ZM112 61C112 61.5523 111.552 62 111 62C110.448 62 110 61.5523 110 61C110 60.4477 110.448 60 111 60C111.552 60 112 60.4477 112 61ZM122 61C122 61.5523 121.552 62 121 62C120.448 62 120 61.5523 120 61C120 60.4477 120.448 60 121 60C121.552 60 122 60.4477 122 61ZM131 62C131.552 62 132 61.5523 132 61C132 60.4477 131.552 60 131 60C130.448 60 130 60.4477 130 61C130 61.5523 130.448 62 131 62ZM142 61C142 61.5523 141.552 62 141 62C140.448 62 140 61.5523 140 61C140 60.4477 140.448 60 141 60C141.552 60 142 60.4477 142 61ZM151 62C151.552 62 152 61.5523 152 61C152 60.4477 151.552 60 151 60C150.448 60 150 60.4477 150 61C150 61.5523 150.448 62 151 62ZM162 61C162 61.5523 161.552 62 161 62C160.448 62 160 61.5523 160 61C160 60.4477 160.448 60 161 60C161.552 60 162 60.4477 162 61ZM171 62C171.552 62 172 61.5523 172 61C172 60.4477 171.552 60 171 60C170.448 60 170 60.4477 170 61C170 61.5523 170.448 62 171 62ZM182 61C182 61.5523 181.552 62 181 62C180.448 62 180 61.5523 180 61C180 60.4477 180.448 60 181 60C181.552 60 182 60.4477 182 61ZM191 62C191.552 62 192 61.5523 192 61C192 60.4477 191.552 60 191 60C190.448 60 190 60.4477 190 61C190 61.5523 190.448 62 191 62ZM202 61C202 61.5523 201.552 62 201 62C200.448 62 200 61.5523 200 61C200 60.4477 200.448 60 201 60C201.552 60 202 60.4477 202 61ZM211 62C211.552 62 212 61.5523 212 61C212 60.4477 211.552 60 211 60C210.448 60 210 60.4477 210 61C210 61.5523 210.448 62 211 62ZM111 72C111.552 72 112 71.5523 112 71C112 70.4477 111.552 70 111 70C110.448 70 110 70.4477 110 71C110 71.5523 110.448 72 111 72ZM121 72C121.552 72 122 71.5523 122 71C122 70.4477 121.552 70 121 70C120.448 70 120 70.4477 120 71C120 71.5523 120.448 72 121 72ZM132 71C132 71.5523 131.552 72 131 72C130.448 72 130 71.5523 130 71C130 70.4477 130.448 70 131 70C131.552 70 132 70.4477 132 71ZM141 72C141.552 72 142 71.5523 142 71C142 70.4477 141.552 70 141 70C140.448 70 140 70.4477 140 71C140 71.5523 140.448 72 141 72ZM152 71C152 71.5523 151.552 72 151 72C150.448 72 150 71.5523 150 71C150 70.4477 150.448 70 151 70C151.552 70 152 70.4477 152 71ZM161 72C161.552 72 162 71.5523 162 71C162 70.4477 161.552 70 161 70C160.448 70 160 70.4477 160 71C160 71.5523 160.448 72 161 72ZM172 71C172 71.5523 171.552 72 171 72C170.448 72 170 71.5523 170 71C170 70.4477 170.448 70 171 70C171.552 70 172 70.4477 172 71ZM181 72C181.552 72 182 71.5523 182 71C182 70.4477 181.552 70 181 70C180.448 70 180 70.4477 180 71C180 71.5523 180.448 72 181 72ZM192 71C192 71.5523 191.552 72 191 72C190.448 72 190 71.5523 190 71C190 70.4477 190.448 70 191 70C191.552 70 192 70.4477 192 71ZM201 72C201.552 72 202 71.5523 202 71C202 70.4477 201.552 70 201 70C200.448 70 200 70.4477 200 71C200 71.5523 200.448 72 201 72ZM212 71C212 71.5523 211.552 72 211 72C210.448 72 210 71.5523 210 71C210 70.4477 210.448 70 211 70C211.552 70 212 70.4477 212 71ZM112 81C112 81.5523 111.552 82 111 82C110.448 82 110 81.5523 110 81C110 80.4477 110.448 80 111 80C111.552 80 112 80.4477 112 81ZM122 81C122 81.5523 121.552 82 121 82C120.448 82 120 81.5523 120 81C120 80.4477 120.448 80 121 80C121.552 80 122 80.4477 122 81ZM131 82C131.552 82 132 81.5523 132 81C132 80.4477 131.552 80 131 80C130.448 80 130 80.4477 130 81C130 81.5523 130.448 82 131 82ZM142 81C142 81.5523 141.552 82 141 82C140.448 82 140 81.5523 140 81C140 80.4477 140.448 80 141 80C141.552 80 142 80.4477 142 81ZM151 82C151.552 82 152 81.5523 152 81C152 80.4477 151.552 80 151 80C150.448 80 150 80.4477 150 81C150 81.5523 150.448 82 151 82ZM162 81C162 81.5523 161.552 82 161 82C160.448 82 160 81.5523 160 81C160 80.4477 160.448 80 161 80C161.552 80 162 80.4477 162 81ZM171 82C171.552 82 172 81.5523 172 81C172 80.4477 171.552 80 171 80C170.448 80 170 80.4477 170 81C170 81.5523 170.448 82 171 82ZM182 81C182 81.5523 181.552 82 181 82C180.448 82 180 81.5523 180 81C180 80.4477 180.448 80 181 80C181.552 80 182 80.4477 182 81ZM191 82C191.552 82 192 81.5523 192 81C192 80.4477 191.552 80 191 80C190.448 80 190 80.4477 190 81C190 81.5523 190.448 82 191 82ZM202 81C202 81.5523 201.552 82 201 82C200.448 82 200 81.5523 200 81C200 80.4477 200.448 80 201 80C201.552 80 202 80.4477 202 81ZM211 82C211.552 82 212 81.5523 212 81C212 80.4477 211.552 80 211 80C210.448 80 210 80.4477 210 81C210 81.5523 210.448 82 211 82ZM111 92C111.552 92 112 91.5523 112 91C112 90.4477 111.552 90 111 90C110.448 90 110 90.4477 110 91C110 91.5523 110.448 92 111 92ZM121 92C121.552 92 122 91.5523 122 91C122 90.4477 121.552 90 121 90C120.448 90 120 90.4477 120 91C120 91.5523 120.448 92 121 92ZM132 91C132 91.5523 131.552 92 131 92C130.448 92 130 91.5523 130 91C130 90.4477 130.448 90 131 90C131.552 90 132 90.4477 132 91ZM141 92C141.552 92 142 91.5523 142 91C142 90.4477 141.552 90 141 90C140.448 90 140 90.4477 140 91C140 91.5523 140.448 92 141 92ZM152 91C152 91.5523 151.552 92 151 92C150.448 92 150 91.5523 150 91C150 90.4477 150.448 90 151 90C151.552 90 152 90.4477 152 91ZM161 92C161.552 92 162 91.5523 162 91C162 90.4477 161.552 90 161 90C160.448 90 160 90.4477 160 91C160 91.5523 160.448 92 161 92ZM172 91C172 91.5523 171.552 92 171 92C170.448 92 170 91.5523 170 91C170 90.4477 170.448 90 171 90C171.552 90 172 90.4477 172 91ZM181 92C181.552 92 182 91.5523 182 91C182 90.4477 181.552 90 181 90C180.448 90 180 90.4477 180 91C180 91.5523 180.448 92 181 92ZM192 91C192 91.5523 191.552 92 191 92C190.448 92 190 91.5523 190 91C190 90.4477 190.448 90 191 90C191.552 90 192 90.4477 192 91ZM201 92C201.552 92 202 91.5523 202 91C202 90.4477 201.552 90 201 90C200.448 90 200 90.4477 200 91C200 91.5523 200.448 92 201 92ZM212 91C212 91.5523 211.552 92 211 92C210.448 92 210 91.5523 210 91C210 90.4477 210.448 90 211 90C211.552 90 212 90.4477 212 91ZM222 1C222 1.55228 221.552 2 221 2C220.448 2 220 1.55228 220 1C220 0.447715 220.448 0 221 0C221.552 0 222 0.447715 222 1ZM232 1C232 1.55228 231.552 2 231 2C230.448 2 230 1.55228 230 1C230 0.447715 230.448 0 231 0C231.552 0 232 0.447715 232 1ZM241 2C241.552 2 242 1.55228 242 1C242 0.447715 241.552 0 241 0C240.448 0 240 0.447715 240 1C240 1.55228 240.448 2 241 2ZM252 1C252 1.55228 251.552 2 251 2C250.448 2 250 1.55228 250 1C250 0.447715 250.448 0 251 0C251.552 0 252 0.447715 252 1ZM261 2C261.552 2 262 1.55228 262 1C262 0.447715 261.552 0 261 0C260.448 0 260 0.447715 260 1C260 1.55228 260.448 2 261 2ZM272 1C272 1.55228 271.552 2 271 2C270.448 2 270 1.55228 270 1C270 0.447715 270.448 0 271 0C271.552 0 272 0.447715 272 1ZM281 2C281.552 2 282 1.55228 282 1C282 0.447715 281.552 0 281 0C280.448 0 280 0.447715 280 1C280 1.55228 280.448 2 281 2ZM292 1C292 1.55228 291.552 2 291 2C290.448 2 290 1.55228 290 1C290 0.447715 290.448 0 291 0C291.552 0 292 0.447715 292 1ZM301 2C301.552 2 302 1.55228 302 1C302 0.447715 301.552 0 301 0C300.448 0 300 0.447715 300 1C300 1.55228 300.448 2 301 2ZM312 1C312 1.55228 311.552 2 311 2C310.448 2 310 1.55228 310 1C310 0.447715 310.448 0 311 0C311.552 0 312 0.447715 312 1ZM321 2C321.552 2 322 1.55228 322 1C322 0.447715 321.552 0 321 0C320.448 0 320 0.447715 320 1C320 1.55228 320.448 2 321 2ZM222 11C222 11.5523 221.552 12 221 12C220.448 12 220 11.5523 220 11C220 10.4477 220.448 10 221 10C221.552 10 222 10.4477 222 11ZM232 11C232 11.5523 231.552 12 231 12C230.448 12 230 11.5523 230 11C230 10.4477 230.448 10 231 10C231.552 10 232 10.4477 232 11ZM241 12C241.552 12 242 11.5523 242 11C242 10.4477 241.552 10 241 10C240.448 10 240 10.4477 240 11C240 11.5523 240.448 12 241 12ZM252 11C252 11.5523 251.552 12 251 12C250.448 12 250 11.5523 250 11C250 10.4477 250.448 10 251 10C251.552 10 252 10.4477 252 11ZM261 12C261.552 12 262 11.5523 262 11C262 10.4477 261.552 10 261 10C260.448 10 260 10.4477 260 11C260 11.5523 260.448 12 261 12ZM272 11C272 11.5523 271.552 12 271 12C270.448 12 270 11.5523 270 11C270 10.4477 270.448 10 271 10C271.552 10 272 10.4477 272 11ZM281 12C281.552 12 282 11.5523 282 11C282 10.4477 281.552 10 281 10C280.448 10 280 10.4477 280 11C280 11.5523 280.448 12 281 12ZM292 11C292 11.5523 291.552 12 291 12C290.448 12 290 11.5523 290 11C290 10.4477 290.448 10 291 10C291.552 10 292 10.4477 292 11ZM301 12C301.552 12 302 11.5523 302 11C302 10.4477 301.552 10 301 10C300.448 10 300 10.4477 300 11C300 11.5523 300.448 12 301 12ZM312 11C312 11.5523 311.552 12 311 12C310.448 12 310 11.5523 310 11C310 10.4477 310.448 10 311 10C311.552 10 312 10.4477 312 11ZM321 12C321.552 12 322 11.5523 322 11C322 10.4477 321.552 10 321 10C320.448 10 320 10.4477 320 11C320 11.5523 320.448 12 321 12ZM221 22C221.552 22 222 21.5523 222 21C222 20.4477 221.552 20 221 20C220.448 20 220 20.4477 220 21C220 21.5523 220.448 22 221 22ZM231 22C231.552 22 232 21.5523 232 21C232 20.4477 231.552 20 231 20C230.448 20 230 20.4477 230 21C230 21.5523 230.448 22 231 22ZM242 21C242 21.5523 241.552 22 241 22C240.448 22 240 21.5523 240 21C240 20.4477 240.448 20 241 20C241.552 20 242 20.4477 242 21ZM251 22C251.552 22 252 21.5523 252 21C252 20.4477 251.552 20 251 20C250.448 20 250 20.4477 250 21C250 21.5523 250.448 22 251 22ZM262 21C262 21.5523 261.552 22 261 22C260.448 22 260 21.5523 260 21C260 20.4477 260.448 20 261 20C261.552 20 262 20.4477 262 21ZM271 22C271.552 22 272 21.5523 272 21C272 20.4477 271.552 20 271 20C270.448 20 270 20.4477 270 21C270 21.5523 270.448 22 271 22ZM282 21C282 21.5523 281.552 22 281 22C280.448 22 280 21.5523 280 21C280 20.4477 280.448 20 281 20C281.552 20 282 20.4477 282 21ZM291 22C291.552 22 292 21.5523 292 21C292 20.4477 291.552 20 291 20C290.448 20 290 20.4477 290 21C290 21.5523 290.448 22 291 22ZM302 21C302 21.5523 301.552 22 301 22C300.448 22 300 21.5523 300 21C300 20.4477 300.448 20 301 20C301.552 20 302 20.4477 302 21ZM311 22C311.552 22 312 21.5523 312 21C312 20.4477 311.552 20 311 20C310.448 20 310 20.4477 310 21C310 21.5523 310.448 22 311 22ZM322 21C322 21.5523 321.552 22 321 22C320.448 22 320 21.5523 320 21C320 20.4477 320.448 20 321 20C321.552 20 322 20.4477 322 21ZM222 31C222 31.5523 221.552 32 221 32C220.448 32 220 31.5523 220 31C220 30.4477 220.448 30 221 30C221.552 30 222 30.4477 222 31ZM232 31C232 31.5523 231.552 32 231 32C230.448 32 230 31.5523 230 31C230 30.4477 230.448 30 231 30C231.552 30 232 30.4477 232 31ZM241 32C241.552 32 242 31.5523 242 31C242 30.4477 241.552 30 241 30C240.448 30 240 30.4477 240 31C240 31.5523 240.448 32 241 32ZM252 31C252 31.5523 251.552 32 251 32C250.448 32 250 31.5523 250 31C250 30.4477 250.448 30 251 30C251.552 30 252 30.4477 252 31ZM261 32C261.552 32 262 31.5523 262 31C262 30.4477 261.552 30 261 30C260.448 30 260 30.4477 260 31C260 31.5523 260.448 32 261 32ZM272 31C272 31.5523 271.552 32 271 32C270.448 32 270 31.5523 270 31C270 30.4477 270.448 30 271 30C271.552 30 272 30.4477 272 31ZM281 32C281.552 32 282 31.5523 282 31C282 30.4477 281.552 30 281 30C280.448 30 280 30.4477 280 31C280 31.5523 280.448 32 281 32ZM292 31C292 31.5523 291.552 32 291 32C290.448 32 290 31.5523 290 31C290 30.4477 290.448 30 291 30C291.552 30 292 30.4477 292 31ZM301 32C301.552 32 302 31.5523 302 31C302 30.4477 301.552 30 301 30C300.448 30 300 30.4477 300 31C300 31.5523 300.448 32 301 32ZM312 31C312 31.5523 311.552 32 311 32C310.448 32 310 31.5523 310 31C310 30.4477 310.448 30 311 30C311.552 30 312 30.4477 312 31ZM321 32C321.552 32 322 31.5523 322 31C322 30.4477 321.552 30 321 30C320.448 30 320 30.4477 320 31C320 31.5523 320.448 32 321 32ZM221 42C221.552 42 222 41.5523 222 41C222 40.4477 221.552 40 221 40C220.448 40 220 40.4477 220 41C220 41.5523 220.448 42 221 42ZM231 42C231.552 42 232 41.5523 232 41C232 40.4477 231.552 40 231 40C230.448 40 230 40.4477 230 41C230 41.5523 230.448 42 231 42ZM242 41C242 41.5523 241.552 42 241 42C240.448 42 240 41.5523 240 41C240 40.4477 240.448 40 241 40C241.552 40 242 40.4477 242 41ZM251 42C251.552 42 252 41.5523 252 41C252 40.4477 251.552 40 251 40C250.448 40 250 40.4477 250 41C250 41.5523 250.448 42 251 42ZM262 41C262 41.5523 261.552 42 261 42C260.448 42 260 41.5523 260 41C260 40.4477 260.448 40 261 40C261.552 40 262 40.4477 262 41ZM271 42C271.552 42 272 41.5523 272 41C272 40.4477 271.552 40 271 40C270.448 40 270 40.4477 270 41C270 41.5523 270.448 42 271 42ZM282 41C282 41.5523 281.552 42 281 42C280.448 42 280 41.5523 280 41C280 40.4477 280.448 40 281 40C281.552 40 282 40.4477 282 41ZM291 42C291.552 42 292 41.5523 292 41C292 40.4477 291.552 40 291 40C290.448 40 290 40.4477 290 41C290 41.5523 290.448 42 291 42ZM302 41C302 41.5523 301.552 42 301 42C300.448 42 300 41.5523 300 41C300 40.4477 300.448 40 301 40C301.552 40 302 40.4477 302 41ZM311 42C311.552 42 312 41.5523 312 41C312 40.4477 311.552 40 311 40C310.448 40 310 40.4477 310 41C310 41.5523 310.448 42 311 42ZM322 41C322 41.5523 321.552 42 321 42C320.448 42 320 41.5523 320 41C320 40.4477 320.448 40 321 40C321.552 40 322 40.4477 322 41ZM222 51C222 51.5523 221.552 52 221 52C220.448 52 220 51.5523 220 51C220 50.4477 220.448 50 221 50C221.552 50 222 50.4477 222 51ZM232 51C232 51.5523 231.552 52 231 52C230.448 52 230 51.5523 230 51C230 50.4477 230.448 50 231 50C231.552 50 232 50.4477 232 51ZM241 52C241.552 52 242 51.5523 242 51C242 50.4477 241.552 50 241 50C240.448 50 240 50.4477 240 51C240 51.5523 240.448 52 241 52ZM252 51C252 51.5523 251.552 52 251 52C250.448 52 250 51.5523 250 51C250 50.4477 250.448 50 251 50C251.552 50 252 50.4477 252 51ZM261 52C261.552 52 262 51.5523 262 51C262 50.4477 261.552 50 261 50C260.448 50 260 50.4477 260 51C260 51.5523 260.448 52 261 52ZM272 51C272 51.5523 271.552 52 271 52C270.448 52 270 51.5523 270 51C270 50.4477 270.448 50 271 50C271.552 50 272 50.4477 272 51ZM281 52C281.552 52 282 51.5523 282 51C282 50.4477 281.552 50 281 50C280.448 50 280 50.4477 280 51C280 51.5523 280.448 52 281 52ZM292 51C292 51.5523 291.552 52 291 52C290.448 52 290 51.5523 290 51C290 50.4477 290.448 50 291 50C291.552 50 292 50.4477 292 51ZM301 52C301.552 52 302 51.5523 302 51C302 50.4477 301.552 50 301 50C300.448 50 300 50.4477 300 51C300 51.5523 300.448 52 301 52ZM312 51C312 51.5523 311.552 52 311 52C310.448 52 310 51.5523 310 51C310 50.4477 310.448 50 311 50C311.552 50 312 50.4477 312 51ZM321 52C321.552 52 322 51.5523 322 51C322 50.4477 321.552 50 321 50C320.448 50 320 50.4477 320 51C320 51.5523 320.448 52 321 52ZM221 62C221.552 62 222 61.5523 222 61C222 60.4477 221.552 60 221 60C220.448 60 220 60.4477 220 61C220 61.5523 220.448 62 221 62ZM231 62C231.552 62 232 61.5523 232 61C232 60.4477 231.552 60 231 60C230.448 60 230 60.4477 230 61C230 61.5523 230.448 62 231 62ZM242 61C242 61.5523 241.552 62 241 62C240.448 62 240 61.5523 240 61C240 60.4477 240.448 60 241 60C241.552 60 242 60.4477 242 61ZM251 62C251.552 62 252 61.5523 252 61C252 60.4477 251.552 60 251 60C250.448 60 250 60.4477 250 61C250 61.5523 250.448 62 251 62ZM262 61C262 61.5523 261.552 62 261 62C260.448 62 260 61.5523 260 61C260 60.4477 260.448 60 261 60C261.552 60 262 60.4477 262 61ZM271 62C271.552 62 272 61.5523 272 61C272 60.4477 271.552 60 271 60C270.448 60 270 60.4477 270 61C270 61.5523 270.448 62 271 62ZM282 61C282 61.5523 281.552 62 281 62C280.448 62 280 61.5523 280 61C280 60.4477 280.448 60 281 60C281.552 60 282 60.4477 282 61ZM291 62C291.552 62 292 61.5523 292 61C292 60.4477 291.552 60 291 60C290.448 60 290 60.4477 290 61C290 61.5523 290.448 62 291 62ZM302 61C302 61.5523 301.552 62 301 62C300.448 62 300 61.5523 300 61C300 60.4477 300.448 60 301 60C301.552 60 302 60.4477 302 61ZM311 62C311.552 62 312 61.5523 312 61C312 60.4477 311.552 60 311 60C310.448 60 310 60.4477 310 61C310 61.5523 310.448 62 311 62ZM322 61C322 61.5523 321.552 62 321 62C320.448 62 320 61.5523 320 61C320 60.4477 320.448 60 321 60C321.552 60 322 60.4477 322 61ZM222 71C222 71.5523 221.552 72 221 72C220.448 72 220 71.5523 220 71C220 70.4477 220.448 70 221 70C221.552 70 222 70.4477 222 71ZM232 71C232 71.5523 231.552 72 231 72C230.448 72 230 71.5523 230 71C230 70.4477 230.448 70 231 70C231.552 70 232 70.4477 232 71ZM241 72C241.552 72 242 71.5523 242 71C242 70.4477 241.552 70 241 70C240.448 70 240 70.4477 240 71C240 71.5523 240.448 72 241 72ZM252 71C252 71.5523 251.552 72 251 72C250.448 72 250 71.5523 250 71C250 70.4477 250.448 70 251 70C251.552 70 252 70.4477 252 71ZM261 72C261.552 72 262 71.5523 262 71C262 70.4477 261.552 70 261 70C260.448 70 260 70.4477 260 71C260 71.5523 260.448 72 261 72ZM272 71C272 71.5523 271.552 72 271 72C270.448 72 270 71.5523 270 71C270 70.4477 270.448 70 271 70C271.552 70 272 70.4477 272 71ZM281 72C281.552 72 282 71.5523 282 71C282 70.4477 281.552 70 281 70C280.448 70 280 70.4477 280 71C280 71.5523 280.448 72 281 72ZM292 71C292 71.5523 291.552 72 291 72C290.448 72 290 71.5523 290 71C290 70.4477 290.448 70 291 70C291.552 70 292 70.4477 292 71ZM301 72C301.552 72 302 71.5523 302 71C302 70.4477 301.552 70 301 70C300.448 70 300 70.4477 300 71C300 71.5523 300.448 72 301 72ZM312 71C312 71.5523 311.552 72 311 72C310.448 72 310 71.5523 310 71C310 70.4477 310.448 70 311 70C311.552 70 312 70.4477 312 71ZM321 72C321.552 72 322 71.5523 322 71C322 70.4477 321.552 70 321 70C320.448 70 320 70.4477 320 71C320 71.5523 320.448 72 321 72ZM221 82C221.552 82 222 81.5523 222 81C222 80.4477 221.552 80 221 80C220.448 80 220 80.4477 220 81C220 81.5523 220.448 82 221 82ZM231 82C231.552 82 232 81.5523 232 81C232 80.4477 231.552 80 231 80C230.448 80 230 80.4477 230 81C230 81.5523 230.448 82 231 82ZM242 81C242 81.5523 241.552 82 241 82C240.448 82 240 81.5523 240 81C240 80.4477 240.448 80 241 80C241.552 80 242 80.4477 242 81ZM251 82C251.552 82 252 81.5523 252 81C252 80.4477 251.552 80 251 80C250.448 80 250 80.4477 250 81C250 81.5523 250.448 82 251 82ZM262 81C262 81.5523 261.552 82 261 82C260.448 82 260 81.5523 260 81C260 80.4477 260.448 80 261 80C261.552 80 262 80.4477 262 81ZM271 82C271.552 82 272 81.5523 272 81C272 80.4477 271.552 80 271 80C270.448 80 270 80.4477 270 81C270 81.5523 270.448 82 271 82ZM282 81C282 81.5523 281.552 82 281 82C280.448 82 280 81.5523 280 81C280 80.4477 280.448 80 281 80C281.552 80 282 80.4477 282 81ZM291 82C291.552 82 292 81.5523 292 81C292 80.4477 291.552 80 291 80C290.448 80 290 80.4477 290 81C290 81.5523 290.448 82 291 82ZM302 81C302 81.5523 301.552 82 301 82C300.448 82 300 81.5523 300 81C300 80.4477 300.448 80 301 80C301.552 80 302 80.4477 302 81ZM311 82C311.552 82 312 81.5523 312 81C312 80.4477 311.552 80 311 80C310.448 80 310 80.4477 310 81C310 81.5523 310.448 82 311 82ZM322 81C322 81.5523 321.552 82 321 82C320.448 82 320 81.5523 320 81C320 80.4477 320.448 80 321 80C321.552 80 322 80.4477 322 81ZM222 91C222 91.5523 221.552 92 221 92C220.448 92 220 91.5523 220 91C220 90.4477 220.448 90 221 90C221.552 90 222 90.4477 222 91ZM232 91C232 91.5523 231.552 92 231 92C230.448 92 230 91.5523 230 91C230 90.4477 230.448 90 231 90C231.552 90 232 90.4477 232 91ZM241 92C241.552 92 242 91.5523 242 91C242 90.4477 241.552 90 241 90C240.448 90 240 90.4477 240 91C240 91.5523 240.448 92 241 92ZM252 91C252 91.5523 251.552 92 251 92C250.448 92 250 91.5523 250 91C250 90.4477 250.448 90 251 90C251.552 90 252 90.4477 252 91ZM261 92C261.552 92 262 91.5523 262 91C262 90.4477 261.552 90 261 90C260.448 90 260 90.4477 260 91C260 91.5523 260.448 92 261 92ZM272 91C272 91.5523 271.552 92 271 92C270.448 92 270 91.5523 270 91C270 90.4477 270.448 90 271 90C271.552 90 272 90.4477 272 91ZM281 92C281.552 92 282 91.5523 282 91C282 90.4477 281.552 90 281 90C280.448 90 280 90.4477 280 91C280 91.5523 280.448 92 281 92ZM292 91C292 91.5523 291.552 92 291 92C290.448 92 290 91.5523 290 91C290 90.4477 290.448 90 291 90C291.552 90 292 90.4477 292 91ZM301 92C301.552 92 302 91.5523 302 91C302 90.4477 301.552 90 301 90C300.448 90 300 90.4477 300 91C300 91.5523 300.448 92 301 92ZM312 91C312 91.5523 311.552 92 311 92C310.448 92 310 91.5523 310 91C310 90.4477 310.448 90 311 90C311.552 90 312 90.4477 312 91ZM321 92C321.552 92 322 91.5523 322 91C322 90.4477 321.552 90 321 90C320.448 90 320 90.4477 320 91C320 91.5523 320.448 92 321 92Z" fill="#FFD100"/>
</svg>
