<svg width="112" height="24" viewBox="0 0 112 24" fill="none" xmlns="http://www.w3.org/2000/svg">
<path fill-rule="evenodd" clip-rule="evenodd" d="M92.3036 3.65176C92.3036 5.66861 90.6686 7.30356 88.6518 7.30356C86.6349 7.30356 85 5.66861 85 3.65176C85 1.63495 86.6349 0 88.6518 0C90.6686 0 92.3036 1.63495 92.3036 3.65176ZM91.6232 23.9845H85.673L85.6903 9.15369L91.6314 9.17285L91.6232 23.9845Z" fill="black"/>
<path fill-rule="evenodd" clip-rule="evenodd" d="M100.017 0H94V6H100.013L100 24H105.992L105.998 6H112V0H100.017Z" fill="black"/>
<path fill-rule="evenodd" clip-rule="evenodd" d="M66 24H71.9917L71.9948 15H78V9H71.9969L71.9979 6H83V0H66.0175H66V6H66.0131L66.0109 9H66V15H66.0066L66 24Z" fill="black"/>
<path d="M23.5982 15.071H23.5964C22.2403 20.2103 17.5621 24 11.9973 24C5.37128 24 0 18.6287 0 12.0028C0 5.37677 5.37128 0.00549316 11.9973 0.00549316C14.7843 0.00549316 17.3466 0.957932 19.3839 2.55233L16.07 7.64875C15.0007 6.65887 13.5697 6.05343 11.9982 6.05343C8.68518 6.05343 5.99954 8.73907 5.99954 12.0521C5.99954 15.3651 8.68518 18.0507 11.9982 18.0507C14.2099 18.0507 16.1412 16.8526 17.1813 15.0701H11.2439L15.1103 9.12443L23.6521 9.15092C23.8749 10.065 23.9954 11.0184 23.9954 12.0009C23.9954 13.0593 23.8566 14.0857 23.5991 15.0637V15.071H23.5982Z" fill="black"/>
<path fill-rule="evenodd" clip-rule="evenodd" d="M32.3939 3.65727C32.3939 5.67409 30.7589 7.30905 28.7421 7.30905C26.7253 7.30905 25.0903 5.67409 25.0903 3.65727C25.0903 1.64045 26.7253 0.00549316 28.7421 0.00549316C30.7589 0.00549316 32.3939 1.64045 32.3939 3.65727ZM31.7135 23.99H25.7633L25.7807 9.15918L31.7218 9.17836L31.7135 23.99Z" fill="black"/>
<path d="M57.1144 15.0591C57.3719 14.0811 57.5107 13.0556 57.5107 11.9963C57.5107 11.0138 57.3902 10.0604 57.1673 9.14634L48.6255 9.11985L44.7592 15.0655H50.6966C49.6565 16.848 47.7251 18.0461 45.5134 18.0461C42.2004 18.0461 39.5148 15.3605 39.5148 12.0475C39.5148 8.73449 42.2004 6.04885 45.5134 6.04885C47.0859 6.04885 48.5159 6.65429 49.5853 7.64417L52.8992 2.54775C50.8628 0.952439 48.3004 0 45.5134 0C38.8875 0 33.5162 5.37128 33.5162 11.9973C33.5162 18.6232 38.8875 23.9945 45.5134 23.9945C51.0783 23.9945 55.7574 20.2049 57.1126 15.0655H57.1144V15.0591Z" fill="black"/>
</svg>
