<svg width="24" height="24" viewBox="0 0 24 24" fill="none" xmlns="http://www.w3.org/2000/svg">
<path d="M19.6782 10.545H12.0422V13.818H16.3702C15.6782 16 13.9692 16.727 12.0072 16.727C11.2469 16.728 10.4976 16.5455 9.82282 16.1951C9.14807 15.8447 8.56779 15.3368 8.13121 14.7143C7.69464 14.0918 7.41466 13.3732 7.31502 12.6195C7.21538 11.8657 7.29903 11.0991 7.55886 10.3845C7.8187 9.67001 8.24706 9.0287 8.80759 8.51503C9.36812 8.00135 10.0443 7.63046 10.7787 7.43382C11.5132 7.23719 12.2842 7.22061 13.0264 7.3855C13.7686 7.55039 14.4601 7.89188 15.0422 8.381L17.4202 6.116C16.4625 5.23383 15.3041 4.59875 14.0453 4.26587C12.7865 3.93299 11.4655 3.91238 10.197 4.20583C8.92845 4.49927 7.75071 5.09791 6.76601 5.94977C5.7813 6.80163 5.0194 7.88096 4.54645 9.09406C4.07349 10.3072 3.90377 11.6174 4.05203 12.9109C4.20029 14.2045 4.66204 15.4423 5.3972 16.517C6.13236 17.5916 7.11871 18.4706 8.27061 19.0775C9.42251 19.6845 10.7052 20.0012 12.0072 20C16.4182 20 20.4072 17.091 19.6782 10.545Z" fill="white"/>
</svg>
