<svg width="24" height="24" viewBox="0 0 24 24" fill="none" xmlns="http://www.w3.org/2000/svg">
<path fill-rule="evenodd" clip-rule="evenodd" d="M4 16C4 18.056 5.944 20 8 20H16C18.056 20 20 18.056 20 16V8C20 5.944 18.056 4 16 4H8C5.944 4 4 5.944 4 8V16ZM6 8C6 7.065 7.065 6 8 6H16C16.935 6 18 7.065 18 8V16C18 16.935 16.935 18 16 18H8C7.047 18 6 16.953 6 16V8ZM16.145 8.85201C16.6752 8.85201 17.105 8.4222 17.105 7.89201C17.105 7.36181 16.6752 6.93201 16.145 6.93201C15.6148 6.93201 15.185 7.36181 15.185 7.89201C15.185 8.4222 15.6148 8.85201 16.145 8.85201ZM12 16C9.794 16 8 14.206 8 12C8 9.794 9.794 8 12 8C14.206 8 16 9.794 16 12C16 14.206 14.206 16 12 16ZM12 10C10.897 10 10 10.897 10 12C10 13.103 10.897 14 12 14C13.103 14 14 13.103 14 12C14 10.897 13.103 10 12 10Z" fill="black"/>
</svg>
