<svg width="24" height="24" viewBox="0 0 24 24" fill="none" xmlns="http://www.w3.org/2000/svg">
<path d="M19 8H5C4.4 8 4 8.4 4 9V19C4 19.6 4.4 20 5 20H19C19.6 20 20 19.6 20 19V9C20 8.4 19.6 8 19 8ZM15.1 18H8.9C8.5 16.6 7.4 15.5 6 15.1V12.9C7.4 12.5 8.5 11.4 8.9 10H15.2C15.6 11.4 16.7 12.5 18.1 12.9V15.2C16.6 15.5 15.5 16.6 15.1 18Z" fill="black"/>
<path d="M12 16C13.1046 16 14 15.1046 14 14C14 12.8954 13.1046 12 12 12C10.8954 12 10 12.8954 10 14C10 15.1046 10.8954 16 12 16Z" fill="black"/>
<path d="M18 4H6V6H18V4Z" fill="black"/>
</svg>
