<svg width="24" height="24" viewBox="0 0 24 24" fill="none" xmlns="http://www.w3.org/2000/svg">
<path d="M12.1555 4.00042H12.1155H11.8385C11.0021 3.99019 10.1812 4.22659 9.47838 4.6801C8.77553 5.13361 8.22185 5.78413 7.88651 6.55042C7.59995 7.6035 7.53188 8.70407 7.68651 9.78442C7.69451 9.91242 7.70351 10.0454 7.71051 10.1744C7.61415 10.2226 7.50716 10.2457 7.39951 10.2414C7.1427 10.2281 6.89174 10.1599 6.66351 10.0414C6.58408 10.0055 6.49766 9.98776 6.41051 9.98942C6.24061 9.98343 6.07328 10.0322 5.9332 10.1285C5.79313 10.2248 5.68771 10.3636 5.63251 10.5244C5.58851 10.7544 5.69151 11.0904 6.43251 11.3834C6.49951 11.4094 6.57951 11.4354 6.66451 11.4624C6.97051 11.5624 7.43351 11.7064 7.56451 12.0024C7.59445 12.0999 7.60307 12.2027 7.58978 12.3038C7.5765 12.4049 7.54162 12.502 7.48751 12.5884L7.47951 12.6044C7.18997 13.2698 6.7503 13.8591 6.19496 14.3261C5.63961 14.7932 4.98366 15.1253 4.27851 15.2964C4.19764 15.3096 4.12451 15.3523 4.07319 15.4161C4.02187 15.48 3.99598 15.5606 4.00051 15.6424C4.00283 15.6938 4.0147 15.7444 4.03551 15.7914C4.19851 16.1734 4.88751 16.4524 6.14051 16.6474C6.19376 16.7685 6.23139 16.8959 6.25251 17.0264C6.27851 17.1464 6.30551 17.2704 6.34451 17.4014C6.36533 17.4868 6.41576 17.5619 6.48681 17.6136C6.55785 17.6652 6.64492 17.69 6.73251 17.6834C6.85417 17.6777 6.97502 17.6606 7.09351 17.6324C7.37379 17.5707 7.65955 17.5372 7.94651 17.5324C8.15155 17.5329 8.35622 17.5499 8.55851 17.5834C8.97991 17.6927 9.37149 17.895 9.70451 18.1754C10.3208 18.7003 11.0956 19.0029 11.9045 19.0344C11.9312 19.0344 11.9582 19.0344 11.9855 19.0344C12.0175 19.0344 12.0585 19.0344 12.1025 19.0344C12.9115 19.0031 13.6864 18.7005 14.3025 18.1754C14.6356 17.8946 15.0276 17.6923 15.4495 17.5834C15.6515 17.5499 15.8558 17.5328 16.0605 17.5324C16.3471 17.5336 16.6329 17.5638 16.9135 17.6224C17.0322 17.6486 17.153 17.6636 17.2745 17.6674H17.2925C17.3769 17.672 17.4602 17.6468 17.5278 17.5961C17.5955 17.5455 17.6432 17.4727 17.6625 17.3904C17.7005 17.2624 17.7275 17.1414 17.7545 17.0184C17.7759 16.8886 17.8135 16.7619 17.8665 16.6414C19.1195 16.4474 19.8085 16.1684 19.9715 15.7884C19.9922 15.741 20.0041 15.6901 20.0065 15.6384C20.0113 15.5567 19.9856 15.4761 19.9345 15.4122C19.8833 15.3483 19.8103 15.3056 19.7295 15.2924C19.0263 15.121 18.3722 14.7895 17.8182 14.3238C17.2642 13.8581 16.8252 13.2707 16.5355 12.6074L16.5275 12.5914C16.4734 12.505 16.4385 12.4079 16.4252 12.3068C16.4119 12.2057 16.4206 12.1029 16.4505 12.0054C16.5765 11.7054 17.0385 11.5624 17.3445 11.4654C17.4305 11.4384 17.5115 11.4124 17.5775 11.3864C18.1195 11.1724 18.3915 10.9094 18.3855 10.6044C18.3711 10.4728 18.3167 10.3488 18.2296 10.249C18.1425 10.1492 18.027 10.0785 17.8985 10.0464C17.7926 10.0043 17.6795 9.98288 17.5655 9.98342C17.4599 9.98167 17.3552 10.0028 17.2585 10.0454C17.044 10.1561 16.81 10.2241 16.5695 10.2454C16.4758 10.2444 16.3837 10.2214 16.3005 10.1784C16.3065 10.0684 16.3135 9.95542 16.3215 9.83642V9.79042C16.476 8.70907 16.408 7.60754 16.1215 6.55342C15.7849 5.7849 15.2291 5.13275 14.5236 4.67863C13.8182 4.2245 12.9944 3.98859 12.1555 4.00042Z" fill="black"/>
</svg>
